<?xml version="1.0" standalone="no"?><!DOCTYPE svg PUBLIC "-//W3C//DTD SVG 1.1//EN" "http://www.w3.org/Graphics/SVG/1.1/DTD/svg11.dtd"><svg class="icon" width="200px" height="200.00px" viewBox="0 0 1024 1024" version="1.1" xmlns="http://www.w3.org/2000/svg"><path d="M877.696 0H146.304A146.688 146.688 0 0 0 0 146.304v731.392A146.688 146.688 0 0 0 146.304 1024h731.392A146.688 146.688 0 0 0 1024 877.696V146.304A146.688 146.688 0 0 0 877.696 0zM782.72 212.096v7.36h-73.152l-29.248 29.248 7.296 51.2h-7.296s-7.36 29.248-14.656 43.84c-7.296 7.36-21.952 58.56-124.352-7.296 0 0-14.592 21.952 7.296 36.608V460.8s0 21.952-29.248 14.656v29.248s58.56 43.84 87.808 153.6v146.24H599.68v51.2s21.952 29.312 36.608 36.608c7.296 0 29.248 0 36.544 29.248v7.296H533.952v-43.84c7.296-14.656 7.296-21.952 7.296-21.952v-51.2h-7.296s-21.952-51.2-7.296-102.4c7.296 0 0-36.608 0-36.608h-21.952l-51.2-65.792-21.952-7.36v-14.592s-21.952 7.296-51.2 95.104c0 7.296 0 7.296-7.296 7.296-7.36 0-36.608 29.248-36.608 43.904 0 0 0 36.544-7.296 43.84-7.296 7.36-14.656 21.952-21.952 51.2 0 7.36 0 7.36-14.656 14.656-7.296 0-29.248 36.544-14.592 80.448h14.592v29.248H219.52v-58.496s14.592 7.296 21.888-65.856c0 0-14.592-21.952 7.36-58.496 0-7.296 7.296-29.248 7.296-29.248s7.296-36.608 36.544-58.496c0-7.36 7.36-117.056 7.36-117.056l-7.36 7.296v-21.952h7.36v-7.296l-7.36-7.296v-29.248H307.2v-36.608s-14.656-7.296 0-43.84c7.296 0 21.952-7.36 14.656-7.36-7.36 0-21.952-7.296-21.952-7.296L307.2 321.856h36.544V234.048s14.656-51.2 51.2-58.496h36.608v-7.296s-14.656-73.152 58.496-87.808c7.296 0 87.808 7.296 58.496 80.448l-7.296 7.36v21.888s14.656 7.36 43.904-7.296v-21.952h7.296v21.952h190.208v-21.952h14.592v29.248h14.656V204.8h51.2l7.296-7.296h36.544v14.592H782.72z" fill="#F8AC33" /></svg>