<?xml version="1.0" standalone="no"?><!DOCTYPE svg PUBLIC "-//W3C//DTD SVG 1.1//EN" "http://www.w3.org/Graphics/SVG/1.1/DTD/svg11.dtd"><svg class="icon" width="200px" height="200.00px" viewBox="0 0 1024 1024" version="1.1" xmlns="http://www.w3.org/2000/svg"><path d="M877.696 0H146.304A146.752 146.752 0 0 0 0 146.304v731.392A146.752 146.752 0 0 0 146.304 1024h731.392A146.752 146.752 0 0 0 1024 877.696V146.304A146.752 146.752 0 0 0 877.696 0zM197.504 848.512L139.008 716.8l58.496-197.504 226.688 285.312-226.688 43.904z m555.904 29.184L212.096 234.24l29.312-43.904L387.712 277.76l497.28 431.616-131.584 168.192v0.064z m87.68-489.92L570.432 190.208l146.304-43.904 168.192 87.808-43.904 153.6z" fill="#DB3A20" /></svg>