<?xml version="1.0" encoding="UTF-8"?>
<svg width="20px" height="20px" viewBox="0 0 20 20" version="1.1" xmlns="http://www.w3.org/2000/svg" xmlns:xlink="http://www.w3.org/1999/xlink">
    <title>删除</title>
    <g id="在售页优化1.3.0" stroke="none" stroke-width="1" fill="none" fill-rule="evenodd">
        <g id="账号管理" transform="translate(-44.000000, -540.000000)">
            <g id="编组-10" transform="translate(18.000000, 473.000000)">
                <g id="删除" transform="translate(26.000000, 67.000000)">
                    <polygon id="路径" fill="#29104E" fill-rule="nonzero" points="3.68815592 5.61973498 16.3018491 5.61973498 16.3018491 5.67093496 3.68815592 5.67093496"></polygon>
                    <path d="M4.79760121,5.61973498 L15.1924038,5.67093496 L15.1924038,5.61973498 L4.79760121,5.61973498 Z M1.99900051,4.01973497 L4.79760121,4.07093495 L4.79760121,4.01973497 L1.99900051,4.01973497 Z M15.1924038,4.01973497 L17.9910045,4.07093495 L17.9910045,4.01973497 L15.1924038,4.01973497 Z M6.3968016,4.06093496 L13.5932034,4.06093496 L13.5932034,4.00973498 L6.3968016,4.06093496 Z" id="形状" fill="#29104E" fill-rule="nonzero"></path>
                    <path d="M19.1904048,4 L15.1924038,4 L15.1924038,2 C15.1924038,0.899999995 14.3028486,0 13.1934033,0 L6.7966017,0 C5.69715143,0 4.79760121,0.899999995 4.79760121,2 L4.79760121,4 L0.799600212,4 C0.579710161,4 0.379810108,4.09000001 0.229885069,4.23 C0.0899550277,4.37 0,4.57000001 0,4.8 C0,5.23999999 0.359820091,5.59999999 0.799600212,5.60000001 L2.07896052,5.60000001 L2.75862069,18 C2.75862069,19.11 3.60819589,20 4.66766617,20 L15.3323338,20 C16.3818091,20 17.2313843,19.11 17.2313843,18 L17.9110445,5.60000001 L19.2003998,5.60000001 C19.4202898,5.60000001 19.6201899,5.51 19.7701149,5.37 C19.910045,5.22 20,5.01999999 20,4.8 C19.990005,4.36000001 19.6301849,4 19.1904048,4 Z M6.3968016,1.99999999 C6.3968016,1.78 6.57671163,1.60000001 6.7966017,1.60000001 L13.1934033,1.60000001 C13.4132933,1.60000001 13.5932034,1.78 13.5932034,1.99999999 L13.5932034,4 L6.3968016,4 L6.3968016,1.99999999 Z M15.6321839,17.92 L15.6321839,18.01 C15.6321839,18.25 15.4722639,18.41 15.3323338,18.41 L4.65767117,18.41 C4.50774613,18.41 4.34782609,18.25 4.34782609,18.01 L4.34782609,17.92 L3.68815592,5.60000001 L3.68815592,5.58999999 L16.3018491,5.58999999 L16.3018491,5.60000001 L15.6321839,17.92 L15.6321839,17.92 Z" id="形状" fill="#29104E" fill-rule="nonzero"></path>
                    <path d="M7.986007,15.51 C7.5462269,15.51 7.18640679,15.15 7.18640679,14.71 L7.18640679,9.11 C7.18640679,8.67000001 7.54622688,8.31000001 7.986007,8.31000001 C8.42578712,8.31000001 8.78560719,8.67000001 8.78560719,9.11 L8.78560719,14.71 C8.78560719,15.15 8.4357821,15.51 7.986007,15.51 L7.986007,15.51 Z M11.984008,15.51 C11.5442279,15.51 11.1844078,15.15 11.1844078,14.71 L11.1844078,9.11 C11.1844078,8.67000001 11.5442279,8.31000001 11.984008,8.31000001 C12.4237881,8.31000001 12.7836082,8.67000001 12.7836082,9.11 L12.7836082,14.71 C12.7836082,15.15 12.4337831,15.51 11.984008,15.51 Z" id="形状" fill="#29104E" fill-rule="nonzero"></path>
                    <rect id="矩形" x="0" y="0" width="20" height="20"></rect>
                </g>
            </g>
        </g>
    </g>
</svg>