<?xml version="1.0" encoding="UTF-8"?>
<svg width="20px" height="20px" viewBox="0 0 20 20" version="1.1" xmlns="http://www.w3.org/2000/svg" xmlns:xlink="http://www.w3.org/1999/xlink">
    <title>发货 待发货</title>
    <g id="在售页优化1.3.0" stroke="none" stroke-width="1" fill="none" fill-rule="evenodd">
        <g id="账号管理" transform="translate(-44.000000, -473.000000)" fill="#29104E" fill-rule="nonzero">
            <g id="编组-10" transform="translate(18.000000, 473.000000)">
                <g id="发货-待发货" transform="translate(26.000000, 0.000000)">
                    <path d="M19.2498236,6.125 L0.749993128,6.125 C0.479745604,6.125 0.230497888,5.97975 0.0974991067,5.74475 C-0.0357496724,5.50975 -0.0322497045,5.221 0.10699902,4.98925 L2.15373027,1.578 C2.73747492,0.60475 3.80546513,0 4.94045473,0 L15.059612,0 C16.1948516,0 17.2625918,0.60475 17.8460865,1.578 L19.8930677,4.989 C20.0323165,5.22075 20.0355664,5.50925 19.9028176,5.7445 C19.7694757,5.97959317 19.5200973,6.12490611 19.2498236,6.125 L19.2498236,6.125 Z M2.07473099,4.625 L17.9250858,4.625 L16.5598483,2.34975 C16.2456012,1.8255 15.6708564,1.5 15.059362,1.5 L4.94045473,1.5 C4.32946033,1.5 3.7542156,1.82575 3.43971848,2.34975 L2.07473099,4.625 Z M4.91270499,10.82525 L0.749993128,10.82525 C0.335746924,10.82525 0,10.48925 0,10.075 C0,9.66075 0.335746924,9.325 0.749993128,9.325 L4.91245499,9.325 C5.32670119,9.325 5.66244812,9.66075 5.66244812,10.075 C5.66244812,10.48925 5.32695119,10.82525 4.91270499,10.82525 Z M3.5249677,13.0625 L0.749993128,13.0625 C0.335746924,13.0625 0,12.7265 0,12.3125 C0,11.8985 0.335746924,11.5625 0.749993128,11.5625 L3.5249677,11.5625 C3.93921391,11.5625 4.27496083,11.8985 4.27496083,12.3125 C4.27496083,12.7265 3.93921391,13.0625 3.5249677,13.0625 Z M3.5249677,15.29975 L0.749993128,15.29975 C0.335746924,15.29975 0,14.96375 0,14.54975 C0,14.13575 0.335746924,13.79975 0.749993128,13.79975 L3.5249677,13.79975 C3.93921391,13.79975 4.27496083,14.13575 4.27496083,14.54975 C4.27496083,14.96375 3.93921391,15.29975 3.5249677,15.29975 Z M15.2498603,13.0625 L8.16242521,13.0625 C7.74817901,13.0625 7.41243208,12.7265 7.41243208,12.3125 C7.41243208,11.8985 7.74817901,11.5625 8.16242521,11.5625 L15.2498603,11.5625 C15.6638565,11.5625 15.9998534,11.8985 15.9998534,12.3125 C15.9998534,12.7265 15.6638565,13.0625 15.2498603,13.0625 Z" id="形状"></path>
                    <path d="M15.2498603,13.0625006 C15.057862,13.0625006 14.8661138,12.98925 14.7196151,12.84275 L12.5998846,10.723 C12.3068872,10.43025 12.3068872,9.95525 12.5998846,9.6625 C12.8928819,9.3695 13.3673775,9.3695 13.6603748,9.6625 L15.7801054,11.78225 C16.0731027,12.07525 16.0731027,12.54975 15.7801054,12.84275 C15.6396544,12.983662 15.4488132,13.0627526 15.2498603,13.0625006 Z" id="路径"></path>
                    <path d="M13.1303797,15.1822504 C12.9383815,15.1822504 12.7466332,15.109 12.6001346,14.9625 C12.3071372,14.6695 12.3071372,14.195 12.6001346,13.902 L14.7198651,11.78225 C15.0128624,11.48925 15.4873581,11.48925 15.7803554,11.78225 C16.0733527,12.07525 16.0733527,12.54975 15.7803554,12.84275 L13.6606248,14.9625 C13.5201471,15.1033722 13.3293233,15.1824555 13.1303797,15.1822504 Z" id="路径"></path>
                    <path d="M16.7498465,20 L3.24997022,20 C1.47573648,20 0.0512495304,18.6085 0.00649994044,16.8315 C-0.00399996335,16.4175 0.323497036,16.07325 0.737493243,16.0625 C1.15348943,16.06 1.4957363,16.3795 1.5059862,16.7935 C1.52998598,17.7505 2.29622896,18.5 3.24997022,18.5 L16.7498465,18.5 C17.7145877,18.5 18.4998305,17.71475 18.4998305,16.75 L18.4998305,6.125 L1.49998626,6.125 L1.49998626,7.8125 C1.49998626,8.22675 1.16423933,8.5625 0.749993128,8.5625 C0.335746924,8.5625 0,8.22675 0,7.8125 L0,5.375 C0,4.96075 0.335746924,4.625 0.749993128,4.625 L19.2498236,4.625 C19.6638198,4.625 19.9998168,4.96075 19.9998168,5.375 L19.9998168,16.75 C19.9998168,18.542 18.5418301,20 16.7498465,20 Z" id="路径"></path>
                </g>
            </g>
        </g>
    </g>
</svg>