<?xml version="1.0" encoding="UTF-8"?>
<svg width="20px" height="20px" viewBox="0 0 20 20" version="1.1" xmlns="http://www.w3.org/2000/svg" xmlns:xlink="http://www.w3.org/1999/xlink">
    <title>编组 11</title>
    <g id="在售页优化1.3.0" stroke="none" stroke-width="1" fill="none" fill-rule="evenodd">
        <g id="账号管理" transform="translate(-310.000000, -473.000000)">
            <g id="编组-10" transform="translate(18.000000, 473.000000)">
                <g id="customer-search" transform="translate(26.000000, 0.000000)">
                    <g id="编组-11" transform="translate(266.000000, 0.000000)">
                        <path d="M14.6399415,11.5740738 C15.8586529,11.5735906 16.9943203,12.1955017 17.6556783,13.2255438 C18.3170363,14.2555859 18.4136892,15.5529708 17.9123377,16.6707176 L20,18.7719907 L18.7801841,20 L16.83515,18.0422454 C15.5947395,19.0070508 13.8754902,19.0499584 12.5890721,18.1482155 C11.3026541,17.2464726 10.746858,15.6088219 11.216407,14.1036642 C11.685956,12.5985066 13.0721552,11.5742681 14.6399415,11.5740738 L14.6399415,11.5740738 Z M5.36738525,12.1701389 C5.87060962,12.4872685 6.41409195,12.7453704 6.98920552,12.9351852 L2.72531346,17.9398148 L10.4761192,17.9398148 L10.4761192,19.6759259 L2.72531346,19.6759259 C2.05157744,19.6759259 1.43948572,19.2812663 1.1579195,18.6653664 C0.876353285,18.0494665 0.976827172,17.3249894 1.41520474,16.8101852 L5.36738525,12.1701389 Z M14.6399415,13.3101852 C13.9742242,13.3101852 13.359076,13.6675581 13.0262174,14.2476852 C12.6933587,14.8278122 12.6933587,15.5425582 13.0262174,16.1226852 C13.359076,16.7028122 13.9742242,17.0601852 14.6399415,17.0601852 C15.6690512,17.0601852 16.5033094,16.2207191 16.5033094,15.1851852 C16.5033094,14.1496513 15.6690512,13.3101852 14.6399415,13.3101852 Z M9.325892,0 C12.5022443,0 15.0770278,2.59085649 15.0770278,5.78703702 C15.0770278,8.98321755 12.5022443,11.5740741 9.325892,11.5740741 C6.14953971,11.5740741 3.57475622,8.98321758 3.57475622,5.78703702 C3.57475622,2.59085646 6.14953971,0 9.325892,0 Z M9.325892,1.73611111 C7.88754056,1.73600032 6.55840192,2.50807821 5.83919442,3.76148455 C5.11998691,5.01489089 5.11998691,6.55918317 5.83919442,7.81258951 C6.55840192,9.06599585 7.88754056,9.83807374 9.325892,9.83796295 C11.5491569,9.83779171 13.3513789,8.02418055 13.3513789,5.78703703 C13.3513789,3.54989351 11.5491569,1.73628235 9.325892,1.73611111 Z" id="形状" fill="#352251" fill-rule="nonzero"></path>
                        <rect id="矩形" x="0" y="0" width="20" height="20"></rect>
                    </g>
                </g>
            </g>
        </g>
    </g>
</svg>