<?xml version="1.0" encoding="UTF-8"?>
<svg width="20px" height="20px" viewBox="0 0 20 20" version="1.1" xmlns="http://www.w3.org/2000/svg" xmlns:xlink="http://www.w3.org/1999/xlink">
    <title>形状结合备份 3</title>
    <g id="在售页优化1.3.0" stroke="none" stroke-width="1" fill="none" fill-rule="evenodd">
        <g id="账号管理" transform="translate(-134.000000, -473.000000)" fill="#29104E" fill-rule="nonzero">
            <g id="编组-10" transform="translate(18.000000, 473.000000)">
                <path d="M131.027842,3 C131.550891,3 132.052517,3.20778031 132.422368,3.57763164 C132.79222,3.94748296 133,4.44910901 133,4.97215777 L133,18.0278422 C133,19.1170349 132.117035,20 131.027842,20 L117.972158,20 C116.882965,20 116,19.1170349 116,18.0278422 L116,4.97215777 C116,3.88296511 116.882965,3 117.972158,3 L131.027842,3 Z M131.027842,4.57772622 L117.972158,4.57772622 C117.754319,4.57772622 117.577726,4.75431924 117.577726,4.97215777 L117.577726,18.0278422 C117.577726,18.2456808 117.754319,18.4222738 117.972158,18.4222738 L131.027842,18.4222738 C131.245681,18.4222738 131.422274,18.2456808 131.422274,18.0278422 L131.422274,4.97215777 C131.422274,4.75431924 131.245681,4.57772622 131.027842,4.57772622 Z M134.027842,0 C135.117035,0 136,0.882965111 136,1.97215777 L136,15.0278422 C136,15.550891 135.79222,16.052517 135.422368,16.4223684 C135.052517,16.7922197 134.550891,17 134.027842,17 C133.592165,17 133.238979,16.646814 133.238979,16.2111369 C133.238979,15.7754598 133.592165,15.4222738 134.027842,15.4222738 C134.245681,15.4222738 134.422274,15.2456808 134.422274,15.0278422 L134.422274,1.97215777 C134.422274,1.75431924 134.245681,1.57772622 134.027842,1.57772622 L120.972158,1.57772622 C120.754319,1.57772622 120.577726,1.75431924 120.577726,1.97215777 C120.577726,2.40783484 120.22454,2.76102088 119.788863,2.76102088 C119.353186,2.76102088 119,2.40783484 119,1.97215777 C119,0.882965111 119.882965,0 120.972158,0 L134.027842,0 Z M124,8 C124.552285,8 125,8.33474037 125,8.74766355 L125,11 L127.252336,11 C127.66526,11 128,11.4477153 128,12 C128,12.5522847 127.66526,13 127.252336,13 L125,13 L125,15.2523364 C125,15.6652596 124.552285,16 124,16 C123.447715,16 123,15.6652596 123,15.2523364 L123,13 L120.747664,13 C120.33474,13 120,12.5522847 120,12 C120,11.4477153 120.33474,11 120.747664,11 L123,11 L123,8.74766355 C123,8.33474037 123.447715,8 124,8 Z" id="形状结合备份-3"></path>
            </g>
        </g>
    </g>
</svg>