<?xml version="1.0" encoding="UTF-8"?>
<svg width="20px" height="20px" viewBox="0 0 20 20" version="1.1" xmlns="http://www.w3.org/2000/svg" xmlns:xlink="http://www.w3.org/1999/xlink">
    <title>lock</title>
    <g id="在售页优化1.3.0" stroke="none" stroke-width="1" fill="none" fill-rule="evenodd">
        <g id="账号管理" transform="translate(-222.000000, -473.000000)">
            <g id="编组-10" transform="translate(18.000000, 473.000000)">
                <g id="lock" transform="translate(204.000000, 0.000000)">
                    <path d="M10.0185625,0 C11.2866288,0 12.5027585,0.511733215 13.3994168,1.4226242 C14.2960751,2.33351518 14.7998125,3.56894847 14.7998125,4.85714285 L14.79925,6.28571428 L17.3125,6.28571428 C17.7600528,6.28571428 18.1892751,6.46632601 18.5057427,6.78781694 C18.8222103,7.10930788 19,7.54534316 19,8 L19,18.2857143 C19,18.7403711 18.8222103,19.1764064 18.5057427,19.4978973 C18.1892751,19.8193883 17.7600528,20 17.3125,20 L2.6875,20 C2.23994717,20 1.81072494,19.8193883 1.49425731,19.4978973 C1.17778967,19.1764064 1,18.7403711 1,18.2857143 L1,8 C1,7.05322614 1.75551948,6.28571428 2.6875,6.28571428 L5.23674999,6.28571428 L5.23674999,4.85714285 C5.23674999,2.17461693 7.37738853,0 10.018,0 L10.0185625,0 Z M17.3125,8 L2.6875,8 L2.6875,18.2857143 L17.3125,18.2857143 L17.3125,8 L17.3125,8 Z M11.0051875,10.8571429 L11.0051875,15.4285714 L9.31768751,15.4285714 L9.31768751,10.8571429 L11.0051875,10.8571429 Z M10.0185625,1.71428571 C8.30993155,1.71428571 6.92481249,3.12139078 6.92481249,4.85714285 L6.92481249,6.28571428 L13.1123125,6.28571428 L13.1123125,4.85714285 C13.1123125,4.02360531 12.7863648,3.22420729 12.2061741,2.63480725 C11.6259834,2.0454072 10.839076,1.71428571 10.0185625,1.71428571 Z" id="形状" fill="#29104E" fill-rule="nonzero"></path>
                    <rect id="矩形" x="0" y="0" width="20" height="20"></rect>
                </g>
            </g>
        </g>
    </g>
</svg>