<?xml version="1.0" encoding="UTF-8"?>
<svg width="13px" height="16px" viewBox="0 0 13 16" version="1.1" xmlns="http://www.w3.org/2000/svg" xmlns:xlink="http://www.w3.org/1999/xlink">
    <title>形状</title>
    <g id="v1.5.0" stroke="none" stroke-width="1" fill="none" fill-rule="evenodd">
        <g id="自动发货页面_未开通" transform="translate(-413.000000, -119.000000)" fill="#888888" fill-rule="nonzero">
            <g id="编组-11" transform="translate(362.000000, 81.000000)">
                <g id="编组-7" transform="translate(0.000000, 36.000000)">
                    <g id="编组-13" transform="translate(42.000000, 0.000000)">
                        <path d="M16.8047143,2.20273584 C17.0727796,1.88748303 17.2038686,1.94506677 17.095936,2.33940614 L15.7336306,7.30873817 L20.2118515,8.55881583 C20.4175671,8.61603513 20.4795243,8.79206647 20.3496127,8.95242629 L13.2201751,17.7700294 C12.9591745,18.0929358 12.8355426,18.0397255 12.9454376,17.6479373 L14.3874169,12.4960138 L9.21411019,11.6515735 C9.00059993,11.616586 8.93466294,11.4624219 9.07163919,11.3009687 L16.8047143,2.20273584 Z M20.3248863,16.4671059 L17.7447089,16.4671059 L17.4417127,17.2353752 C17.3235756,17.5349565 17.2223152,17.7372286 17.1387165,17.8421914 C17.0551178,17.9471541 16.9177491,17.9996355 16.7273953,17.9996355 C16.5656927,17.9996355 16.4228292,17.9438741 16.2988048,17.8319866 C16.1747805,17.7204637 16.1127683,17.5936336 16.1127683,17.451861 C16.1127683,17.3702233 16.1272901,17.2856699 16.1559413,17.1985654 C16.184985,17.1110964 16.2324754,16.9900976 16.2988048,16.8348401 L17.9221108,12.9446568 L18.0889157,12.541935 C18.1536753,12.3852197 18.2231446,12.2551096 18.2969313,12.1519691 C18.3703254,12.0480996 18.466876,11.9642752 18.5865831,11.9004957 C18.7062901,11.8363518 18.8542559,11.8042798 19.0300879,11.8042798 C19.2094522,11.8042798 19.3585954,11.8363518 19.4783024,11.9004957 C19.5984019,11.9642752 19.6949525,12.0466418 19.7687392,12.1475956 C19.8421333,12.2485494 19.9041455,12.3567923 19.9547757,12.4723242 C20.0050134,12.5882207 20.0693805,12.7427492 20.1470919,12.9362743 L21.8053289,16.8024037 C21.934848,17.0968827 22,17.3108172 22,17.443843 C22,17.5830645 21.9387728,17.7106234 21.8159259,17.8265198 C21.6934715,17.9420518 21.5451132,18 21.3724211,18 C21.2711607,18 21.1848147,17.9828707 21.1125979,17.9489764 C21.0416543,17.915821 20.9795725,17.8683825 20.9308787,17.8101194 C20.8818185,17.7514423 20.8288334,17.6614221 20.7727084,17.5404233 C20.723048,17.4340103 20.6746389,17.3270974 20.62749,17.2197037 L20.3248863,16.4671059 Z M18.0822436,15.5556062 L19.9783246,15.5556062 L19.0218457,13.0831494 L18.0822436,15.5556062 Z" id="形状"></path>
                    </g>
                </g>
            </g>
        </g>
    </g>
</svg>