<?xml version="1.0" encoding="UTF-8"?>
<svg width="15px" height="15px" viewBox="0 0 15 15" version="1.1" xmlns="http://www.w3.org/2000/svg" xmlns:xlink="http://www.w3.org/1999/xlink">
    <title>编辑</title>
    <g id="组件编辑" stroke="none" stroke-width="1" fill="none" fill-rule="evenodd">
        <g transform="translate(-512, -84)" fill="#4D3D65" fill-rule="nonzero" id="编辑">
            <g transform="translate(512, 84)">
                <path d="M7.47208081,2.62400735e-06 C7.74819929,2.62400735e-06 7.97203755,0.223860249 7.97203755,0.500002624 C7.97203755,0.756420544 7.77903416,0.967756204 7.53038633,0.996638758 L7.47208081,1.00000262 L2.49978373,1.00000262 C1.70101239,1.00000262 1.04807888,1.62446261 1.00245962,2.41186623 L0.99991349,2.50000262 L0.99991349,12.5000026 C0.99991349,13.2988431 1.62431945,13.9518331 2.41165496,13.9974563 L2.49978373,14.0000026 L12.4989186,14.0000026 C13.29769,14.0000026 13.9506235,13.3755426 13.9962427,12.588139 L13.9987889,12.5000026 L13.9987889,7.52727936 C13.9987889,7.25113699 14.2226271,7.02727936 14.4987456,7.02727936 C14.7551413,7.02727936 14.9664587,7.22029946 14.9953388,7.4689688 L14.9987024,7.52727936 L14.9987024,12.5000026 C14.9987024,13.84438 13.9376408,14.9409117 12.6073541,14.9976929 L12.4989186,15.0000026 L2.49978373,15.0000026 C1.15552268,15.0000026 0.0590858308,13.9388493 0.00230955711,12.6084474 L5.68434189e-14,12.5000026 L5.68434189e-14,2.50000262 C5.68434189e-14,1.15562527 1.06106155,0.0590935667 2.3913483,0.00231238093 L2.49978373,2.62400735e-06 L7.47208081,2.62400735e-06 Z M14.8535661,0.146418649 C15.0488375,0.341690114 15.0488444,0.658260809 14.8535966,0.853525428 L5.66197314,10.0459442 C5.48842931,10.219503 5.21902905,10.2387981 5.02417193,10.1038222 L4.95491223,10.0459595 C4.75965606,9.85070329 4.75964921,9.53413259 4.95489694,9.33886798 L14.1465205,0.146449233 C14.3417573,-0.0488044664 14.6583124,-0.0488181595 14.8535661,0.146418649 Z" id="形状结合"></path>
            </g>
        </g>
    </g>
</svg>