<?xml version="1.0" standalone="no"?><!DOCTYPE svg PUBLIC "-//W3C//DTD SVG 1.1//EN" "http://www.w3.org/Graphics/SVG/1.1/DTD/svg11.dtd"><svg class="icon" width="200px" height="200.00px" viewBox="0 0 1024 1024" version="1.1" xmlns="http://www.w3.org/2000/svg"><path d="M511.8976 0C794.760533 0 1024 229.376 1024 512c0 282.624-229.034667 512-511.8976 512C229.239467 1024 0 794.8288 0 512S229.239467 0 511.8976 0z m0 68.266667a442.197333 442.197333 0 0 0-313.685333 129.979733A442.368 442.368 0 0 0 68.266667 512c0 122.538667 49.664 233.472 129.979733 313.787733A442.504533 442.504533 0 0 0 512.1024 955.733333c122.538667 0 233.403733-49.664 313.685333-129.9456A442.402133 442.402133 0 0 0 955.733333 512c0-122.504533-49.698133-233.472-130.048-313.7536A442.4704 442.4704 0 0 0 511.931733 68.266667z" fill="#3D3D3D" /><path d="M538.624 296.5504s10.4448-3.140267 22.596267-8.465067c11.8784-5.12 22.562133-11.6736 22.562133-11.6736s-1.9456-8.465067 1.9456-8.465066h12.629333s5.3248 3.857067 5.802667 8.465066c0.750933 4.608 3.413333 9.728 3.413333 9.728l59.426134 1.9456 4.130133-19.421866 15.0528-1.2288 1.9456 22.562133s9.9328 1.9456 13.824 1.2288c3.8912-0.7168 8.4992-1.9456 8.4992-6.5536s1.9456-10.4448 1.9456-10.4448 8.4992 3.8912 8.4992 6.5536c0 2.696533 0.7168 10.922667 0.7168 10.922667s0.7168 4.608 4.608 4.608h12.629333l5.3248-13.585067s7.2704-1.9456 10.4448-0.7168c3.413333 1.194667 3.8912 5.802667 3.8912 8.4992 0 2.6624-1.467733 8.977067 3.413334 9.693867 4.573867 0.7168 11.127467-1.9456 14.5408 0.7168 3.413333 2.6624 6.0416 7.031467 5.3248 9.728-0.7168 2.6624-1.194667 5.802667-1.194667 5.802666h-77.892267s-1.2288 5.802667-11.1616 10.4448c-9.966933 4.608-24.541867 12.356267-24.541866 12.356267s15.291733 41.984 27.648 52.4288l-11.844267 12.356267s-25.258667-27.170133-31.812267-51.2c0 0-13.312 6.5536-23.04 9.728-9.966933 3.140267-12.629333 1.9456-15.7696 2.6624-3.1744 0.477867-15.291733 12.868267-20.616533 17.476266-5.358933 4.608-18.432 10.922667-29.866667 12.834134-11.1616 1.9456-44.168533-0.7168-44.168533-0.7168s-7.9872 16.247467-15.291733 25.7024c-7.2704 9.728-14.5408 38.0928-15.2576 45.8752-0.750933 7.748267-4.642133 14.779733 0.682666 19.387733 5.358933 4.608 16.520533 0 23.074134 5.12 6.5536 5.085867 36.864 43.895467 44.407466 50.449067 7.2704 6.314667-1.194667 8.977067-1.194666 14.813866v18.193067c0 2.6624 21.0944 17.442133 30.3104 32.9728 9.216 15.530667 21.845333 38.843733 22.562133 48.5376 0.750933 9.693867 9.216 47.3088 5.358933 51.677867-3.8912 4.608-11.912533 8.4992-11.912533 8.4992s-4.608 17.92 0 20.616533c4.642133 2.6624 8.021333 11.605333 13.858133 16.247467 5.802667 4.608 32.494933 25.941333 35.669334 34.9184 3.140267 8.977067-4.130133 12.868267-15.291734 16.2816-11.1616 3.140267-40.277333-6.5536-49.015466-12.868267-8.4992-6.5536-21.128533-19.421867-23.790934-27.886933-2.6624-8.533333-1.9456-31.061333-4.608-40.0384-2.6624-9.216-8.021333-5.12-11.1616-20.616534-3.413333-15.530667-7.2704-53.623467-13.1072-63.317333-6.075733-9.728-80.0768-85.4016-89.2928-89.2928-9.216-3.8912-19.182933 19.387733-43.690666 76.1856-24.507733 57.002667-44.1344 78.848-58.709334 86.1184-14.574933 7.031467-29.832533 9.216-33.723733 11.639467-3.8912 2.6624-10.4448 3.8912-9.216 9.216 1.194667 5.12 6.0416 21.845333 9.9328 25.736533 3.8912 3.857067 12.629333 10.410667 5.358933 11.605333-7.304533 1.2288-33.757867 3.413333-42.222933-7.748266-8.533333-10.922667-30.378667-27.648-24.507733-38.8096 6.0416-10.922667 21.845333-19.421867 32.256-33.006934 10.4448-13.585067 40.994133-43.178667 44.885333-60.6208 3.8912-17.476267 3.413333-36.864 9.216-52.4288 6.075733-15.530667 15.291733-48.503467 17.749333-62.122666 2.6624-13.550933 5.802667-57.002667 6.519467-67.1744 0.750933-10.4448 9.966933-106.769067 13.858133-122.2656 3.857067-15.530667 17.2032-26.453333 31.744-34.235734 14.574933-7.748267 23.790933-9.693867 23.790934-9.693866l7.304533 0.7168s-9.216-45.3632 3.8912-56.285867c13.073067-10.922667 27.170133-25.7024 46.830933-21.333333 19.899733 4.608 34.474667 8.4992 49.493334 26.453333 15.018667 18.193067 3.8912 24.507733 0 27.170133-3.8912 2.6624-5.358933 10.410667-9.454934 12.356267-3.8912 1.9456-7.304533 1.9456-7.304533 5.802667 0 3.925333 3.413333 14.097067 3.413333 16.759466 0 2.6624-3.413333 6.5536 0 8.4992 3.413333 1.9456 13.312 1.9456 13.312 1.9456l4.4032-8.021333z" fill="#3D3D3D" /></svg>