<?xml version="1.0" standalone="no"?><!DOCTYPE svg PUBLIC "-//W3C//DTD SVG 1.1//EN" "http://www.w3.org/Graphics/SVG/1.1/DTD/svg11.dtd"><svg class="icon" width="200px" height="200.00px" viewBox="0 0 1024 1024" version="1.1" xmlns="http://www.w3.org/2000/svg"><path d="M511.8976 0C794.760533 0 1024 229.376 1024 512c0 282.624-229.034667 512-511.8976 512C229.239467 1024 0 794.8288 0 512S229.239467 0 511.8976 0z m0 68.1984c-122.538667 0-233.472 49.664-313.7536 129.979733A442.4704 442.4704 0 0 0 68.1984 512a442.368 442.368 0 0 0 129.979733 313.856 442.5728 442.5728 0 0 0 313.924267 129.9456c122.538667 0 233.472-49.664 313.7536-129.979733A442.504533 442.504533 0 0 0 955.8016 512c0-122.538667-49.698133-233.472-130.048-313.821867a442.5728 442.5728 0 0 0-313.856-129.979733zM290.0992 275.694933c7.236267 0 14.4384 6.997333 21.640533 6.997334 7.202133 7.031467 21.640533 14.0288 36.0448 21.060266 7.202133 6.997333 14.4384 13.994667 21.640534 13.994667 7.202133 7.031467 21.640533 14.062933 36.0448 21.060267 0 0 85.162667 70.587733 175.104 145.032533l37.2736 30.8224a28406.954667 28406.954667 0 0 0 169.233066 139.434667l0.477867 0.375466-86.493867 133.2224L297.335467 324.778667l-21.640534-35.054934zM267.810133 512l18.909867 19.694933L393.8304 682.666667l-126.020267 26.282666-31.505066-78.779733L267.810133 512z m382.020267-275.694933l98.474667 60.0064-21.0944 97.518933-84.411734-60.0064-91.409066-67.515733 98.440533-30.0032z" fill="#3D3D3D" /></svg>