<?xml version="1.0" encoding="UTF-8"?>
<svg width="16px" height="16px" viewBox="0 0 16 16" version="1.1" xmlns="http://www.w3.org/2000/svg" xmlns:xlink="http://www.w3.org/1999/xlink">
    <title>最大化</title>
    <defs>
        <filter color-interpolation-filters="auto" id="filter-1">
            <feColorMatrix in="SourceGraphic" type="matrix" values="0 0 0 0 0.207843 0 0 0 0 0.133333 0 0 0 0 0.317647 0 0 0 1.000000 0"></feColorMatrix>
        </filter>
    </defs>
    <g id="steam账号管理" stroke="none" stroke-width="1" fill="none" fill-rule="evenodd" opacity="0.5">
        <g id="编组" transform="translate(-1188.000000, -22.000000)" filter="url(#filter-1)">
            <g transform="translate(1088.000000, 22.000000)">
                <g id="最大化" transform="translate(100.000000, 0.000000)" fill="#352251" fill-rule="nonzero">
                    <path d="M2,6.9 C2.56701234,6.9 3.03382387,7.3290107 3.09354535,7.88014288 L3.1,8 L3.1,12 C3.1,12.4588212 3.44333667,12.8374518 3.88710591,12.8929877 L4,12.9 L8,12.9 C8.60751322,12.9 9.1,13.3924868 9.1,14 C9.1,14.5670123 8.6709893,15.0338239 8.11985712,15.0935453 L8,15.1 L4,15.1 C2.34695461,15.1 0.996103885,13.8061508 0.904907337,12.175912 L0.9,12 L0.9,8 C0.9,7.39248678 1.39248678,6.9 2,6.9 Z M12,0.9 C13.6530454,0.9 15.0038961,2.19384916 15.0950927,3.82408797 L15.1,4 L15.1,8 C15.1,8.60751322 14.6075132,9.1 14,9.1 C13.4329877,9.1 12.9661761,8.6709893 12.9064547,8.11985712 L12.9,8 L12.9,4 C12.9,3.54117882 12.5566633,3.16254822 12.1128941,3.10701228 L12,3.1 L8,3.1 C7.39248678,3.1 6.9,2.60751322 6.9,2 C6.9,1.43298766 7.3290107,0.966176132 7.88014288,0.90645465 L8,0.9 L12,0.9 Z" id="形状结合"></path>
                </g>
            </g>
        </g>
    </g>
</svg>