<?xml version="1.0" encoding="UTF-8"?>
<svg width="16px" height="16px" viewBox="0 0 16 16" version="1.1" xmlns="http://www.w3.org/2000/svg" xmlns:xlink="http://www.w3.org/1999/xlink">
    <title>切片</title>
    <g id="自动发货" stroke="none" stroke-width="1" fill="none" fill-rule="evenodd">
        <g id="第三方自动发货V7" transform="translate(-1211.000000, -174.000000)" fill="#9A90A8" fill-rule="nonzero">
            <g id="编组-2" transform="translate(940.000000, 172.000000)">
                <g id="刷新" transform="translate(271.000000, 2.000000)">
                    <path d="M8,0 C10.9093006,0 13.5287577,1.56747521 14.9342979,4.00717658 L14.9333333,1.6 C14.9333333,1.30544813 15.1721148,1.06666667 15.4666667,1.06666667 C15.7612185,1.06666667 16,1.30544813 16,1.6 L15.999861,5.32103633 C15.9999535,5.32512414 16,5.32922331 16,5.33333333 C16,5.59843001 15.806587,5.81835267 15.5531761,5.85968623 L15.4666667,5.86666667 L11.7333333,5.86666667 C11.4387815,5.86666667 11.2,5.6278852 11.2,5.33333333 C11.2,5.03878147 11.4387815,4.8 11.7333333,4.8 L14.1521651,4.79899904 C12.9744136,2.53686297 10.6231999,1.06666667 8,1.06666667 C4.17082573,1.06666667 1.06666667,4.17082573 1.06666667,8 C1.06666667,11.8291743 4.17082573,14.9333333 8,14.9333333 C11.8291743,14.9333333 14.9333333,11.8291743 14.9333333,8 C14.9333333,7.70544813 15.1721148,7.46666667 15.4666667,7.46666667 C15.7612185,7.46666667 16,7.70544813 16,8 C16,12.418278 12.418278,16 8,16 C3.581722,16 0,12.418278 0,8 C0,3.581722 3.581722,0 8,0 Z" id="形状结合"></path>
                </g>
            </g>
        </g>
    </g>
</svg>