<?xml version="1.0" encoding="UTF-8"?>
<svg width="16px" height="16px" viewBox="0 0 16 16" version="1.1" xmlns="http://www.w3.org/2000/svg" xmlns:xlink="http://www.w3.org/1999/xlink">
    <title>还原</title>
    <defs>
        <filter color-interpolation-filters="auto" id="filter-1">
            <feColorMatrix in="SourceGraphic" type="matrix" values="0 0 0 0 0.207843 0 0 0 0 0.133333 0 0 0 0 0.317647 0 0 0 1.000000 0"></feColorMatrix>
        </filter>
    </defs>
    <g id="steam账号管理" stroke="none" stroke-width="1" fill="none" fill-rule="evenodd" opacity="0.5">
        <g id="编组" transform="translate(-1088.000000, -22.000000)" filter="url(#filter-1)">
            <g transform="translate(1088.000000, 22.000000)" id="还原" fill="#352251" fill-rule="nonzero">
                <path d="M5.2,7.8 C6.85304539,7.8 8.20389611,9.09384916 8.29509266,10.724088 L8.3,10.9 L8.3,14.9 C8.3,15.5075132 7.80751322,16 7.2,16 C6.63298766,16 6.16617613,15.5709893 6.10645465,15.0198571 L6.1,14.9 L6.1,10.9 C6.1,10.4411788 5.75666333,10.0625482 5.31289409,10.0070123 L5.2,10 L1.2,10 C0.592486775,10 0.1,9.50751322 0.1,8.9 C0.1,8.33298766 0.529010702,7.86617613 1.08014288,7.80645465 L1.2,7.8 L5.2,7.8 Z M8.9,0.1 C9.46701234,0.1 9.93382387,0.529010702 9.99354535,1.08014288 L10,1.2 L10,5.2 C10,5.65882118 10.3433367,6.03745178 10.7871059,6.09298772 L10.9,6.1 L14.9,6.1 C15.5075132,6.1 16,6.59248678 16,7.2 C16,7.76701234 15.5709893,8.23382387 15.0198571,8.29354535 L14.9,8.3 L10.9,8.3 C9.24695461,8.3 7.89610389,7.00615084 7.80490734,5.37591203 L7.8,5.2 L7.8,1.2 C7.8,0.592486775 8.29248678,0.1 8.9,0.1 Z" id="形状结合"></path>
            </g>
        </g>
    </g>
</svg>