<?xml version="1.0" encoding="UTF-8"?>
<svg width="20px" height="20px" viewBox="0 0 20 20" version="1.1" xmlns="http://www.w3.org/2000/svg" xmlns:xlink="http://www.w3.org/1999/xlink">
    <title>切片</title>
    <g id="V1.3.0" stroke="none" stroke-width="1" fill="none" fill-rule="evenodd">
        <g id="出售-下架饰品" transform="translate(-478.000000, -326.000000)" fill="#70658B">
            <g id="编组-13备份-11" transform="translate(362.000000, 141.000000)">
                <g id="编组-4" transform="translate(11.000000, 185.000000)">
                    <g id="绝地求生备份-7" transform="translate(105.000000, 0.000000)">
                        <path d="M16,0 C18.209139,0 20,1.790861 20,4 L20,16 C20,18.209139 18.209139,20 16,20 L4,20 C1.790861,20 0,18.209139 0,16 L0,4 C0,1.790861 1.790861,0 4,0 L16,0 Z M16,1.33333333 L4,1.33333333 C2.57186974,1.33333333 1.40594742,2.45597898 1.33659687,3.86690644 L1.33333333,4 L1.33333333,16 C1.33333333,17.4281303 2.45597898,18.5940526 3.86690644,18.6634031 L4,18.6666667 L16,18.6666667 C17.4281303,18.6666667 18.5940526,17.544021 18.6634031,16.1330936 L18.6666667,16 L18.6666667,4 C18.6666667,2.57186974 17.544021,1.40594742 16.1330936,1.33659687 L16,1.33333333 Z" id="矩形" fill-rule="nonzero"></path>
                        <g id="编组-30" transform="translate(3.333333, 4.000000)">
                            <path d="M11.6091163,1.74120544 C10.9593291,0.77554079 9.93504684,0 6.92568765,0 C3.91632846,0 -0.137688572,3.05449696 0.00359382606,7.23370322 C0.144876224,11.4129095 3.13683707,12.4991205 6.24162062,12.4991205 C9.34640417,12.4991205 12.2565321,9.42120233 12.9463663,7.02315832 C13.6362005,4.6251143 13.232143,3.52793889 12.7513999,4.196628 C12.4309044,4.64242074 11.3753223,5.80140477 9.58465339,7.67358008 L10.8668101,7.67358008 C9.2977269,9.66084976 7.65777631,10.722711 5.94695836,10.8591638 C3.38073144,11.0638429 0.669664244,9.77054964 0.833022538,6.24956023 C0.996380833,2.72857083 4.23840594,1.05483348 6.24162062,0.839325265 C8.24483529,0.623817051 9.44502237,1.45999725 9.90789449,1.83719961 C10.3707666,2.21440197 10.8589036,2.69412287 11.305673,2.87007749 C11.7524423,3.04603212 12.2589036,2.70687009 11.6091163,1.74120544 Z" id="路径-3"></path>
                            <polygon id="路径-6" points="3.02717545 2.9499971 4.02225227 2.9499971 5.66753263 6.33646834 6.98613752 2.9499971 8.07493646 2.9499971 5.26977677 9.93782546 3.73171564 9.93782546 4.93392263 7.63985359"></polygon>
                            <path d="M8.26380657,2.9499971 C9.79041763,3.79977156 10.3650268,4.79032471 9.98763416,5.92165653 C9.61024149,7.05298835 8.41557844,7.69926054 6.40364502,7.86047309 L8.26380657,2.9499971 Z M8.25829368,4.07190176 L7.14692017,7.12094662 C8.23475108,6.90913169 8.88113933,6.49603559 9.08608493,5.88165831 C9.29103053,5.26728103 9.01510011,4.66402885 8.25829368,4.07190176 L8.25829368,4.07190176 Z" id="形状结合"></path>
                        </g>
                    </g>
                </g>
            </g>
        </g>
    </g>
</svg>