<?xml version="1.0" encoding="UTF-8"?>
<svg width="40px" height="40px" viewBox="0 0 40 40" version="1.1" xmlns="http://www.w3.org/2000/svg" xmlns:xlink="http://www.w3.org/1999/xlink">
    <title>编组 5</title>
    <g id="v1.5.0" stroke="none" stroke-width="1" fill="none" fill-rule="evenodd">
        <g id="开通弹窗备份" transform="translate(-359.000000, -489.000000)">
            <g id="编组-9备份-4" transform="translate(164.000000, 379.000000)">
                <g id="编组-5" transform="translate(195.000000, 110.000000)">
                    <circle id="椭圆形" fill="#FF5650" cx="20" cy="20" r="20"></circle>
                    <path d="M13.9166627,10.6276652 L19.9996554,16.7106554 L26.0833373,10.6276652 C26.9201751,9.79082742 28.2521979,9.750978 29.1361962,10.5081169 L29.2653178,10.6276652 L29.3723348,10.7346822 C30.2510145,11.6133618 30.2510145,13.0379831 29.3723348,13.9166627 L29.3723348,13.9166627 L23.2886554,19.9996554 L29.3723348,26.0833373 C30.2510145,26.9620169 30.2510145,28.3866382 29.3723348,29.2653178 L29.2653178,29.3723348 C28.3866382,30.2510145 26.9620169,30.2510145 26.0833373,29.3723348 L19.9996554,23.2886554 L13.9166627,29.3723348 C13.0798249,30.2091726 11.7478021,30.249022 10.8638038,29.4918831 L10.7346822,29.3723348 L10.6276652,29.2653178 C9.74898553,28.3866382 9.74898553,26.9620169 10.6276652,26.0833373 L10.6276652,26.0833373 L16.7106554,19.9996554 L10.6276652,13.9166627 C9.74898553,13.0379831 9.74898553,11.6133618 10.6276652,10.7346822 L10.7346822,10.6276652 C11.6133618,9.74898553 13.0379831,9.74898553 13.9166627,10.6276652 Z" id="形状结合" fill="#FFFFFF"></path>
                </g>
            </g>
        </g>
    </g>
</svg>