<?xml version="1.0" encoding="UTF-8"?>
<svg width="106px" height="92px" viewBox="0 0 106 92" version="1.1" xmlns="http://www.w3.org/2000/svg" xmlns:xlink="http://www.w3.org/1999/xlink">
    <title>缺省页_暂无网络</title>
    <g id="steam账号管理" stroke="none" stroke-width="1" fill="none" fill-rule="evenodd">
        <g id="缺省页" transform="translate(-183.000000, -425.000000)" fill-rule="nonzero">
            <g id="缺省页_暂无网络" transform="translate(183.000000, 425.000000)">
                <path d="M13.4600939,70.9023941 C13.4600939,71.7790055 14.1314554,72.4493554 15.0093897,72.4493554 C15.8873239,72.4493554 16.5586854,71.7790055 16.5586854,70.9023941 C16.5586854,70.0257827 15.8873239,69.3554328 15.0093897,69.3554328 C14.1830986,69.3554328 13.4600939,70.0773481 13.4600939,70.9023941 Z M95.1596244,72.3977901 C93.1971831,72.9134438 92.7840376,73.3259669 92.3192488,75.2338858 C91.8028169,73.2744015 91.3896714,72.8618785 89.4788732,72.3977901 C91.3896714,71.8821363 91.8544601,71.4696133 92.3192488,69.5616943 C92.7840376,71.4696133 93.1971831,71.9337017 95.1596244,72.3977901 Z M98,66.0036832 C95.4694836,66.6740331 94.9530516,67.1896869 94.2816901,69.7163904 C93.6103286,67.1896869 93.0938967,66.6740331 90.5633803,66.0036832 C93.0938967,65.3333333 93.6103286,64.7661142 94.2816901,62.2909761 C94.9014085,64.8176796 95.4694836,65.3333333 98,66.0036832 Z M17.4366197,14.335175 C15.8873239,14.747698 15.5774648,15.0570902 15.1643192,16.6040516 C14.7511737,15.0570902 14.4413146,14.747698 12.8920188,14.335175 C14.4413146,13.9226519 14.7511737,13.6132597 15.1643192,12.0662983 C15.5258216,13.6132597 15.8873239,13.9226519 17.4366197,14.335175 L17.4366197,14.335175 Z M24.0985915,6.39410681 C20.0704225,7.42541436 19.2441315,8.30202578 18.1596244,12.3241252 C17.1267606,8.30202578 16.2488263,7.47697974 12.2206573,6.39410681 C16.2488263,5.36279926 17.0751174,4.48618785 18.1596244,0.464088398 C19.1924883,4.43462247 20.0704225,5.31123389 24.0985915,6.39410681 Z" id="形状" fill="#CCCCCC"></path>
                <polygon id="路径" fill="#CCCCCC" points="74.5023474 4.27992634 74.5023474 4.69244936 77.9107981 7.83793738 90.9765258 1.54696133 79.1502347 9.07550645 79.1502347 12.7882136 81.0610329 10.93186 82.971831 12.7882136 93.0938967 0.41252302 93.0938967 0"></polygon>
                <path d="M40.2629108,63.7348066 C43.5680751,60.3314917 48.2159624,58.2173112 53.3286385,58.2173112 C58.4413146,58.2173112 63.0892019,60.3314917 66.3943662,63.786372 L53.3286385,76.7808471 L40.2629108,63.7348066 Z" id="形状结合" stroke="#979797" stroke-width="2"></path>
                <path d="M32.258216,55.7421731 L24.9765258,48.4714549 C32.2065728,41.0976059 42.2253521,36.5598527 53.3286385,36.5598527 C64.4319249,36.5598527 74.4507042,41.0976059 81.6807512,48.4714549 L74.399061,55.7421731 C69.028169,50.2762431 61.5915493,46.8729282 53.3286385,46.8729282 C45.0657277,46.8729282 37.629108,50.2762431 32.258216,55.7421731 Z" id="形状结合" stroke="#666666" stroke-width="3"></path>
                <path d="M17.2816901,40.839779 L10,33.5174954 C21.0516432,22.3278085 36.3896714,15.4180479 53.3286385,15.4180479 C70.2676056,15.4180479 85.6056338,22.3278085 96.657277,33.5174954 L89.3755869,40.7882136 C80.1830986,31.5064457 67.42723,25.7311234 53.3286385,25.7311234 C39.2300469,25.7311234 26.4741784,31.5064457 17.2816901,40.839779 Z" id="形状结合" stroke="#979797" stroke-width="2"></path>
                <path d="M89.8055556,89.0700637 C90.6186414,89.0700637 91.2777778,89.7259523 91.2777778,90.5350318 C91.2777778,91.3441114 90.6186414,92 89.8055556,92 L30.9166667,92 C30.1035808,92 29.4444444,91.3441114 29.4444444,90.5350318 C29.4444444,89.7259523 30.1035808,89.0700637 30.9166667,89.0700637 L89.8055556,89.0700637 Z M25.0277778,89.0700637 C25.8408637,89.0700637 26.5,89.7259523 26.5,90.5350318 C26.5,91.3441114 25.8408637,92 25.0277778,92 L16.1944444,92 C15.3813586,92 14.7222222,91.3441114 14.7222222,90.5350318 C14.7222222,89.7259523 15.3813586,89.0700637 16.1944444,89.0700637 L25.0277778,89.0700637 Z M104.527778,83.2101911 C105.340864,83.2101911 106,83.8660797 106,84.6751592 C106,85.4842388 105.340864,86.1401274 104.527778,86.1401274 L101.583333,86.1401274 C100.770247,86.1401274 100.111111,85.4842388 100.111111,84.6751592 C100.111111,83.8660797 100.770247,83.2101911 101.583333,83.2101911 L104.527778,83.2101911 Z M95.6944444,83.2101911 C96.5075303,83.2101911 97.1666667,83.8660797 97.1666667,84.6751592 C97.1666667,85.4842388 96.5075303,86.1401274 95.6944444,86.1401274 L1.47222222,86.1401274 C0.659136341,86.1401274 0,85.4842388 0,84.6751592 C0,83.8660797 0.659136341,83.2101911 1.47222222,83.2101911 L95.6944444,83.2101911 Z" id="形状结合" fill="#CCCCCC"></path>
            </g>
        </g>
    </g>
</svg>