<?xml version="1.0" standalone="no"?><!DOCTYPE svg PUBLIC "-//W3C//DTD SVG 1.1//EN" "http://www.w3.org/Graphics/SVG/1.1/DTD/svg11.dtd"><svg class="icon" width="200px" height="200.00px" viewBox="0 0 1024 1024" version="1.1" xmlns="http://www.w3.org/2000/svg"><path d="M568.456533 88.2688c13.653333 16.452267 16.5888 39.355733 7.4752 58.709333-9.1136 19.387733-28.603733 31.744-50.0736 31.778134v108.066133h251.426134a27.648 27.648 0 0 1 27.716266 27.648v374.101333c0 15.2576-12.3904 27.648-27.716266 27.648h-142.916267a13.858133 13.858133 0 0 0-13.858133 13.858134v24.234666c0 7.714133 6.212267 13.858133 13.858133 13.858134h38.6048c15.325867 0 27.7504 12.458667 27.7504 27.682133v132.1984c0 15.291733-12.424533 27.682133-27.7504 27.682133H352.256a27.716267 27.716267 0 0 1-27.7504-27.648v-132.232533c0-15.223467 12.458667-27.648 27.7504-27.648h37.922133a13.858133 13.858133 0 0 0 13.892267-13.858133v-24.234667a13.789867 13.789867 0 0 0-13.892267-13.858133H246.715733a27.716267 27.716267 0 0 1-27.716266-27.648V314.4704c0-15.291733 12.356267-27.716267 27.716266-27.716267h251.392V178.7904A55.261867 55.261867 0 0 1 512 69.973333a55.432533 55.432533 0 0 1 56.456533 18.261334z m298.0864 310.033067A105.403733 105.403733 0 0 1 955.733333 502.3744a105.403733 105.403733 0 0 1-89.1904 104.0384 14.097067 14.097067 0 0 1-16.315733-13.755733v-180.5312c0-8.6016 7.7824-15.121067 16.315733-13.824z m-697.7536 3.208533a14.062933 14.062933 0 0 1 4.983467 10.6496v180.5312a13.994667 13.994667 0 0 1-16.315733 13.755733A105.403733 105.403733 0 0 1 68.266667 502.3744a105.403733 105.403733 0 0 1 89.1904-104.0384 14.1312 14.1312 0 0 1 11.332266 3.1744z m477.354667 46.421333c-30.651733 0-55.5008 24.7808-55.5008 55.364267 0 30.549333 24.849067 55.364267 55.5008 55.364267 30.6176 0 55.466667-24.814933 55.466667-55.364267 0-30.583467-24.849067-55.364267-55.466667-55.364267z m-267.0592-0.887466c-30.6176 0-55.466667 24.7808-55.466667 55.364266 0 30.583467 24.849067 55.364267 55.466667 55.364267 30.651733 0 55.466667-24.7808 55.466667-55.364267 0-30.583467-24.814933-55.364267-55.466667-55.364266z" /></svg>