<?xml version="1.0" encoding="UTF-8"?>
<svg width="20px" height="20px" viewBox="0 0 20 20" version="1.1" xmlns="http://www.w3.org/2000/svg" xmlns:xlink="http://www.w3.org/1999/xlink">
    <title>切片</title>
    <g id="V1.3.0" stroke="none" stroke-width="1" fill="none" fill-rule="evenodd">
        <g id="出售-下架饰品" transform="translate(-371.000000, -578.000000)" fill="#73688E" fill-rule="nonzero">
            <g id="编组-13备份-11" transform="translate(362.000000, 141.000000)">
                <g id="编组-4备份-2" transform="translate(9.000000, 185.000000)">
                    <g id="绝地求生备份-6" transform="translate(0.000000, 252.000000)">
                        <path d="M16,0 C18.209139,0 20,1.790861 20,4 L20,16 C20,18.209139 18.209139,20 16,20 L4,20 C1.790861,20 0,18.209139 0,16 L0,4 C0,1.790861 1.790861,0 4,0 L16,0 Z M16,1.33333333 L4,1.33333333 C2.57186974,1.33333333 1.40594742,2.45597898 1.33659687,3.86690644 L1.33333333,4 L1.33333333,16 C1.33333333,17.4281303 2.45597898,18.5940526 3.86690644,18.6634031 L4,18.6666667 L16,18.6666667 C17.4281303,18.6666667 18.5940526,17.544021 18.6634031,16.1330936 L18.6666667,16 L18.6666667,4 C18.6666667,2.57186974 17.544021,1.40594742 16.1330936,1.33659687 L16,1.33333333 Z" id="矩形"></path>
                        <path d="M12.2502596,7.30385544 C12.2502596,6.67963977 12.753875,6.1737124 13.375238,6.1737124 C13.996601,6.1737124 14.5002164,6.67963977 14.5002164,7.30385544 C14.5002164,7.9280711 13.996601,8.43399847 13.375238,8.43399847 C12.753875,8.43399847 12.2502596,7.9280711 12.2502596,7.30385544 Z M15.2314523,5.43911943 C14.206222,4.40918241 12.544254,4.40918241 11.5190237,5.43911943 C11.1020317,5.85802578 10.8549115,6.38278886 10.776913,6.92714109 L10.776913,6.92714109 L8.37808414,10.5793867 C8.05559034,10.5959621 7.73609649,10.6784625 7.44097717,10.826888 L5.59076276,9.37390076 C5.162521,9.03749485 4.54378291,9.11359115 4.20891435,9.54379893 C3.87404579,9.97400671 3.94979433,10.5955854 4.37841109,10.9319913 L6.20575093,12.3668962 C6.00700476,13.1530991 6.21362578,14.0214256 6.825989,14.6366002 C7.75072121,15.5655777 9.24994236,15.5655777 10.1742996,14.6366002 C10.7424137,14.0658779 10.9610344,13.2777915 10.8312869,12.5390547 L13.7498558,9.91410913 C14.2917204,9.83612926 14.8140853,9.58749779 15.2310773,9.16859144 C16.2563076,8.13865442 16.2563076,6.46905645 15.2310773,5.43949614 L15.2314523,5.43911943 Z M8.50033179,14.5401613 C7.62847356,14.5401613 6.92198715,13.8304315 6.92198715,12.9545706 C6.92198715,12.9462829 6.92236215,12.9379952 6.92273714,12.9297075 L7.70684705,13.5452587 C7.88684359,13.6865266 8.10021448,13.7550886 8.3124604,13.7550886 C8.60495477,13.7550886 8.8944492,13.6247454 9.08869547,13.3749838 C9.42356402,12.944776 9.34781548,12.3231974 8.91957372,11.9867915 L8.17558803,11.4025075 C8.28058601,11.3802814 8.38933392,11.3686032 8.50108177,11.3686032 C9.37294,11.3686032 10.0794264,12.078333 10.0794264,12.9541939 C10.0794264,13.8300547 9.37256501,14.5397846 8.50108177,14.5397846 L8.50033179,14.5401613 Z M13.375238,9.18742716 C12.3398829,9.18742716 11.5002741,8.34396374 11.5002741,7.30385544 C11.5002741,6.26374713 12.3398829,5.42028371 13.375238,5.42028371 C14.4105931,5.42028371 15.2502019,6.26374713 15.2502019,7.30385544 C15.2502019,8.34396374 14.4105931,9.18742716 13.375238,9.18742716 Z" id="形状"></path>
                    </g>
                </g>
            </g>
        </g>
    </g>
</svg>