<?xml version="1.0" encoding="UTF-8"?>
<svg width="20px" height="20px" viewBox="0 0 20 20" version="1.1" xmlns="http://www.w3.org/2000/svg" xmlns:xlink="http://www.w3.org/1999/xlink">
    <title>3d检视备份</title>
    <g id="1.0.1" stroke="none" stroke-width="1" fill="none" fill-rule="evenodd" opacity="0.5">
        <g id="正在读取该饰品检视图，请稍后打开查看" transform="translate(-554, -226)" fill="#1F0B3D" fill-rule="nonzero">
            <g id="3d检视备份" transform="translate(554, 226)">
                <path d="M16.6666667,0 C18.5076158,0 20,1.49238417 20,3.33333333 L20,16.6666667 C20,18.5076158 18.5076158,20 16.6666667,20 L3.33333333,20 C1.49238417,20 0,18.5076158 0,16.6666667 L0,3.33333333 C0,1.49238417 1.49238417,0 3.33333333,0 L16.6666667,0 Z M16.6777655,1.33333333 L3.33333333,1.33333333 L3.15673194,1.34102644 C2.91381643,1.36232383 2.68330329,1.42736961 2.47281831,1.53028164 L4.55228475,3.60947571 C4.81263428,3.86982524 4.81263428,4.29193522 4.55228475,4.55228475 C4.29193522,4.81263428 3.86982524,4.81263428 3.60947571,4.55228475 L1.54361294,2.48622086 C1.42708401,2.73441412 1.35308172,3.0155484 1.33333333,3.32223452 L1.33333333,16.6666667 L1.34102644,16.8432681 C1.36232383,17.0861836 1.42736961,17.3166967 1.53028164,17.5271817 L3.60947571,15.4477153 C3.86982524,15.1873657 4.29193522,15.1873657 4.55228475,15.4477153 C4.81263428,15.7080648 4.81263428,16.1301748 4.55228475,16.3905243 L2.48622086,18.4563871 C2.73441412,18.572916 3.0155484,18.6469183 3.32223452,18.6666667 L16.6666667,18.6666667 L16.8432681,18.6589736 C17.0861836,18.6376762 17.3166967,18.5726304 17.5271817,18.4697184 L15.4477153,16.3905243 C15.1873657,16.1301748 15.1873657,15.7080648 15.4477153,15.4477153 C15.7080648,15.1873657 16.1301748,15.1873657 16.3905243,15.4477153 L18.4563871,17.5137791 C18.572916,17.2655859 18.6469183,16.9844516 18.6666667,16.6777655 L18.6666667,3.33333333 L18.6589736,3.15673194 C18.6376762,2.91381643 18.5726304,2.68330329 18.4697184,2.47281831 L16.3905243,4.55228475 C16.1301748,4.81263428 15.7080648,4.81263428 15.4477153,4.55228475 C15.1873657,4.29193522 15.1873657,3.86982524 15.4477153,3.60947571 L17.5137791,1.54361294 C17.2655859,1.42708401 16.9844516,1.35308172 16.6777655,1.33333333 Z M6.17717326,6 C7.07814414,6 7.7907655,6.20063492 8.31503734,6.60190476 C8.83930919,7.0031746 9.10144511,7.55597884 9.10144511,8.26031746 C9.10144511,8.65312169 9.02571695,9.00783069 8.87426064,9.32444444 C8.72280433,9.6410582 8.50338686,9.93820106 8.21600822,10.215873 C7.92862958,10.493545 7.4684354,10.8270899 6.83542569,11.2165079 C6.22571695,11.5957672 5.81600822,11.8886772 5.60629948,12.0952381 C5.39659074,12.3017989 5.29173637,12.4812698 5.29173637,12.6336508 L9.11892084,12.6336508 L9.11892084,14 L3.46972656,13.9995296 L3.46972656,13.4154026 C3.46972656,13.0056671 3.55613433,12.6314872 3.72894986,12.2928629 C3.9017654,11.9542386 4.00323625,11.6389418 4.30614887,11.3460317 C4.60906149,11.0531217 4.86455191,10.7102646 5.50144511,10.3174603 C6.08396938,9.93820106 7.23118213,9.48529101 7.46419184,9.19238095 C7.69720155,8.8994709 7.81370641,8.58878307 7.81370641,8.26031746 C7.81370641,7.55259259 7.06261016,7.33581543 6.17717326,7.33581543 C5.40047424,7.33581543 4.8038737,8.13631185 4.8038737,8.64298503 L3.46972656,8.64298503 C3.46972656,8.26031746 3.73273679,7.3700713 4.30614887,6.8371582 C4.87956095,6.30424511 5.6533902,6 6.17717326,6 Z M12.8133794,6.07544247 C14.0393062,6.07501174 14.9870205,6.44015519 15.6394542,7.19070384 C16.235136,7.87184506 16.5295632,8.83406484 16.5295632,10.0377018 C16.5295632,11.2253879 16.2120939,12.1910565 15.5745949,12.8915973 C14.9268549,13.6003291 14.0201044,13.9684902 12.8846394,13.9978052 L12.7352922,13.9995296 L9.87934796,13.9995296 L9.87934796,6.07544247 L12.8133794,6.07544247 Z M12.5776112,7.40571429 L11.2096023,7.40571429 L11.2096023,12.6657143 L12.4724975,12.6657143 C13.4251542,12.6657143 14.1109445,12.4408955 14.5482379,12.0168703 C14.9707338,11.5885763 15.196269,10.9288234 15.196269,10.0361886 C15.196269,9.1046611 14.9880826,8.44206234 14.6033461,8.04080357 C14.2206506,7.64476209 13.6154814,7.43037797 12.735792,7.4080858 L12.5776112,7.40571429 Z" id="形状结合"></path>
            </g>
        </g>
    </g>
</svg>