<?xml version="1.0" encoding="UTF-8"?>
<svg width="33px" height="33px" viewBox="0 0 33 33" version="1.1" xmlns="http://www.w3.org/2000/svg" xmlns:xlink="http://www.w3.org/1999/xlink">
    <title>编组 13</title>
    <g id="1.0.1" stroke="none" stroke-width="1" fill="none" fill-rule="evenodd">
        <g id="云端数据冲突" transform="translate(-455, -306)">
            <g id="编组-9备份" transform="translate(425, 173)">
                <g id="编组-11" transform="translate(20, 78)">
                    <g id="编组-12" transform="translate(0, 38)">
                        <g id="编组-13" transform="translate(10, 17)">
                            <rect id="矩形" x="0" y="0" width="33" height="33"></rect>
                            <path d="M29.4139624,20.1081339 C27.8895541,20.0984665 26.5842996,21.0329791 26.0460835,22.3606315 C25.9655123,22.5572015 25.7785869,22.6860997 25.5658788,22.6860997 L24.7504976,22.6860997 C23.6128313,22.6860997 22.6878732,21.7612545 22.6878732,20.623727 L22.6878732,18.5935789 C26.3877057,18.2874454 29.3011627,15.1165474 29.3011627,11.2495986 C29.3011627,7.32786801 26.1395462,4.13119032 22.1561028,3.90239584 C20.9797624,1.59189392 18.5368416,0 15.700733,0 C11.9009922,0 8.79738702,2.85509721 8.52666756,6.4739168 C5.73245608,7.24730657 3.69883734,9.61259026 3.69883734,12.4129057 C3.69883734,15.7159245 6.52850017,18.4292336 10.0994187,18.6193586 L10.3121268,18.6193586 L10.3121268,20.623727 C10.3121268,21.7612545 9.38716867,22.6860997 8.24950241,22.6860997 L7.4341212,22.6860997 C7.22141304,22.6860997 7.03448771,22.5572015 6.95391647,22.3606315 C6.41570043,21.0329791 5.10722305,20.0984665 3.58603756,20.1081339 C1.56208739,20.1210237 -0.0686750209,21.8192587 0.0022276854,23.8429619 C0.0666846794,25.7764363 1.65555005,27.3264383 3.60859752,27.3264383 C5.12656016,27.3264383 6.42214611,26.3919257 6.95713932,25.0674957 C7.03448774,24.8741483 7.22463593,24.7484724 7.4341212,24.7484724 L8.24950241,24.7484724 C10.5280578,24.7484724 12.3747512,22.9020044 12.3747512,20.623727 L12.3747512,18.8771551 C12.3747512,18.735367 12.4907738,18.6193586 12.6325793,18.6193586 L15.2108598,18.6193586 C15.3526652,18.6193586 15.4686878,18.735367 15.4686878,18.8771551 L15.4686878,25.5669766 C15.4686878,25.7796588 15.3397738,25.9665613 15.1431799,26.0471228 C13.8153654,26.5852731 12.8807387,27.8935908 12.8904073,29.4145907 C12.9032987,31.4382939 14.601741,33.0656349 16.6256912,32.9979633 C18.5626244,32.9335141 20.1095927,31.3416202 20.1095927,29.3920335 C20.1095927,27.8742561 19.174966,26.5788282 17.8503744,26.0439003 C17.6570034,25.9665613 17.5313122,25.7764363 17.5313122,25.5669766 L17.5313122,18.8771551 C17.5313122,18.735367 17.6473348,18.6193586 17.7891402,18.6193586 L20.3674207,18.6193586 C20.5092261,18.6193586 20.6252488,18.735367 20.6252488,18.8771551 L20.6252488,20.623727 C20.6252488,22.9020044 22.4719422,24.7484724 24.7504976,24.7484724 L25.5658788,24.7484724 C25.7753641,24.7484724 25.9655123,24.8741483 26.0428607,25.0674957 C26.5778539,26.3919257 27.8734398,27.3264383 29.3914025,27.3264383 C31.3444499,27.3264383 32.9333153,25.7764363 32.9977723,23.8429619 C33.068675,21.8192587 31.4379126,20.1210237 29.4139624,20.1081339 Z M3.60859752,25.2640656 C2.7545421,25.2640656 2.06162922,24.5712373 2.06162922,23.7172861 C2.06162922,22.8633349 2.7545421,22.1705066 3.60859752,22.1705066 C4.46265295,22.1705066 5.15556583,22.8633349 5.15556583,23.7172861 C5.15556583,24.5712373 4.46265295,25.2640656 3.60859752,25.2640656 Z M18.0469683,29.388811 C18.0469683,30.2427622 17.3540554,30.9355906 16.5,30.9355906 C15.6459446,30.9355906 14.9530317,30.2427622 14.9530317,29.388811 C14.9530317,28.5348598 15.6459446,27.8420315 16.5,27.8420315 C17.3540554,27.8420315 18.0469683,28.5348598 18.0469683,29.388811 Z M10.15743,16.5569859 C8.94241529,16.4828693 7.82086326,15.9995008 6.99259068,15.2003313 C6.19654656,14.4333865 5.76146172,13.444092 5.76146172,12.4129057 C5.76146172,11.5396197 6.0708554,10.7050033 6.65419136,9.9960627 C7.25041872,9.27100981 8.11091983,8.72641451 9.07455217,8.46217301 L10.4732694,8.07547811 L10.5796234,6.62859476 C10.6698632,5.4008385 11.2370849,4.26008861 12.1717116,3.40935989 C13.1321211,2.5392964 14.3825871,2.0623727 15.700733,2.0623727 C16.6869253,2.0623727 17.644112,2.32983666 18.4659389,2.83898493 C19.261983,3.32879845 19.9001074,4.01840431 20.3158551,4.83690849 L20.8540712,5.89065205 L22.0368574,5.95832364 C23.4549116,6.03888508 24.7730575,6.63503969 25.7495813,7.63077901 C26.7099908,8.61362851 27.2417611,9.89938897 27.2417611,11.2495986 C27.2417611,14.1755899 24.9374229,16.5569859 22.1045372,16.5569859 L10.15743,16.5569859 Z M29.3914025,25.2640656 C28.537347,25.2640656 27.8444342,24.5712373 27.8444342,23.7172861 C27.8444342,22.8633349 28.537347,22.1705066 29.3914025,22.1705066 C30.2454579,22.1705066 30.9383708,22.8633349 30.9383708,23.7172861 C30.9383708,24.5712373 30.2454579,25.2640656 29.3914025,25.2640656 Z" id="形状" fill="#6F55AE" fill-rule="nonzero"></path>
                        </g>
                    </g>
                </g>
            </g>
        </g>
    </g>
</svg>