<?xml version="1.0" standalone="no"?><!DOCTYPE svg PUBLIC "-//W3C//DTD SVG 1.1//EN" "http://www.w3.org/Graphics/SVG/1.1/DTD/svg11.dtd"><svg class="icon" width="200px" height="200.00px" viewBox="0 0 1024 1024" version="1.1" xmlns="http://www.w3.org/2000/svg"><path d="M746.67812 32.536167A122.301019 122.301019 0 0 1 908.786169 29.016253l8.959781 8.447794 72.126242 74.814176c43.838931 45.502891 45.246897 116.157169 5.183874 163.260021l-9.791762 10.303749-624.240784 582.385804a40.767006 40.767006 0 0 1-60.478526-53.886687l4.863882-5.439867 624.240784-582.385804a40.831005 40.831005 0 0 0 6.14385-52.158729l-4.607887-5.75986-72.126242-74.878174a40.767006 40.767006 0 0 0-51.262751-6.015854l-5.759859 4.479891-720.622435 667.375733v183.035538l900.970039 0.127997c19.967513 0 36.607108 14.399649 40.063023 33.279189l0.639984 7.359821a40.639009 40.639009 0 0 1-33.407185 39.999025l-7.295822 0.639984H40.711328a40.703008 40.703008 0 0 1-40.063024-33.279189L0.00832 983.296992V741.766879c0-9.02378 3.007927-17.727568 8.447794-24.831394l4.543889-4.92788L746.67812 32.536167z" /></svg>