<?xml version="1.0" encoding="UTF-8"?>
<svg width="20px" height="20px" viewBox="0 0 20 20" version="1.1" xmlns="http://www.w3.org/2000/svg" xmlns:xlink="http://www.w3.org/1999/xlink">
    <title>刷新</title>
    <g id="steam账号管理" stroke="none" stroke-width="1" fill="none" fill-rule="evenodd">
        <g id="icon" transform="translate(-155.000000, -79.000000)">
            <g id="刷新" transform="translate(155.000000, 79.000000)">
                <rect id="矩形" x="0" y="0" width="20" height="20"></rect>
                <path d="M18.6596355,9.28384615 C19.0574818,9.28384615 19.38,9.60671773 19.38,10.005 C19.38,15.1826695 15.1872639,19.38 10.0152618,19.38 C6.71681148,19.38 3.74633817,17.6571421 2.06990635,14.9713972 L2.07072895,17.1919134 C2.07072895,17.5843443 1.75260086,17.9024724 1.36016999,17.9024724 L1.34055896,17.9024724 C0.948128083,17.9024724 0.63,17.5843443 0.63,17.1919134 L0.63,12.8438006 C0.63,12.4840723 0.897315959,12.186779 1.24414032,12.1397282 L1.34055896,12.1332416 L5.68235683,12.1332416 C6.0747877,12.1332416 6.39291579,12.4513697 6.39291579,12.8438006 L6.39291579,12.8649903 C6.39291579,13.2574212 6.0747877,13.5755493 5.68235683,13.5755493 L2.93719235,13.5766105 C4.2616817,16.20642 6.97378486,17.9376923 10.0152618,17.9376923 C14.3915713,17.9376923 17.9392711,14.386105 17.9392711,10.005 C17.9392711,9.60671773 18.2617892,9.28384615 18.6596355,9.28384615 Z M9.99473816,0.63 C13.2931885,0.63 16.2636618,2.35285789 17.9400936,5.03860276 L17.9392711,2.81808658 C17.9392711,2.4256557 18.2573991,2.10752762 18.64983,2.10752762 L18.669441,2.10752762 C19.0618719,2.10752762 19.38,2.4256557 19.38,2.81808658 L19.38,7.16619943 C19.38,7.52592773 19.112684,7.82322105 18.7658597,7.87027182 L18.669441,7.87675839 L14.3276432,7.87675839 C13.9352123,7.87675839 13.6170842,7.5586303 13.6170842,7.16619943 L13.6170842,7.14500966 C13.6170842,6.75257878 13.9352123,6.4344507 14.3276432,6.4344507 L17.0728076,6.43338948 C15.7483183,3.80357999 13.0362151,2.07230769 9.99473816,2.07230769 C5.61842871,2.07230769 2.07072895,5.62389501 2.07072895,10.005 C2.07072895,10.4032823 1.74821079,10.7261538 1.35036447,10.7261538 C0.95251816,10.7261538 0.63,10.4032823 0.63,10.005 C0.63,4.82733047 4.82273609,0.63 9.99473816,0.63 Z" id="形状结合" fill="#29104E" fill-rule="nonzero"></path>
            </g>
        </g>
    </g>
</svg>