<?xml version="1.0" standalone="no"?><!DOCTYPE svg PUBLIC "-//W3C//DTD SVG 1.1//EN" "http://www.w3.org/Graphics/SVG/1.1/DTD/svg11.dtd"><svg class="icon" width="200px" height="200.00px" viewBox="0 0 1024 1024" version="1.1" xmlns="http://www.w3.org/2000/svg"><path d="M316.996267 131.652267c-0.887467 4.778667-1.399467 9.659733-1.4336 14.574933 0 36.864 26.248533 73.216 59.050666 73.216h269.0048c31.163733 0 57.344-36.317867 57.344-73.216a79.872 79.872 0 0 0-1.399466-14.574933h56.5248C821.930667 131.652267 853.333333 172.919467 853.333333 232.413867v589.482666c0 71.68-33.5872 99.703467-102.638933 99.703467H264.772267C195.720533 921.6 170.666667 885.828267 170.666667 821.896533V232.413867c0-59.4944 17.5104-100.7616 88.746666-100.7616z m160.768 560.64c-21.9136 0-36.2496 8.8064-51.029334 24.712533l17.373867 17.6128c8.021333-9.0112 17.8176-16.725333 29.525333-16.725333 15.223467 0 24.132267 9.898667 24.132267 26.453333 0 25.122133-25.873067 55.808-69.5296 95.505067v18.7392h107.758933v-27.3408h-34.986666c-7.3728 0-18.0224 0.853333-26.043734 1.7408 29.320533-29.115733 53.418667-60.859733 53.418667-90.4192 0-30.446933-20.206933-50.2784-50.619733-50.2784z m160.9728 3.072h-38.229334l-59.972266 98.816v22.050133h68.437333v42.325333h29.764267v-42.325333h19.114666v-24.6784h-19.114666v-96.187733z m66.218666 0h-32.119466v163.2256h32.1536v-70.587734h60.791466v70.587734h31.9488v-163.2256h-31.9488v64.170666h-60.791466v-64.170666z m-94.685866 29.115733c-0.443733 9.489067-1.297067 24.2688-1.297067 33.757867v33.314133h-37.376l24.9856-40.618667c4.573867-8.8064 8.9088-17.851733 12.834133-26.453333h0.853334z m-164.590934-126.634667h-162.474666c-14.062933 0-25.941333 12.288-25.941334 26.589867 0 14.336 14.0288 31.9488 28.0576 31.9488h163.601067c13.994667 0 23.722667-17.578667 23.722667-31.9488-1.092267-15.428267-12.970667-26.555733-26.965334-26.555733z m285.866667-130.286933H289.792c-13.994667 0-25.873067 14.370133-25.873067 28.740267s8.9088 29.7984 22.971734 29.7984h442.845866c13.994667 0 28.7744-15.428267 28.7744-29.7984-1.024-15.428267-12.9024-28.740267-26.965333-28.740267z m0-128.785067H289.792c-13.994667 0-25.873067 14.336-25.873067 28.740267 0 14.336 8.9088 29.764267 22.971734 29.764267h442.845866c13.994667 0 28.7744-15.394133 28.7744-29.764267-1.024-15.428267-12.9024-28.740267-26.965333-28.740267zM596.1728 102.4c21.6064 0 38.843733 19.592533 38.843733 43.8272 0 24.2688-17.271467 43.9296-37.751466 43.9296h-176.913067c-21.538133 0-38.8096-19.6608-38.8096-43.9296 0-24.234667 17.237333-43.8272 38.8096-43.8272z" /></svg>