<?xml version="1.0" encoding="UTF-8"?>
<svg width="106px" height="90px" viewBox="0 0 106 90" version="1.1" xmlns="http://www.w3.org/2000/svg" xmlns:xlink="http://www.w3.org/1999/xlink">
    <title>编组 3</title>
    <g id="steam账号管理" stroke="none" stroke-width="1" fill="none" fill-rule="evenodd">
        <g id="缺省页" transform="translate(-990.000000, -427.000000)">
            <g id="编组-3" transform="translate(990.000000, 427.000000)">
                <g id="编组-2备份" transform="translate(0.000000, 3.100000)" fill="#CCCCCC" fill-rule="nonzero">
                    <g id="缺省页_暂无记录备份">
                        <path d="M95.0976205,67.9331361 C95.0976205,68.747929 95.7162904,69.3710059 96.5253203,69.3710059 C97.3343502,69.3710059 97.9530201,68.747929 97.9530201,67.9331361 C97.9530201,67.1183432 97.3343502,66.4952663 96.5253203,66.4952663 C95.7162904,66.4952663 95.0976205,67.1662722 95.0976205,67.9331361 Z M104,72.1159763 C102.19158,72.5952663 101.81086,72.9786982 101.38255,74.752071 C100.90665,72.9307692 100.52593,72.5473373 98.7651007,72.1159763 C100.52593,71.6366864 100.95424,71.2532544 101.38255,69.4798817 C101.81086,71.2532544 102.19158,71.6846154 104,72.1159763 Z M10.8529591,3.45088757 C8.52104942,4.0739645 8.04514948,4.55325444 7.42647956,6.90177515 C6.80780964,4.55325444 6.3319097,4.0739645 4,3.45088757 C6.3319097,2.82781065 6.80780964,2.30059172 7.42647956,0 C7.99755949,2.34852071 8.52104942,2.82781065 10.8529591,3.45088757 Z M19.3343502,73.3550296 C17.9066504,72.9715976 17.6211104,72.6840237 17.2403905,71.2461538 C16.8596705,72.6840237 16.5741306,72.9715976 15.1464308,73.3550296 C16.5741306,73.7384615 16.8596705,74.0260355 17.2403905,75.4639053 C17.5735204,74.0260355 17.9066504,73.7384615 19.3343502,73.3550296 Z M11.3349603,69.4118343 C7.62294082,68.4532544 6.86150092,67.6384615 5.86211104,63.9 C4.91031117,67.6384615 4.10128127,68.4053254 0.389261745,69.4118343 C4.10128127,70.3704142 4.86272117,71.1852071 5.86211104,74.9236686 C6.81391092,71.2331361 7.62294082,70.4183432 11.3349603,69.4118343 Z" id="形状"></path>
                        <path d="M89.8055556,83.9700637 C90.6186414,83.9700637 91.2777778,84.6259523 91.2777778,85.4350318 C91.2777778,86.2441114 90.6186414,86.9 89.8055556,86.9 L30.9166667,86.9 C30.1035808,86.9 29.4444444,86.2441114 29.4444444,85.4350318 C29.4444444,84.6259523 30.1035808,83.9700637 30.9166667,83.9700637 L89.8055556,83.9700637 Z M25.0277778,83.9700637 C25.8408637,83.9700637 26.5,84.6259523 26.5,85.4350318 C26.5,86.2441114 25.8408637,86.9 25.0277778,86.9 L16.1944444,86.9 C15.3813586,86.9 14.7222222,86.2441114 14.7222222,85.4350318 C14.7222222,84.6259523 15.3813586,83.9700637 16.1944444,83.9700637 L25.0277778,83.9700637 Z M104.527778,78.1101911 C105.340864,78.1101911 106,78.7660797 106,79.5751592 C106,80.3842388 105.340864,81.0401274 104.527778,81.0401274 L101.583333,81.0401274 C100.770247,81.0401274 100.111111,80.3842388 100.111111,79.5751592 C100.111111,78.7660797 100.770247,78.1101911 101.583333,78.1101911 L104.527778,78.1101911 Z M95.6944444,78.1101911 C96.5075303,78.1101911 97.1666667,78.7660797 97.1666667,79.5751592 C97.1666667,80.3842388 96.5075303,81.0401274 95.6944444,81.0401274 L1.47222222,81.0401274 C0.659136341,81.0401274 0,80.3842388 0,79.5751592 C0,78.7660797 0.659136341,78.1101911 1.47222222,78.1101911 L95.6944444,78.1101911 Z" id="形状结合"></path>
                    </g>
                </g>
                <path d="M61.66778,15.0654272 L86.3773759,58.0130581 C89.1315879,62.8001408 87.4836205,68.913568 82.6965378,71.66778 C81.1794545,72.5406225 79.4598518,73 77.7095959,73 L28.2904041,73 C22.7675566,73 18.2904041,68.5228475 18.2904041,63 C18.2904041,61.2497441 18.7497816,59.5301414 19.6226241,58.0130581 L44.33222,15.0654272 C47.086432,10.2783444 53.1998592,8.6303771 57.9869419,11.3845891 C59.5173161,12.2650783 60.7872908,13.535053 61.66778,15.0654272 Z" id="三角形" stroke="#666666" stroke-width="3"></path>
                <path d="M51.6986272,15.2246958 C52.9341365,14.8916455 54.2967003,15.0299261 55.493471,15.7184791 C56.0984975,16.0665765 56.6221252,16.5364248 57.032446,17.0961203 L57.032446,17.0961203 L82.0434859,60.506529 C82.7320389,61.7032997 82.8703194,63.0658635 82.5372691,64.3013728 C82.2042188,65.5368821 81.3998375,66.645337 80.2030668,67.33389 C79.6032943,67.6789646 78.9402151,67.8947927 78.2563084,67.9700233 L78.2563084,67.9700233 L28.2904041,68 C26.9096923,68 25.6596923,67.4403559 24.7548702,66.5355339 C23.8500482,65.6307119 23.2904041,64.3807119 23.2904041,63 C23.2904041,62.308044 23.4340027,61.6256696 23.7098546,60.9953574 L23.7098546,60.9953574 L48.66611,17.5588981 C49.354663,16.3621274 50.4631179,15.5577462 51.6986272,15.2246958 Z" id="三角形" stroke="#979797" stroke-width="2"></path>
                <ellipse id="椭圆形" fill="#D8D8D8" cx="53" cy="39" rx="3" ry="11"></ellipse>
                <circle id="椭圆形" fill="#D8D8D8" cx="53" cy="57" r="3"></circle>
                <circle id="椭圆形" fill="#D8D8D8" cx="72.5" cy="13.5" r="2.5"></circle>
                <circle id="椭圆形" fill="#D8D8D8" cx="82.5" cy="13.5" r="2.5"></circle>
                <circle id="椭圆形" fill="#D8D8D8" cx="92.5" cy="13.5" r="2.5"></circle>
            </g>
        </g>
    </g>
</svg>