<?xml version="1.0" standalone="no"?><!DOCTYPE svg PUBLIC "-//W3C//DTD SVG 1.1//EN" "http://www.w3.org/Graphics/SVG/1.1/DTD/svg11.dtd"><svg class="icon" width="200px" height="200.00px" viewBox="0 0 1024 1024" version="1.1" xmlns="http://www.w3.org/2000/svg"><path d="M580.573867 586.717867c20.241067 0 40.482133 20.5824 40.482133 41.198933v252.450133c0 20.616533-20.241067 41.233067-40.482133 41.233067H453.973333c-20.241067 0-40.482133-20.616533-40.482133-41.233067v-252.450133c0-20.616533 20.241067-41.198933 40.482133-41.198933z m-288.529067-87.586134c25.2928 0 40.482133 15.428267 40.482133 41.198934v340.036266c0 20.616533-20.241067 41.233067-40.482133 41.233067H165.4784c-20.241067 0-40.482133-20.616533-40.482133-41.233067V540.330667c0-20.616533 20.241067-41.198933 40.482133-41.198934z m572.0064-128.8192c25.2928 0 40.482133 20.616533 40.482133 41.233067v468.821333c0 20.616533-20.241067 41.233067-40.482133 41.233067h-126.5664c-20.241067 0-40.482133-20.616533-40.482133-41.233067V411.5456c0-20.616533 20.241067-41.233067 40.482133-41.233067zM894.429867 102.4c5.051733 0 10.103467 10.308267 10.103466 15.4624l-50.619733 180.3264-55.671467-61.815467-288.529066 273.066667c-15.189333 10.274133-30.378667 15.428267-45.568 15.428267-10.1376 0-20.241067-5.12-30.378667-10.308267l-303.7184-164.864c-10.1376-5.12-15.189333-15.4624-5.051733-25.736533 5.051733-10.308267 15.189333-15.4624 25.2928-10.308267l303.7184 164.864c10.1376 5.12 20.241067 5.12 25.326933 0l288.529067-278.2208-55.671467-56.661333z" /></svg>