<?xml version="1.0" encoding="UTF-8"?>
<svg width="40.0041235px" height="40px" viewBox="0 0 40.0041235 40" version="1.1" xmlns="http://www.w3.org/2000/svg" xmlns:xlink="http://www.w3.org/1999/xlink">
    <title>形状结合</title>
    <g id="1.0.1" stroke="none" stroke-width="1" fill="none" fill-rule="evenodd">
        <g id="关闭同步" transform="translate(-709.998, -335)" fill="#6F55AE" fill-rule="nonzero">
            <g id="编组-9备份" transform="translate(425, 244)">
                <g id="编组-11" transform="translate(41, 76)">
                    <g id="编组-8" transform="translate(216, 15)">
                        <path d="M29.50577,14.5937199 C29.692821,14.6403907 29.8457795,14.7535235 29.9457515,14.9016613 L35.8537301,20.8118845 C36.1466233,21.1047777 36.1466233,21.5796515 35.8537301,21.8725447 C35.5608369,22.1654379 35.0859631,22.1654379 34.7930699,21.8725447 L29.7684266,16.8482163 C28.7580855,22.7060291 30.6019436,28.7648945 34.9185245,33.0814755 C42.1432239,40.3061748 53.8567761,40.3061748 61.0814755,33.0814755 C61.3743687,32.7885822 61.8492424,32.7885822 62.1421356,33.0814755 C62.4350288,33.3743687 62.4350288,33.8492424 62.1421356,34.1421356 C54.3316498,41.9526215 41.6683502,41.9526215 33.8578644,34.1421356 C28.8642288,29.1485 26.9315237,21.9959252 28.5659322,15.2640879 C28.5813017,15.0951797 28.6535045,14.9306347 28.7826623,14.8014769 L28.840458,14.7481995 C29.0182534,14.5984058 29.2629598,14.5331367 29.50577,14.5937199 Z M47.9973658,12 C48.2415793,12 48.4585307,12.1167222 48.595476,12.2974224 L53.1222905,16.8250932 C53.4151837,17.1179864 53.4151837,17.5928601 53.1222905,17.8857533 C52.8293973,18.1786466 52.3545235,18.1786466 52.0616303,17.8857533 L48.747,14.571 L48.7473658,27.25 C48.7473658,27.6642136 48.4115794,28 47.9973658,28 C47.5831523,28 47.2473658,27.6642136 47.2473658,27.25 L47.247,14.571 L43.9353301,17.8837702 C43.6424369,18.1766634 43.1675631,18.1766634 42.8746699,17.8837702 C42.5817767,17.590877 42.5817767,17.1160032 42.8746699,16.82311 L47.3992557,12.2974224 C47.5362009,12.1167222 47.7531524,12 47.9973658,12 Z M62.1421356,5.85786438 C67.2913828,11.0071116 69.1799989,18.4473448 67.2775186,25.3396212 C67.1944858,25.6404313 66.9395822,25.8476215 66.6481695,25.8843931 C66.4253424,25.9135436 66.1915108,25.8424572 66.0200463,25.6709927 L60.0096386,19.660585 C59.7167454,19.3676918 59.7167454,18.8928181 60.0096386,18.5999249 C60.3025318,18.3070316 60.7774056,18.3070316 61.0702988,18.5999249 L66.1359983,23.664253 C67.3465384,17.659002 65.5287275,11.3657766 61.0814755,6.91852455 C53.8567761,-0.306174849 42.1432239,-0.306174849 34.9185245,6.91852455 C34.6256313,7.21141777 34.1507576,7.21141777 33.8578644,6.91852455 C33.5649712,6.62563133 33.5649712,6.15075759 33.8578644,5.85786438 C41.6683502,-1.95262146 54.3316498,-1.95262146 62.1421356,5.85786438 Z" id="形状结合"></path>
                    </g>
                </g>
            </g>
        </g>
    </g>
</svg>