<?xml version="1.0" encoding="UTF-8"?>
<svg width="16px" height="16px" viewBox="0 0 16 16" version="1.1" xmlns="http://www.w3.org/2000/svg" xmlns:xlink="http://www.w3.org/1999/xlink">
    <title>关闭</title>
    <g id="steam账号管理" stroke="none" stroke-width="1" fill="none" fill-rule="evenodd" opacity="0.5">
        <g id="账号管理备份" transform="translate(-829.000000, -48.000000)" fill="#352251" fill-rule="nonzero">
            <g id="编组-9" transform="translate(425.000000, 38.000000)">
                <g id="关闭" transform="translate(404.000000, 10.000000)">
                    <path d="M9.64406025,8.02410645 L14.5916691,12.9707511 C14.8867302,13.2663289 15.001689,13.6968672 14.8932416,14.1001865 C14.7847943,14.5035058 14.4694165,14.8183322 14.0659081,14.9260737 C13.6623997,15.0338152 13.2320631,14.9181032 12.9370021,14.6225254 L7.98939316,9.6749165 L3.0089995,14.6553102 C2.54941307,15.1148966 1.80427625,15.1148966 1.34468982,14.6553102 C0.885103393,14.1957238 0.885103393,13.4505869 1.34468982,12.9910005 L6.32604774,8.00964258 L1.37843885,3.06203369 C0.943144997,2.60280714 0.952806762,1.88043204 1.40022701,1.43301179 C1.84764726,0.985591538 2.57002236,0.975929773 3.02924891,1.41122363 L7.9768578,6.35883252 L12.9910005,1.3446898 C13.450587,0.885103392 14.1957238,0.8851034 14.6553102,1.34468982 C15.1148966,1.80427624 15.1148966,2.54941305 14.6553102,3.00899948 L9.64406025,8.02410645 Z" id="路径"></path>
                </g>
            </g>
        </g>
    </g>
</svg>