<?xml version="1.0" encoding="UTF-8"?>
<svg width="16px" height="16px" viewBox="0 0 16 16" version="1.1" xmlns="http://www.w3.org/2000/svg" xmlns:xlink="http://www.w3.org/1999/xlink">
    <title>路径 4</title>
    <g id="steam账号管理" stroke="none" stroke-width="1" fill="none" fill-rule="evenodd">
        <g id="icon" transform="translate(-114.000000, -125.000000)" fill="#29104E" fill-rule="nonzero">
            <path d="M125.666932,125.508454 C126.382131,124.846114 127.472088,124.834456 128.199895,125.452514 L128.34041,125.584515 L129.467149,126.754045 C130.152056,127.464963 130.174118,128.569275 129.548241,129.30542 L129.394753,129.466138 L119.641099,138.566353 C119.384437,138.805821 118.981894,138.792257 118.741994,138.536058 C118.52875,138.308325 118.515793,137.965536 118.695808,137.723987 L118.772345,137.638574 L128.525999,128.538358 C128.75692,128.316766 128.788795,127.97454 128.621993,127.723696 L128.550131,127.634327 L127.423392,126.464798 C127.209665,126.242954 126.872694,126.209393 126.621852,126.370073 L126.532232,126.439444 L115.272251,136.867563 L115.272251,139.728774 L129.349769,139.730044 C129.662056,139.730044 129.921784,139.954668 129.975646,140.250884 L129.985895,140.365022 C129.985895,140.676745 129.760865,140.936005 129.464114,140.98977 L129.349769,141 L114.636125,141 C114.323839,141 114.064111,140.775376 114.010249,140.47916 L114,140.365022 L114,136.590167 C114,136.448837 114.047188,136.312617 114.132492,136.202264 L114.203475,136.124673 L125.666932,125.508454 Z" id="路径-4"></path>
        </g>
    </g>
</svg>