<?xml version="1.0" encoding="UTF-8"?>
<svg width="20px" height="20px" viewBox="0 0 20 20" version="1.1" xmlns="http://www.w3.org/2000/svg" xmlns:xlink="http://www.w3.org/1999/xlink">
    <title>口令兑换</title>
    <defs>
        <filter color-interpolation-filters="auto" id="filter-1">
            <feColorMatrix in="SourceGraphic" type="matrix" values="0 0 0 0 0.000000 0 0 0 0 0.000000 0 0 0 0 0.000000 0 0 0 1.000000 0"></feColorMatrix>
        </filter>
    </defs>
    <g id="v1.5.0" stroke="none" stroke-width="1" fill="none" fill-rule="evenodd">
        <g id="口令兑换" filter="url(#filter-1)">
            <g>
                <path d="M12.424716,0 C15.0735344,0 17.4878036,1.41046491 18.8609845,3.68073625 C19.1372306,4.13745217 19.0011993,4.73802332 18.5571501,5.02214947 C18.113101,5.30627562 17.5291863,5.16636398 17.2529402,4.70964806 C16.2219154,3.00506127 14.4122928,1.9478432 12.424716,1.9478432 C9.28693063,1.9478432 6.743253,4.56408051 6.743253,7.79137278 C6.743253,11.0186651 9.28693063,13.6349024 12.424716,13.6349024 C15.5625014,13.6349024 18.106179,11.0186651 18.106179,7.79137278 C18.106179,7.25349074 18.5301253,6.81745119 19.0530895,6.81745119 C19.5760537,6.81745119 20,7.25349074 20,7.79137278 C20,12.0944292 16.6084298,15.5827456 12.424716,15.5827456 C10.6741192,15.5827456 9.06221474,14.9719946 7.77943893,13.9463613 L2.17116466,19.714745 C1.81162905,20.0845365 1.22039256,20.0928506 0.850601004,19.733315 C0.844324266,19.7272123 0.83813365,19.7210217 0.832030993,19.714745 L0.808136122,19.6901685 C0.448641625,19.3204192 0.448641625,18.7317376 0.808136122,18.3619883 L1.61647734,17.5305888 L1.61647734,17.5305888 L0.253448794,16.1286791 C-0.106045703,15.7589299 -0.106045703,15.1702482 0.253448794,14.800499 L0.277343664,14.7759225 C0.636879282,14.4061309 1.22811577,14.3978169 1.59790732,14.7573525 C1.60418406,14.7634551 1.61037468,14.7696458 1.61647734,14.7759225 L2.955,16.153 L4.45720883,14.608824 L4.45720883,14.608824 L3.09418029,13.2069144 C2.7346858,12.8371651 2.7346858,12.2484834 3.09418029,11.8787342 L3.11807516,11.8541577 C3.47761078,11.4843662 4.06884727,11.4760521 4.43863882,11.8355877 L4.45720883,11.8541577 L4.45720883,11.8541577 L5.796,13.231 L6.44058834,12.5693654 C5.4433062,11.2499642 4.84943201,9.5920002 4.84943201,7.79137278 C4.84943201,3.48831642 8.24100218,0 12.424716,0 Z" id="形状结合" fill="#3D3D3D" fill-rule="nonzero"></path>
            </g>
        </g>
    </g>
</svg>