<?xml version="1.0" encoding="UTF-8"?>
<svg width="16px" height="16px" viewBox="0 0 16 16" version="1.1" xmlns="http://www.w3.org/2000/svg" xmlns:xlink="http://www.w3.org/1999/xlink">
    <title>形状结合</title>
    <g id="V1.3.0" stroke="none" stroke-width="1" fill="none" fill-rule="evenodd">
        <g id="第三方平台出售V4备份" transform="translate(-908.000000, -114.000000)" fill="#9487A6" fill-rule="nonzero">
            <path d="M916,114 C920.418278,114 924,117.581722 924,122 C924,126.418278 920.418278,130 916,130 C911.581722,130 908,126.418278 908,122 C908,117.581722 911.581722,114 916,114 Z M916,115.333333 C912.318102,115.333333 909.333333,118.318102 909.333333,122 C909.333333,125.681898 912.318102,128.666667 916,128.666667 C919.681898,128.666667 922.666667,125.681898 922.666667,122 C922.666667,118.318102 919.681898,115.333333 916,115.333333 Z M915.79,124.939689 C916.042,124.939689 916.258,125.011689 916.426,125.179689 C916.594,125.335689 916.678,125.539689 916.678,125.791689 C916.678,126.043689 916.582,126.247689 916.414,126.415689 C916.246,126.571689 916.03,126.655689 915.79,126.655689 C915.55,126.655689 915.334,126.571689 915.166,126.403689 C914.998,126.235689 914.914,126.031689 914.914,125.791689 C914.914,125.539689 914.998,125.335689 915.166,125.179689 C915.334,125.011689 915.55,124.939689 915.79,124.939689 Z M916.006,117.919689 C916.774,117.919689 917.398,118.123689 917.878,118.555689 C918.358,118.975689 918.598,119.551689 918.598,120.271689 C918.598,120.859689 918.442,121.351689 918.142,121.735689 C918.034,121.867689 917.698,122.179689 917.134,122.671689 C916.906,122.863689 916.738,123.079689 916.63,123.295689 C916.498,123.535689 916.438,123.799689 916.438,124.087689 L916.438,124.087689 L916.438,124.291689 L915.154,124.291689 L915.154,124.087689 C915.154,123.643689 915.226,123.259689 915.394,122.947689 C915.55,122.611689 916.006,122.119689 916.75,121.459689 L916.75,121.459689 L916.954,121.231689 C917.17,120.955689 917.29,120.667689 917.29,120.355689 C917.29,119.935689 917.17,119.611689 916.942,119.371689 C916.702,119.131689 916.354,119.011689 915.922,119.011689 C915.382,119.011689 914.986,119.179689 914.746,119.527689 C914.53,119.815689 914.422,120.223689 914.422,120.751689 L914.422,120.751689 L913.162,120.751689 C913.162,119.875689 913.414,119.191689 913.918,118.687689 C914.422,118.171689 915.118,117.919689 916.006,117.919689 Z" id="形状结合"></path>
        </g>
    </g>
</svg>