<?xml version="1.0" encoding="UTF-8"?>
<svg width="20px" height="20px" viewBox="0 0 20 20" version="1.1" xmlns="http://www.w3.org/2000/svg" xmlns:xlink="http://www.w3.org/1999/xlink">
    <title>时间</title>
    <g id="检视图" stroke="none" stroke-width="1" fill="none" fill-rule="evenodd">
        <g id="偏好设置备份" transform="translate(-355, -193)" fill="#5D3AB3" fill-rule="nonzero">
            <g id="编组-29" transform="translate(335, 178)">
                <g id="编组-26" transform="translate(0, 0)">
                    <g id="编组-25" transform="translate(20, 14)">
                        <g id="时间" transform="translate(0, 1)">
                            <path d="M12.4987344,-6.66133815e-16 C12.8735446,-6.66133815e-16 13.1234181,0.25 13.1234181,0.625 L13.1234181,3 L13.6185377,3.25 C13.9424477,3.41666667 14.2478486,3.58333333 14.497722,3.75 L16.4967096,2.5 C16.746583,2.375 17.1213932,2.375 17.3712666,2.75 L19.870001,7.125 C20.1198745,7.5 19.9949378,7.875 19.6201276,8 L17.62114,9.25 L17.62114,10.75 L19.6201276,12 C19.870001,12.125 19.9949378,12.5 19.870001,12.875 L17.3712666,17.25 C17.2463299,17.5 16.8715197,17.625 16.4967096,17.5 L14.497722,16.25 L14.1951409,16.4550781 C13.8730384,16.671875 13.4982282,16.90625 13.1234181,17 L13.1234181,19.375 C13.1234181,19.75 12.8735446,20 12.4987344,20 L7.50126556,20 C7.12645539,20 6.87658195,19.75 6.87658195,19.375 L6.87658195,17 L6.38146234,16.75 C6.05755232,16.5833333 5.75215145,16.4166667 5.502278,16.25 L3.50329045,17.5 C3.25341701,17.625 2.87860684,17.625 2.62873339,17.25 L0.129998953,12.875 C-0.119874492,12.5 0.00506223045,12.125 0.379872397,12 L2.37885995,10.75 L2.37885995,9.25 L0.379872397,8 C0.00506223045,7.875 -0.119874492,7.5 0.129998953,7.125 L2.62873339,2.75 C2.75367012,2.5 3.12848028,2.375 3.50329045,2.625 L5.502278,3.875 L5.80485913,3.66992188 C6.12696161,3.453125 6.50177178,3.21875 6.87658195,3.125 L6.87658195,0.625 C6.87658195,0.25 7.12645539,-6.66133815e-16 7.50126556,-6.66133815e-16 L12.4987344,-6.66133815e-16 Z M11.7900847,1.33333333 L8.20991528,1.33333333 L8.20991528,4.16590734 L7.20011692,4.41848479 L7.06219383,4.4652273 C6.88034755,4.541879 6.70724497,4.66977219 6.54935416,4.77604345 L5.53158314,5.46587891 L3.38109611,4.12114378 L1.62071733,7.20336695 L3.71219328,8.51120148 L3.71219328,11.4887985 L1.62071733,12.7966331 L3.43370105,15.9709615 L5.58199683,14.6275966 L5.7531236,14.7702007 C5.92262906,14.9094457 6.08686136,15.0372026 6.24213754,15.1407725 C6.45367747,15.2818705 6.71304919,15.4210691 6.98703017,15.5621061 L8.20991528,16.1795757 L8.20991528,18.6666667 L11.7900847,18.6666667 L11.7900847,15.9590927 L12.7998831,15.7065152 L12.9378062,15.6597727 C13.1196525,15.583121 13.292755,15.4552278 13.4506458,15.3489566 L14.4684169,14.6591211 L16.566299,15.9709615 L18.3792827,12.7966331 L16.2878067,11.4887985 L16.2878067,8.51120148 L18.3792827,7.20336695 L16.566299,4.02903852 L14.4180032,5.37240343 L14.2468764,5.22979932 C14.0773709,5.09055427 13.9131386,4.96279738 13.7578625,4.8592275 C13.5463225,4.71812945 13.2869508,4.57893094 13.0129698,4.43789388 L11.7900847,3.82042434 L11.7900847,1.33333333 Z M10,6.25 C12.1239243,6.25 13.7481017,7.875 13.7481017,10 C13.7481017,12.125 12.1239243,13.75 10,13.75 C7.87607572,13.75 6.25189834,12.125 6.25189834,10 C6.25189834,7.875 7.87607572,6.25 10,6.25 Z M10,7.5852381 C9.30570435,7.5852381 8.70305926,7.84250375 8.27359601,8.27231848 C7.84420869,8.70205721 7.58713643,9.30509657 7.58713643,10 C7.58713643,10.6949034 7.84420869,11.2979428 8.27359601,11.7276815 C8.70305926,12.1574963 9.30570435,12.4147619 10,12.4147619 C10.6942957,12.4147619 11.2969407,12.1574963 11.726404,11.7276815 C12.1557913,11.2979428 12.4128636,10.6949034 12.4128636,10 C12.4128636,9.30509657 12.1557913,8.70205721 11.726404,8.27231848 C11.2969407,7.84250375 10.6942957,7.5852381 10,7.5852381 Z" id="形状结合"></path>
                        </g>
                    </g>
                </g>
            </g>
        </g>
    </g>
</svg>