<?xml version="1.0" standalone="no"?><!DOCTYPE svg PUBLIC "-//W3C//DTD SVG 1.1//EN" "http://www.w3.org/Graphics/SVG/1.1/DTD/svg11.dtd"><svg class="icon" width="200px" height="200.00px" viewBox="0 0 1024 1024" version="1.1" xmlns="http://www.w3.org/2000/svg"><path d="M836.266667 307.2a34.133333 34.133333 0 0 1 33.8944 30.139733L870.4 341.333333v443.733334a238.933333 238.933333 0 0 1-230.741333 238.7968L631.466667 1024h-238.933334a238.933333 238.933333 0 0 1-238.7968-230.741333L153.6 785.066667V341.333333a34.133333 34.133333 0 0 1 68.027733-3.9936L221.866667 341.333333v443.733334a170.666667 170.666667 0 0 0 163.259733 170.496L392.533333 955.733333h238.933334a170.666667 170.666667 0 0 0 170.496-163.259733L802.133333 785.066667V341.333333a34.133333 34.133333 0 0 1 34.133334-34.133333z m-409.6 34.133333a34.133333 34.133333 0 0 1 34.133333 34.133334v307.2a34.133333 34.133333 0 0 1-68.266667 0v-307.2a34.133333 34.133333 0 0 1 34.133334-34.133334z m170.666666 0a34.133333 34.133333 0 0 1 34.133334 34.133334v307.2a34.133333 34.133333 0 0 1-68.266667 0v-307.2a34.133333 34.133333 0 0 1 34.133333-34.133334z m7.202134-341.333333c96.085333 0.034133 172.612267 80.9984 177.220266 180.736l0.2048 9.4208V204.8H972.8a34.133333 34.133333 0 0 1 0 68.266667h-921.6a34.133333 34.133333 0 1 1 0-68.266667h190.805333v-14.677333C242.107733 89.2928 315.733333 5.290667 410.555733 0.238933L419.498667 0h185.070933z m0 68.471467h-185.002667c-86.016 0.273067-105.472 61.098667-108.782933 114.346666l-0.238934 7.338667L310.4768 204.8h403.285333v-14.6432c0-54.340267-32.426667-121.412267-103.1168-121.412267l-6.144-0.273066z" fill="#3D3D3D" /></svg>