<?xml version="1.0" encoding="UTF-8"?>
<svg width="20px" height="20px" viewBox="0 0 20 20" version="1.1" xmlns="http://www.w3.org/2000/svg" xmlns:xlink="http://www.w3.org/1999/xlink">
    <title>steam</title>
    <g id="steam账号管理" stroke="none" stroke-width="1" fill="none" fill-rule="evenodd">
        <g id="icon" transform="translate(-66.000000, -79.000000)">
            <g id="steam" transform="translate(66.000000, 79.000000)">
                <rect id="矩形" x="0" y="0" width="20" height="20"></rect>
                <path d="M9.998125,0.625 C15.1775,0.625 19.375,4.825 19.375,10 C19.375,15.175 15.18125,19.375 10.001875,19.375 C4.82250001,19.375 0.625,15.17875 0.625,10 C0.625,4.82125 4.82250001,0.625 9.998125,0.625 Z M9.998125,1.96428571 C5.56145926,1.96428571 1.96428571,5.56162493 1.96428571,10 C1.96428571,14.438872 5.56195619,18.0357143 10.001875,18.0357143 C14.4395353,18.0357143 18.0357143,14.4373816 18.0357143,10 C18.0357143,5.56349991 14.4366658,1.96428571 9.998125,1.96428571 Z M12.9534167,5.33319418 C13.5631163,5.33319418 14.1476349,5.57637379 14.5774167,6.00883333 C15.4745951,6.91177966 15.4745951,8.36963699 14.5774167,9.27258333 C14.2278207,9.62520017 13.772752,9.85416814 13.28125,9.92475 L10.7274167,12.2219167 C10.8461436,12.8908129 10.6315195,13.5756075 10.15225,14.0570833 C9.76462151,14.4471521 9.23741769,14.6664967 8.6875,14.6664967 C8.13758231,14.6664967 7.61037849,14.4471521 7.22275,14.0570833 C6.70509646,13.536534 6.49908071,12.7822506 6.68025,12.0708333 L5.08133333,10.8155 C4.70633225,10.520383 4.63988923,9.97789523 4.93258333,9.601 C5.07275847,9.42026757 5.27924648,9.30292849 5.50625639,9.27500397 C5.73326631,9.24707945 5.96203601,9.31087743 6.14183333,9.45225 L7.76058333,10.7239167 C8.01594613,10.5954381 8.2952624,10.5215365 8.58075,10.5069167 L10.6795833,7.31141667 L10.7046667,7.16908333 C10.7952756,6.7299654 11.0122211,6.32689298 11.3288333,6.00941667 L11.3294167,6.00883333 C11.7591984,5.57637379 12.3437171,5.33319418 12.9534167,5.33319418 Z M8.68866667,11.1975833 C8.59066667,11.1975833 8.49558334,11.2075 8.40341667,11.22675 L9.05441667,11.7383333 C9.4295,12.0329167 9.49541667,12.5765833 9.20258333,12.9528333 C9.0625883,13.1337885 8.85612616,13.2513444 8.62906422,13.2793848 C8.40200228,13.3074253 8.17314441,13.2436282 7.99333333,13.1021667 L7.30733333,12.56375 L7.30674685,12.5853333 C7.3051372,13.3496069 7.92322714,13.9705693 8.6875,13.9725 C9.05488206,13.9718818 9.40696286,13.8253067 9.66624879,13.5650362 C9.92553472,13.3047656 10.0707743,12.9521318 10.0700031,12.58475 C10.0707744,12.2176238 9.92567629,11.8652267 9.66662586,11.6050823 C9.40757544,11.3449379 9.05579285,11.1983561 8.68866667,11.1975833 Z M12.9534167,5.9925 L12.9528333,5.9925 C12.0447801,5.99507399 11.3105643,6.73294519 11.3124962,7.641 C11.3108872,8.5490544 12.0453636,9.28666407 12.9534167,9.28891667 C13.8612417,9.2863427 14.5953633,8.54882723 14.5937538,7.641 C14.5956857,6.73294519 13.8614699,5.99507399 12.9534167,5.9925 Z M12.9528333,6.65166667 C13.4970833,6.65166667 13.9375,7.095 13.9375,7.641 C13.9375,8.187 13.4970833,8.62975 12.9534167,8.62975 C12.6917013,8.62928642 12.4408979,8.52483559 12.2562202,8.33939206 C12.0715426,8.15394852 11.9681305,7.90271505 11.9687472,7.641 C11.9687472,7.09441667 12.40975,6.65225 12.9534167,6.65225 L12.9528333,6.65166667 Z" id="形状结合" fill="#29104E" fill-rule="nonzero"></path>
            </g>
        </g>
    </g>
</svg>