<?xml version="1.0" encoding="UTF-8"?>
<svg width="106px" height="91px" viewBox="0 0 106 91" version="1.1" xmlns="http://www.w3.org/2000/svg" xmlns:xlink="http://www.w3.org/1999/xlink">
    <title>编组 2</title>
    <g id="steam账号管理" stroke="none" stroke-width="1" fill="none" fill-rule="evenodd">
        <g id="缺省页" transform="translate(-721.000000, -426.000000)">
            <g id="编组-2" transform="translate(721.000000, 427.000000)">
                <g id="缺省页_暂无记录备份" transform="translate(0.000000, 3.100000)" fill="#CCCCCC" fill-rule="nonzero">
                    <path d="M95.0976205,67.9331361 C95.0976205,68.747929 95.7162904,69.3710059 96.5253203,69.3710059 C97.3343502,69.3710059 97.9530201,68.747929 97.9530201,67.9331361 C97.9530201,67.1183432 97.3343502,66.4952663 96.5253203,66.4952663 C95.7162904,66.4952663 95.0976205,67.1662722 95.0976205,67.9331361 Z M104,72.1159763 C102.19158,72.5952663 101.81086,72.9786982 101.38255,74.752071 C100.90665,72.9307692 100.52593,72.5473373 98.7651007,72.1159763 C100.52593,71.6366864 100.95424,71.2532544 101.38255,69.4798817 C101.81086,71.2532544 102.19158,71.6846154 104,72.1159763 Z M10.8529591,3.45088757 C8.52104942,4.0739645 8.04514948,4.55325444 7.42647956,6.90177515 C6.80780964,4.55325444 6.3319097,4.0739645 4,3.45088757 C6.3319097,2.82781065 6.80780964,2.30059172 7.42647956,0 C7.99755949,2.34852071 8.52104942,2.82781065 10.8529591,3.45088757 Z M19.3343502,73.3550296 C17.9066504,72.9715976 17.6211104,72.6840237 17.2403905,71.2461538 C16.8596705,72.6840237 16.5741306,72.9715976 15.1464308,73.3550296 C16.5741306,73.7384615 16.8596705,74.0260355 17.2403905,75.4639053 C17.5735204,74.0260355 17.9066504,73.7384615 19.3343502,73.3550296 Z M11.3349603,69.4118343 C7.62294082,68.4532544 6.86150092,67.6384615 5.86211104,63.9 C4.91031117,67.6384615 4.10128127,68.4053254 0.389261745,69.4118343 C4.10128127,70.3704142 4.86272117,71.1852071 5.86211104,74.9236686 C6.81391092,71.2331361 7.62294082,70.4183432 11.3349603,69.4118343 Z" id="形状"></path>
                    <path d="M89.8055556,83.9700637 C90.6186414,83.9700637 91.2777778,84.6259523 91.2777778,85.4350318 C91.2777778,86.2441114 90.6186414,86.9 89.8055556,86.9 L30.9166667,86.9 C30.1035808,86.9 29.4444444,86.2441114 29.4444444,85.4350318 C29.4444444,84.6259523 30.1035808,83.9700637 30.9166667,83.9700637 L89.8055556,83.9700637 Z M25.0277778,83.9700637 C25.8408637,83.9700637 26.5,84.6259523 26.5,85.4350318 C26.5,86.2441114 25.8408637,86.9 25.0277778,86.9 L16.1944444,86.9 C15.3813586,86.9 14.7222222,86.2441114 14.7222222,85.4350318 C14.7222222,84.6259523 15.3813586,83.9700637 16.1944444,83.9700637 L25.0277778,83.9700637 Z M104.527778,78.1101911 C105.340864,78.1101911 106,78.7660797 106,79.5751592 C106,80.3842388 105.340864,81.0401274 104.527778,81.0401274 L101.583333,81.0401274 C100.770247,81.0401274 100.111111,80.3842388 100.111111,79.5751592 C100.111111,78.7660797 100.770247,78.1101911 101.583333,78.1101911 L104.527778,78.1101911 Z M95.6944444,78.1101911 C96.5075303,78.1101911 97.1666667,78.7660797 97.1666667,79.5751592 C97.1666667,80.3842388 96.5075303,81.0401274 95.6944444,81.0401274 L1.47222222,81.0401274 C0.659136341,81.0401274 0,80.3842388 0,79.5751592 C0,78.7660797 0.659136341,78.1101911 1.47222222,78.1101911 L95.6944444,78.1101911 Z" id="形状结合"></path>
                </g>
                <g id="编组">
                    <path d="M96,21.4883771 C101.522847,21.4883771 106,25.9179962 106,31.3822082 L106,57.1061689 C106,62.570381 101.522847,67 96,67 L10,67 C4.4771525,67 0,62.570381 0,57.1061689 L0,31.3822082 C0,25.9179962 4.4771525,21.4883771 10,21.4883771 L96,21.4883771 Z M96,24.4565265 L10,24.4565265 C6.21454828,24.4565265 3.13090132,27.4294084 3.00405902,31.1441134 L3,31.3822082 L3,57.1061689 C3,60.8514309 6.00478338,63.9023391 9.75935025,64.0278348 L10,64.0318507 L96,64.0318507 C99.7854517,64.0318507 102.869099,61.0589688 102.995941,57.3442637 L103,57.1061689 L103,31.3822082 C103,27.6369462 99.9952166,24.586038 96.2406498,24.4605424 L96,24.4565265 Z" id="矩形" fill="#666666" fill-rule="nonzero"></path>
                    <path d="M96,26.4352927 C97.3807119,26.4352927 98.6307119,26.9889951 99.5355339,27.8842107 C100.383805,28.7234753 100.928696,29.8628981 100.993494,31.1276406 L101,31.3822082 L101,57.1061689 C101,58.4722219 100.440356,59.7089508 99.5355339,60.6041665 C98.6872633,61.4434311 97.5356135,61.9825376 96.2572993,62.0466476 L96,62.0530845 L10,62.0530845 C8.61928813,62.0530845 7.36928813,61.4993821 6.46446609,60.6041665 C5.61619544,59.7649018 5.07130386,58.625479 5.00650597,57.3607366 L5,57.1061689 L5,31.3822082 C5,30.0161552 5.55964406,28.7794263 6.46446609,27.8842107 C7.31273675,27.044946 8.46438648,26.5058395 9.74270066,26.4417296 L10,26.4352927 L96,26.4352927 Z M10.050555,28.4134266 L9.84395089,28.4179585 C9.09534186,28.4555027 8.40199115,28.7656541 7.87867966,29.2834097 C7.36509358,29.7915431 7.05474699,30.4597257 7.00658913,31.1835118 L6.99936094,31.3822082 L6.99936094,57.0561506 L7.00394142,57.2605613 C7.0418885,58.0012224 7.35536817,58.6872119 7.87867966,59.2049675 C8.39226574,59.7131008 9.0676185,60.0201525 9.79917147,60.0677991 L10,60.0743183 L95.949445,60.0749505 L96.1560491,60.0704187 C96.9046581,60.0328745 97.5980089,59.722723 98.1213203,59.2049675 C98.6349064,58.6968341 98.945253,58.0286514 98.9934109,57.3048653 L99.0006391,57.1061689 L99.0006391,31.4322265 L98.9960586,31.2278158 C98.9581115,30.4871547 98.6446318,29.8011652 98.1213203,29.2834097 C97.6077343,28.7752763 96.9323815,28.4682246 96.2008285,28.4205781 L96,28.4140589 L10.050555,28.4134266 Z" id="矩形" fill="#979797" fill-rule="nonzero"></path>
                    <path d="M19.7392159,55.1274027 C18.8073649,55.1274027 18.0509806,54.3931956 18.0509806,53.4886665 C18.0509806,52.5841374 18.8073649,51.8499303 19.7392159,51.8499303 C20.6710669,51.8499303 21.4274513,52.5841374 21.4274513,53.4886665 C21.4274513,54.3931956 20.6710669,55.1274027 19.7392159,55.1274027 Z M26.9909691,39.1682169 C26.8935181,40.9213183 26.3401338,42.3033458 23.5731298,44.9916993 C22.1701101,46.3547814 21.2854473,47.377113 21.1958199,48.2745009 C21.1256826,48.9787578 20.5138003,49.5050719 19.8006238,49.5050719 C19.7538473,49.5050719 19.7070983,49.5012882 19.6603493,49.4975044 C18.8887022,49.4255599 18.3274669,48.7553568 18.4015296,48.0056683 C18.5924786,46.1162453 20.0188591,44.5903288 21.5894395,43.0644122 C24.1031259,40.622189 24.1460043,39.8459876 24.1888827,39.0243279 C24.2395298,38.0663733 23.8770945,37.1387154 23.16002,36.4079456 C22.3454944,35.5749347 21.1919219,35.0978359 19.9954708,35.0978359 L19.9877022,35.0978359 C17.6844276,35.1016197 15.8059844,36.9266656 15.8059844,39.1682169 C15.8059844,39.9217158 15.1785373,40.5313257 14.4029922,40.5313257 C13.6274471,40.5313257 13,39.9217158 13,39.1682169 C13,37.3545223 13.7248706,35.6506629 15.0421334,34.3670662 C16.3593962,33.0834694 18.1131296,32.3754287 19.9799061,32.3716048 C21.9479768,32.3678346 23.8498082,33.1554139 25.1943573,34.5298739 C26.4492514,35.8059032 27.0844946,37.452953 26.9909691,39.1682169 L26.9909691,39.1682169 Z" id="形状" fill="#D8D8D8" fill-rule="nonzero"></path>
                    <path d="M41.7392159,55.1274027 C40.8073649,55.1274027 40.0509806,54.3931956 40.0509806,53.4886665 C40.0509806,52.5841374 40.8073649,51.8499303 41.7392159,51.8499303 C42.6710669,51.8499303 43.4274513,52.5841374 43.4274513,53.4886665 C43.4274513,54.3931956 42.6710669,55.1274027 41.7392159,55.1274027 Z M48.9909691,39.1682169 C48.8935181,40.9213183 48.3401338,42.3033458 45.5731298,44.9916993 C44.1701101,46.3547814 43.2854473,47.377113 43.1958199,48.2745009 C43.1256826,48.9787578 42.5138003,49.5050719 41.8006238,49.5050719 C41.7538473,49.5050719 41.7070983,49.5012882 41.6603493,49.4975044 C40.8887022,49.4255599 40.3274669,48.7553568 40.4015296,48.0056683 C40.5924786,46.1162453 42.0188591,44.5903288 43.5894395,43.0644122 C46.1031259,40.622189 46.1460043,39.8459876 46.1888827,39.0243279 C46.2395298,38.0663733 45.8770945,37.1387154 45.16002,36.4079456 C44.3454944,35.5749347 43.1919219,35.0978359 41.9954708,35.0978359 L41.9877022,35.0978359 C39.6844276,35.1016197 37.8059844,36.9266656 37.8059844,39.1682169 C37.8059844,39.9217158 37.1785373,40.5313257 36.4029922,40.5313257 C35.6274471,40.5313257 35,39.9217158 35,39.1682169 C35,37.3545223 35.7248706,35.6506629 37.0421334,34.3670662 C38.3593962,33.0834694 40.1131296,32.3754287 41.9799061,32.3716048 C43.9479768,32.3678346 45.8498082,33.1554139 47.1943573,34.5298739 C48.4492514,35.8059032 49.0844946,37.452953 48.9909691,39.1682169 L48.9909691,39.1682169 Z" id="形状备份" fill="#D8D8D8" fill-rule="nonzero"></path>
                    <path d="M63.7392159,55.1274027 C62.8073649,55.1274027 62.0509806,54.3931956 62.0509806,53.4886665 C62.0509806,52.5841374 62.8073649,51.8499303 63.7392159,51.8499303 C64.6710669,51.8499303 65.4274513,52.5841374 65.4274513,53.4886665 C65.4274513,54.3931956 64.6710669,55.1274027 63.7392159,55.1274027 Z M70.9909691,39.1682169 C70.8935181,40.9213183 70.3401338,42.3033458 67.5731298,44.9916993 C66.1701101,46.3547814 65.2854473,47.377113 65.1958199,48.2745009 C65.1256826,48.9787578 64.5138003,49.5050719 63.8006238,49.5050719 C63.7538473,49.5050719 63.7070983,49.5012882 63.6603493,49.4975044 C62.8887022,49.4255599 62.3274669,48.7553568 62.4015296,48.0056683 C62.5924786,46.1162453 64.0188591,44.5903288 65.5894395,43.0644122 C68.1031259,40.622189 68.1460043,39.8459876 68.1888827,39.0243279 C68.2395298,38.0663733 67.8770945,37.1387154 67.16002,36.4079456 C66.3454944,35.5749347 65.1919219,35.0978359 63.9954708,35.0978359 L63.9877022,35.0978359 C61.6844276,35.1016197 59.8059844,36.9266656 59.8059844,39.1682169 C59.8059844,39.9217158 59.1785373,40.5313257 58.4029922,40.5313257 C57.6274471,40.5313257 57,39.9217158 57,39.1682169 C57,37.3545223 57.7248706,35.6506629 59.0421334,34.3670662 C60.3593962,33.0834694 62.1131296,32.3754287 63.9799061,32.3716048 C65.9479768,32.3678346 67.8498082,33.1554139 69.1943573,34.5298739 C70.4492514,35.8059032 71.0844946,37.452953 70.9909691,39.1682169 L70.9909691,39.1682169 Z" id="形状备份-2" fill="#D8D8D8" fill-rule="nonzero"></path>
                    <path d="M85.7392159,55.1274027 C84.8073649,55.1274027 84.0509806,54.3931956 84.0509806,53.4886665 C84.0509806,52.5841374 84.8073649,51.8499303 85.7392159,51.8499303 C86.6710669,51.8499303 87.4274513,52.5841374 87.4274513,53.4886665 C87.4274513,54.3931956 86.6710669,55.1274027 85.7392159,55.1274027 Z M92.9909691,39.1682169 C92.8935181,40.9213183 92.3401338,42.3033458 89.5731298,44.9916993 C88.1701101,46.3547814 87.2854473,47.377113 87.1958199,48.2745009 C87.1256826,48.9787578 86.5138003,49.5050719 85.8006238,49.5050719 C85.7538473,49.5050719 85.7070983,49.5012882 85.6603493,49.4975044 C84.8887022,49.4255599 84.3274669,48.7553568 84.4015296,48.0056683 C84.5924786,46.1162453 86.0188591,44.5903288 87.5894395,43.0644122 C90.1031259,40.622189 90.1460043,39.8459876 90.1888827,39.0243279 C90.2395298,38.0663733 89.8770945,37.1387154 89.16002,36.4079456 C88.3454944,35.5749347 87.1919219,35.0978359 85.9954708,35.0978359 L85.9877022,35.0978359 C83.6844276,35.1016197 81.8059844,36.9266656 81.8059844,39.1682169 C81.8059844,39.9217158 81.1785373,40.5313257 80.4029922,40.5313257 C79.6274471,40.5313257 79,39.9217158 79,39.1682169 C79,37.3545223 79.7248706,35.6506629 81.0421334,34.3670662 C82.3593962,33.0834694 84.1131296,32.3754287 85.9799061,32.3716048 C87.9479768,32.3678346 89.8498082,33.1554139 91.1943573,34.5298739 C92.4492514,35.8059032 93.0844946,37.452953 92.9909691,39.1682169 L92.9909691,39.1682169 Z" id="形状备份-3" fill="#D8D8D8" fill-rule="nonzero"></path>
                    <polygon id="路径" fill="#CCCCCC" fill-rule="nonzero" points="87.2484708 9.86879728 87.2484708 10.2746334 90.6704273 13.3691339 103.787927 7.12940342 91.9147751 14.5866423 91.9147751 18.2391674 93.8331447 16.4129048 93.8331447 16.3621753 93.8331447 16.4129048 95.7515143 18.2391674 105.913688 6.06408358 105.913688 5.65824746"></polygon>
                    <path d="M56.5517146,33.3963026 C66.2028646,30.2830103 76.1644973,16.7833543 73.7255408,15.3779838 C71.2865843,13.9726133 66.4116172,16.9521681 67.5855693,18.8299691 C68.7595215,20.70777 73.5529312,22.8612769 77.176476,20.6680089 C79.5921725,19.2058303 80.588961,13.1529231 80.1668413,2.50928729" id="路径-3" stroke="#CCCCCC" stroke-width="0.5" stroke-dasharray="2,1" transform="translate(68.406370, 17.952795) scale(1, -1) rotate(59.000000) translate(-68.406370, -17.952795) "></path>
                </g>
            </g>
        </g>
    </g>
</svg>