<?xml version="1.0" encoding="UTF-8"?>
<svg width="16px" height="15px" viewBox="0 0 16 15" version="1.1" xmlns="http://www.w3.org/2000/svg" xmlns:xlink="http://www.w3.org/1999/xlink">
    <title>微信支付</title>
    <g id="v1.5.0新增" stroke="none" stroke-width="1" fill="none" fill-rule="evenodd">
        <g id="充值二维码" transform="translate(-510.000000, -402.000000)" fill="#6BCC03" fill-rule="nonzero">
            <g id="编组-6" transform="translate(480.000000, 288.000000)">
                <g id="编组-5" transform="translate(15.000000, 15.000000)">
                    <g id="编组-3" transform="translate(15.000000, 98.000000)">
                        <g id="微信支付" transform="translate(0.000000, 1.000000)">
                            <path d="M-1.38975386e-17,7.1411605 L-1.38975386e-17,6.65252799 C0.0400569277,6.20461486 0.120170783,5.79742111 0.240341566,5.39022735 C0.560796987,4.33152358 1.08153705,3.43569732 1.80256174,2.66202918 C2.80398494,1.56260604 4.00569277,0.870376654 5.32757138,0.422463522 C6.088653,0.178147268 6.84973463,0.0559891415 7.61081626,0.0152697659 C8.2517271,-0.0254496098 8.85258101,0.0152697659 9.49349186,0.137427893 C10.0142319,0.218866644 10.494915,0.341024771 11.0156551,0.544621649 C12.2574199,0.992534781 13.3389569,1.68476417 14.2602662,2.66202918 C14.380437,2.78418731 14.4605509,2.90634544 14.5807217,3.02850356 C14.5406647,3.02850356 14.5406647,3.06922294 14.5006078,3.06922294 C14.1801524,3.23210044 13.859697,3.39497794 13.5392415,3.51713607 C11.2960536,4.57583984 9.05286565,5.6345436 6.8096777,6.65252799 C6.3690515,6.85612487 5.92842529,6.8154055 5.52785602,6.57108924 C5.2074006,6.36749237 4.9270021,6.16389549 4.60654668,5.96029861 C4.40626204,5.79742111 4.2059774,5.67526298 3.96563584,5.51238548 C3.7653512,5.39022735 3.64518042,5.4716661 3.64518042,5.71598235 L3.64518042,5.75670173 C3.68523734,5.96029861 3.72529427,6.16389549 3.80540813,6.36749237 C4.2059774,7.34475738 4.60654668,8.28130302 5.00711596,9.25856804 C5.12728674,9.54360366 5.32757138,9.66576179 5.56791294,9.62504242 C5.72814066,9.62504242 5.88836837,9.58432304 6.00853915,9.50288429 C6.48922228,9.25856804 6.92984849,8.97353241 7.37047469,8.68849678 C9.81394728,7.22259925 12.2173629,5.75670173 14.6608355,4.29080421 C14.8210632,4.16864608 15.0213479,4.08720733 15.1815756,3.9650492 C15.1815756,4.00576858 15.2216325,4.00576858 15.2216325,4.04648795 C15.3017464,4.20936546 15.3818602,4.33152358 15.4219171,4.49440109 C15.8625434,5.4716661 16.062828,6.48965049 15.9827141,7.54835426 C15.9426572,7.99626739 15.8625434,8.44418052 15.7423726,8.89209365 C15.4619741,9.86935867 14.9812909,10.7244656 14.3003232,11.4981337 C13.4991846,12.39396 12.4977614,13.0861893 11.4162244,13.5341025 C10.7753135,13.7784187 10.1344027,13.9820156 9.49349186,14.1041737 C9.05286565,14.1856125 8.61223945,14.2263319 8.21167017,14.2263319 L7.49064547,14.2263319 C7.17019005,14.1856125 6.84973463,14.1856125 6.56933614,14.1448931 C6.088653,14.0634544 5.60796987,13.9412962 5.16734367,13.7784187 L5.04717289,13.7784187 C4.84688825,13.9005769 4.68666054,14.022735 4.4863759,14.1448931 C4.04574969,14.4299287 3.64518042,14.674245 3.20455421,14.9185612 C3.12444036,14.9592806 3.00426957,15 2.92415572,15 C2.84404186,15 2.76392801,14.9592806 2.76392801,14.8371225 C2.76392801,14.7556837 2.76392801,14.6335256 2.80398494,14.5520869 C2.88409879,13.9412962 3.00426957,13.371225 3.12444036,12.7604343 C3.12444036,12.6789956 3.12444036,12.6382762 3.0443265,12.5975568 C2.80398494,12.39396 2.56364337,12.2310825 2.3233018,11.9867662 C1.52216325,11.2538174 0.881252409,10.3579912 0.480683132,9.34000679 C0.320455421,8.89209365 0.200284638,8.40346115 0.120170783,7.91482864 C0.0801138553,7.71123176 0.0801138553,7.50763488 0.0801138553,7.26331863 C-1.38975386e-17,7.26331863 -1.38975386e-17,7.22259925 -1.38975386e-17,7.1411605 Z" id="路径"></path>
                        </g>
                    </g>
                </g>
            </g>
        </g>
    </g>
</svg>