<?xml version="1.0" encoding="UTF-8"?>
<svg width="20px" height="20px" viewBox="0 0 20 20" version="1.1" xmlns="http://www.w3.org/2000/svg" xmlns:xlink="http://www.w3.org/1999/xlink">
    <title>发货</title>
    <defs>
        <filter color-interpolation-filters="auto" id="filter-1">
            <feColorMatrix in="SourceGraphic" type="matrix" values="0 0 0 0 0.000000 0 0 0 0 0.000000 0 0 0 0 0.000000 0 0 0 1.000000 0"></feColorMatrix>
        </filter>
    </defs>
    <g id="v1.5.0" stroke="none" stroke-width="1" fill="none" fill-rule="evenodd">
        <g id="发货" filter="url(#filter-1)">
            <g>
                <path d="M15.145898,0 C16.5888392,0 17.9138341,0.776425855 18.6220609,2.0209887 L18.7236068,2.21114562 L19.8944272,4.5527864 C19.946498,4.65692798 19.9798473,4.76908947 19.9932675,4.8841554 L20,5 L20,19 C20,19.5128358 19.6139598,19.9355072 19.1166211,19.9932723 L19,20 L1,20 C0.487164161,20 0.0644928393,19.6139598 0.00672773133,19.1166211 L0,19 L0,16.9827232 C0,16.4304385 0.44771525,15.9827232 1,15.9827232 C1.51283584,15.9827232 1.93550716,16.3687634 1.99327227,16.8661021 L2,16.9827232 L2,18 L18,18 L18,6 L18,6 L2,6 L2,7.42661667 C2,7.93945251 1.61395981,8.36212383 1.11662113,8.41988894 L1,8.42661667 C0.487164161,8.42661667 0.0644928393,8.04057648 0.00672773133,7.54323779 L0,7.42661667 L0,5 C0,4.88356618 0.0203316141,4.76833162 0.0597872394,4.65941182 L0.105572809,4.5527864 L1.2763932,2.21114562 C1.92169611,0.920539796 3.20870825,0.0826565211 4.63860774,0.0057846578 L4.85410197,0 L15.145898,0 Z M14.0911955,9.32378759 L14.1709806,9.42100158 L15.9568505,11.8973947 C16.1759323,12.2011864 16.2002747,12.5950371 16.0298778,12.918842 L15.9568505,13.0366727 L14.1709806,15.5130658 C13.848219,15.9606261 13.2143408,16.0684093 12.755174,15.7538063 C12.3313277,15.4634036 12.2045035,14.9146083 12.4413607,14.4798783 L12.5081903,14.3737878 L13.2097008,13.401 L9.01624535,13.4014173 C8.45498854,13.4014173 8,12.9579297 8,12.41086 C8,11.9028668 8.39231155,11.4841867 8.89772968,11.426967 L9.01624535,11.4203028 L13.1287008,11.42 L12.5081903,10.5602796 C12.2102566,10.147147 12.2815592,9.58891098 12.655439,9.25802935 L12.755174,9.18026104 C13.1790203,8.88985832 13.7517331,8.9593586 14.0911955,9.32378759 Z M3,12.6102905 C3.55228475,12.6102905 4,13.0580058 4,13.6102905 C4,14.1625753 3.55228475,14.6102905 3,14.6102905 L1,14.6102905 C0.44771525,14.6102905 6.76353751e-17,14.1625753 0,13.6102905 C-6.76353751e-17,13.0580058 0.44771525,12.6102905 1,12.6102905 L3,12.6102905 Z M5,9.61029053 C5.55228475,9.61029053 6,10.0580058 6,10.6102905 C6,11.1625753 5.55228475,11.6102905 5,11.6102905 L1,11.6102905 C0.44771525,11.6102905 6.76353751e-17,11.1625753 0,10.6102905 C-6.76353751e-17,10.0580058 0.44771525,9.61029053 1,9.61029053 L5,9.61029053 Z M15.145898,2 L4.85410197,2 C4.15066814,2 3.50329566,2.36904491 3.14315336,2.96426453 L3.06524758,3.10557281 L2.618,4 L17.381,4 L16.9347524,3.10557281 C16.6201672,2.47640247 16.0005697,2.06241682 15.3071285,2.00648606 L15.145898,2 Z" id="形状结合" fill="#3D3D3D" fill-rule="nonzero"></path>
            </g>
        </g>
    </g>
</svg>