<?xml version="1.0" encoding="UTF-8"?>
<svg width="19.3544014px" height="10.2622766px" viewBox="0 0 19.3544014 10.2622766" version="1.1" xmlns="http://www.w3.org/2000/svg" xmlns:xlink="http://www.w3.org/1999/xlink">
    <title>密码闭眼</title>
    <g id="1.0.1" stroke="none" stroke-width="1" fill="none" fill-rule="evenodd">
        <g id="输入就旧密码修改密码" transform="translate(-796.1602, -337.6557)" fill="#29104E">
            <g id="编组-9备份" transform="translate(425, 244)">
                <g id="编组-11" transform="translate(30, 78)">
                    <g id="密码闭眼" transform="translate(341.1602, 15.6557)">
                        <rect id="矩形备份" transform="translate(9.9867, 7.9289) rotate(-180) translate(-9.9867, -7.9289)" x="9.31998833" y="5.59560996" width="1.33333333" height="4.66666667" rx="0.666666667"></rect>
                        <path d="M2.01053405,2.69498774 C2.37872388,2.69498774 2.67720072,2.99346457 2.67720072,3.36165441 L2.67720072,6.69498774 C2.67720072,7.06317757 2.37872388,7.36165441 2.01053405,7.36165441 C1.64234422,7.36165441 1.34386738,7.06317757 1.34386738,6.69498774 L1.34386738,3.36165441 C1.34386738,2.99346457 1.64234422,2.69498774 2.01053405,2.69498774 Z" id="矩形备份-2" transform="translate(2.0105, 5.0283) rotate(-140) translate(-2.0105, -5.0283)"></path>
                        <path d="M5.62828704,4.86252372 C5.99647688,4.86252372 6.29495371,5.16100056 6.29495371,5.52919039 L6.29495371,8.86252372 C6.29495371,9.23071356 5.99647688,9.52919039 5.62828704,9.52919039 C5.26009721,9.52919039 4.96162038,9.23071356 4.96162038,8.86252372 L4.96162038,5.52919039 C4.96162038,5.16100056 5.26009721,4.86252372 5.62828704,4.86252372 Z" id="矩形备份-3" transform="translate(5.6283, 7.1959) rotate(-159) translate(-5.6283, -7.1959)"></path>
                        <path d="M17.3438674,2.69498774 C17.7120572,2.69498774 18.0105341,2.99346457 18.0105341,3.36165441 L18.0105341,6.69498774 C18.0105341,7.06317757 17.7120572,7.36165441 17.3438674,7.36165441 C16.9756776,7.36165441 16.6772007,7.06317757 16.6772007,6.69498774 L16.6772007,3.36165441 C16.6772007,2.99346457 16.9756776,2.69498774 17.3438674,2.69498774 Z" id="矩形备份-2" transform="translate(17.3439, 5.0283) scale(-1, 1) rotate(-140) translate(-17.3439, -5.0283)"></path>
                        <path d="M14.2949537,4.86252372 C14.6631435,4.86252372 14.9616204,5.16100056 14.9616204,5.52919039 L14.9616204,8.86252372 C14.9616204,9.23071356 14.6631435,9.52919039 14.2949537,9.52919039 C13.9267639,9.52919039 13.628287,9.23071356 13.628287,8.86252372 L13.628287,5.52919039 C13.628287,5.16100056 13.9267639,4.86252372 14.2949537,4.86252372 Z" id="矩形备份-3" transform="translate(14.295, 7.1959) scale(-1, 1) rotate(-159) translate(-14.295, -7.1959)"></path>
                        <path d="M9.83977936,0 C13.5481637,0 16.4173106,1.77609142 18.3723274,5.26255693 C18.5524082,5.58370277 18.4380524,5.99002726 18.1169065,6.17010807 C17.7957607,6.35018887 17.3894362,6.23583306 17.2093554,5.91468721 C15.4844255,2.83854551 13.0528644,1.33333333 9.83977936,1.33333333 C6.63214563,1.33333333 4.26289248,2.83223044 2.64984692,5.8989652 C2.47844915,6.22482798 2.07533981,6.35004661 1.74947703,6.17864884 C1.42361424,6.00725106 1.29839561,5.60414173 1.46979339,5.27827894 C3.3085574,1.7824065 6.12594373,0 9.83977936,0 Z" id="路径-6备份" fill-rule="nonzero" transform="translate(9.9253, 3.1277) scale(1, -1) translate(-9.9253, -3.1277)"></path>
                    </g>
                </g>
            </g>
        </g>
    </g>
</svg>