<?xml version="1.0" encoding="UTF-8"?>
<svg width="106px" height="96px" viewBox="0 0 106 96" version="1.1" xmlns="http://www.w3.org/2000/svg" xmlns:xlink="http://www.w3.org/1999/xlink">
    <title>缺省页_暂无搜索</title>
    <g id="steam账号管理" stroke="none" stroke-width="1" fill="none" fill-rule="evenodd">
        <g id="缺省页" transform="translate(-990.000000, -147.000000)">
            <g id="缺省页_暂无搜索" transform="translate(990.000000, 147.000000)">
                <path d="M23.9,47.8 C23.9,48.65 24.55,49.3 25.4,49.3 C26.25,49.3 26.9,48.65 26.9,47.8 C26.9,46.95 26.25,46.3 25.4,46.3 C24.6,46.3 23.9,47 23.9,47.8 L23.9,47.8 Z M93,74.8 C91.5,75.2 91.15,75.5 90.75,77.05 C90.35,75.55 90.05,75.2 88.5,74.8 C90,74.4 90.35,74.05 90.75,72.55 C91.15,74.05 91.45,74.4 93,74.8 Z M88,70.15 C85.3,70.85 84.7,71.45 84,74.15 C83.3,71.45 82.7,70.85 80,70.15 C82.7,69.45 83.3,68.85 84,66.15 C84.7,68.85 85.3,69.45 88,70.15 Z M89.75,11.45 C88.25,11.85 87.95,12.15 87.55,13.65 C87.15,12.15 86.85,11.85 85.35,11.45 C86.85,11.05 87.15,10.75 87.55,9.25 C87.9,10.75 88.25,11.05 89.75,11.45 Z M88.5,5.75 C84.6,6.75 83.8,7.6 82.75,11.5 C81.75,7.6 80.9,6.8 77,5.75 C80.9,4.75 81.7,3.9 82.75,0 C83.75,3.85 84.6,4.7 88.5,5.75 Z M20,11 C16.6086957,11.8695652 15.9130435,12.6086957 15,16 C14.1304348,12.6086957 13.3913043,11.9130435 10,11 C13.3913043,10.1304348 14.0869565,9.39130435 15,6 C15.8695652,9.34782609 16.6086957,10.0869565 20,11 Z" id="形状" fill="#CCCCCC" fill-rule="nonzero"></path>
                <path d="M60.5,17.5 C65.599359,17.5 70.2240793,19.5757929 73.5741432,22.9258568 C76.9242071,26.2759207 79,30.900641 79,36 C79,41.099359 76.9242071,45.7240793 73.5741432,49.0741432 C70.2240793,52.4242071 65.599359,54.5 60.5,54.5 C55.400641,54.5 50.7759207,52.4242071 47.4258568,49.0741432 C44.0757929,45.7240793 42,41.099359 42,36 C42,30.900641 44.0757929,26.2759207 47.4258568,22.9258568 C50.7759207,19.5757929 55.400641,17.5 60.5,17.5 Z" id="路径" stroke="#979797" stroke-width="2" fill-rule="nonzero"></path>
                <path d="M60.5,29 C61.6634223,29 62.7605535,29.2838262 63.7259291,29.7860143 L61.7428555,32.2630685 C61.6832245,32.3375443 61.6332484,32.4169269 61.5928603,32.4996195 C61.2485447,32.3908395 60.8810595,32.3327206 60.5,32.3327206 C58.4746175,32.3327206 56.8327206,33.9746175 56.8327206,36 C56.8327206,38.0253825 58.4746175,39.6672794 60.5,39.6672794 C62.5253825,39.6672794 64.1672794,38.0253825 64.1672794,36 C64.1672794,35.6862488 64.1278788,35.3817001 64.0537557,35.0910319 C64.1674634,35.0439757 64.275575,34.9782605 64.374475,34.894913 L66.7672194,32.878539 C67.2361849,33.8182989 67.5,34.8783408 67.5,36 C67.5,39.8659932 64.3659932,43 60.5,43 C56.6340068,43 53.5,39.8659932 53.5,36 C53.5,32.1340068 56.6340068,29 60.5,29 Z M60.5060317,33.6134536 C61.0958022,33.6134536 61.6357325,33.8268444 62.0528256,34.1806287 L62.4127679,34.5605515 C62.7176627,34.9621162 62.8986098,35.4629427 62.8986098,36.0060317 C62.8986098,37.3274161 61.8274161,38.3986098 60.5060317,38.3986098 C59.1846473,38.3986098 58.1134536,37.3274161 58.1134536,36.0060317 C58.1134536,34.6846473 59.1846473,33.6134536 60.5060317,33.6134536 Z M61.136751,34.2039596 C61.120395,34.1317011 61.0238554,34.0972973 60.9661515,34.158785 L60.9661515,34.158785 L60.428714,34.7319531 L60.5,34.7285156 C59.7977786,34.7285156 59.2285156,35.2977786 59.2285156,36 L59.2285156,36 L59.2286867,36.0340848 C59.2235288,36.0544591 59.2252474,36.075617 59.2325666,36.0945778 L59.2325666,36.0945778 L59.231,36.064 L59.2358138,36.1370326 C59.2792281,36.5421789 59.5129425,36.890385 59.8458069,37.0905005 L59.9603089,37.1515958 L59.862083,37.7570253 L59.863028,37.7960404 C59.879384,37.8682989 59.9759235,37.9027027 60.0336275,37.841215 L60.0336275,37.841215 L60.568,37.267 L60.6300019,37.2649198 C61.228412,37.204148 61.704148,36.728412 61.7649198,36.1300019 L61.7714844,36 L61.771287,35.9659152 C61.776837,35.9441653 61.7744917,35.9215223 61.7658406,35.9016126 L61.766,35.906 L61.7641749,35.8628625 C61.7206941,35.4574115 61.4866254,35.1089971 61.1533314,34.9089819 L61.0386838,34.8479318 L61.137696,34.2429747 Z" id="形状结合" fill="#CCCCCC"></path>
                <path d="M60.5,10 C46.15,10 34.5,21.65 34.5,36 C34.5,43.1 37.35,49.5 41.95,54.2 L37.85,58.3 L37.5,57.95 C35.75,56.2 32.9,56.2 31.15,57.95 L21.25,67.85 C19.5,69.6 19.5,72.45 21.25,74.2 L24.1,77.05 C25,77.95 26.15,78.35 27.3,78.35 C28.45,78.35 29.6,77.9 30.5,77.05 L40.4,67.15 C42.15,65.4 42.15,62.55 40.4,60.8 L40.05,60.45 L44.25,56.25 C48.7,59.85 54.4,62 60.55,62 C74.9,62 86.55,50.35 86.55,36 C86.55,21.65 74.85,10 60.5,10 Z M38.25,65.05 L28.35,74.95 C27.75,75.55 26.8,75.55 26.25,74.95 L23.4,72.1 C22.8,71.5 22.8,70.55 23.4,70 L33.3,60.1 C33.6,59.8 34,59.65 34.35,59.65 C34.75,59.65 35.1,59.8 35.4,60.1 L38.25,62.95 C38.8,63.5 38.8,64.45 38.25,65.05 Z M60.5,59 C47.8,59 37.5,48.7 37.5,36 C37.5,23.3 47.8,13 60.5,13 C73.2,13 83.5,23.3 83.5,36 C83.5,48.7 73.2,59 60.5,59 Z" id="形状" fill="#666666" fill-rule="nonzero"></path>
                <path d="M89.8055556,93.0700637 C90.6186414,93.0700637 91.2777778,93.7259523 91.2777778,94.5350318 C91.2777778,95.3441114 90.6186414,96 89.8055556,96 L30.9166667,96 C30.1035808,96 29.4444444,95.3441114 29.4444444,94.5350318 C29.4444444,93.7259523 30.1035808,93.0700637 30.9166667,93.0700637 L89.8055556,93.0700637 Z M25.0277778,93.0700637 C25.8408637,93.0700637 26.5,93.7259523 26.5,94.5350318 C26.5,95.3441114 25.8408637,96 25.0277778,96 L16.1944444,96 C15.3813586,96 14.7222222,95.3441114 14.7222222,94.5350318 C14.7222222,93.7259523 15.3813586,93.0700637 16.1944444,93.0700637 L25.0277778,93.0700637 Z M104.527778,87.2101911 C105.340864,87.2101911 106,87.8660797 106,88.6751592 C106,89.4842388 105.340864,90.1401274 104.527778,90.1401274 L101.583333,90.1401274 C100.770247,90.1401274 100.111111,89.4842388 100.111111,88.6751592 C100.111111,87.8660797 100.770247,87.2101911 101.583333,87.2101911 L104.527778,87.2101911 Z M95.6944444,87.2101911 C96.5075303,87.2101911 97.1666667,87.8660797 97.1666667,88.6751592 C97.1666667,89.4842388 96.5075303,90.1401274 95.6944444,90.1401274 L1.47222222,90.1401274 C0.659136341,90.1401274 0,89.4842388 0,88.6751592 C0,87.8660797 0.659136341,87.2101911 1.47222222,87.2101911 L95.6944444,87.2101911 Z" id="形状结合" fill="#CCCCCC" fill-rule="nonzero"></path>
            </g>
        </g>
    </g>
</svg>