<?xml version="1.0" encoding="UTF-8"?>
<svg width="16px" height="16px" viewBox="0 0 16 16" version="1.1" xmlns="http://www.w3.org/2000/svg" xmlns:xlink="http://www.w3.org/1999/xlink">
    <title>编组 18</title>
    <defs>
        <filter color-interpolation-filters="auto" id="filter-1">
            <feColorMatrix in="SourceGraphic" type="matrix" values="0 0 0 0 0.160784 0 0 0 0 0.062745 0 0 0 0 0.305882 0 0 0 1.000000 0"></feColorMatrix>
        </filter>
    </defs>
    <g id="steam账号管理" stroke="none" stroke-width="1" fill="none" fill-rule="evenodd">
        <g id="编组-18" transform="translate(-68.000000, -37.000000)" filter="url(#filter-1)">
            <g transform="translate(68.000000, 37.000000)">
                <rect id="矩形" x="0" y="0" width="16" height="16"></rect>
                <path d="M13,1 C14.1045695,1 15,1.8954305 15,3 L15,5.5 L16,5.5 L16,10.5 L15,10.5 L15,13 C15,14.1045695 14.1045695,15 13,15 L2,15 C0.8954305,15 0,14.1045695 0,13 L0,3 C0,1.8954305 0.8954305,1 2,1 L13,1 Z M13,2 L2,2 C1.48716416,2 1.06449284,2.38604019 1.00672773,2.88337887 L1,3 L1,13 C1,13.5128358 1.38604019,13.9355072 1.88337887,13.9932723 L2,14 L13,14 C13.5128358,14 13.9355072,13.6139598 13.9932723,13.1166211 L14,13 L14,10.5 L10.5,10.5 C9.11928813,10.5 8,9.38071187 8,8 C8,6.61928813 9.11928813,5.5 10.5,5.5 L14,5.5 L14,3 C14,2.48716416 13.6139598,2.06449284 13.1166211,2.00672773 L13,2 Z M15,6.5 L10.5,6.5 C9.72030388,6.5 9.07955132,7.09488808 9.00686658,7.85553999 L9,8 C9,8.77969612 9.59488808,9.42044868 10.35554,9.49313342 L10.5,9.5 L15,9.5 L15,6.5 Z M10.5,7 C11.0522847,7 11.5,7.44771525 11.5,8 C11.5,8.55228475 11.0522847,9 10.5,9 C9.94771525,9 9.5,8.55228475 9.5,8 C9.5,7.44771525 9.94771525,7 10.5,7 Z" id="形状结合" fill="#979797" fill-rule="nonzero"></path>
            </g>
        </g>
    </g>
</svg>