<?xml version="1.0" encoding="UTF-8"?>
<svg width="106px" height="92px" viewBox="0 0 106 92" version="1.1" xmlns="http://www.w3.org/2000/svg" xmlns:xlink="http://www.w3.org/1999/xlink">
    <title>缺省页_暂无消息</title>
    <g id="steam账号管理" stroke="none" stroke-width="1" fill="none" fill-rule="evenodd">
        <g id="缺省页" transform="translate(-452.000000, -151.000000)">
            <g id="缺省页_暂无消息" transform="translate(452.000000, 151.000000)">
                <path d="M70.095941,22.5364238 C71.7412173,22.5364238 73.2377042,23.2102596 74.3223606,24.2982778 C75.4058955,25.385171 76.0774908,26.8845933 76.0774908,28.5334136 L76.0774908,28.5334136 L76.0774908,55.5159542 C76.0774908,57.1647745 75.4058955,58.6641968 74.3223606,59.7510901 C73.2377042,60.8391083 71.7412173,61.512944 70.095941,61.512944 L70.095941,61.512944 L42.1080058,61.512944 L38.2140221,65.2627547 L38.2140221,61.512944 L35.2324723,61.512944 C33.5871959,61.512944 32.0907091,60.8391083 31.0060527,59.7510901 C29.9225178,58.6641968 29.2509225,57.1647745 29.2509225,55.5159542 L29.2509225,55.5159542 L29.2509225,28.5334136 C29.2509225,26.8845933 29.9225178,25.385171 31.0060527,24.2982778 C32.0907091,23.2102596 33.5871959,22.5364238 35.2324723,22.5364238 L35.2324723,22.5364238 Z" id="形状" stroke="#979797" stroke-width="2" fill-rule="nonzero"></path>
                <path d="M39,28 C39.6650528,28 40.2921977,28.1623036 40.8439856,28.4494619 L39.7102032,29.8646106 C39.6762031,29.9070747 39.6476959,29.9523305 39.6246437,29.9994713 C39.4288044,29.9377912 39.2183003,29.9044118 39,29.9044118 C37.8426386,29.9044118 36.9044118,30.8426386 36.9044118,32 C36.9044118,33.1573614 37.8426386,34.0955882 39,34.0955882 C40.1573614,34.0955882 41.0955882,33.1573614 41.0955882,32 C41.0955882,31.8210044 41.0731466,31.6472502 41.0309234,31.4813978 C41.0948291,31.4542251 41.1570762,31.4164819 41.2139857,31.3685217 L42.5815218,30.2168161 C42.8493436,30.7536958 43,31.3592541 43,32 C43,34.209139 41.209139,36 39,36 C36.790861,36 35,34.209139 35,32 C35,29.790861 36.790861,28 39,28 Z M39.0034467,30.6362592 C39.3442832,30.6362592 39.6559896,30.7609803 39.8954166,30.9672734 L40.0942368,31.1790759 C40.267721,31.4082681 40.3706342,31.6938391 40.3706342,32.0034467 C40.3706342,32.7585235 39.7585235,33.3706342 39.0034467,33.3706342 C38.2483699,33.3706342 37.6362592,32.7585235 37.6362592,32.0034467 C37.6362592,31.2483699 38.2483699,30.6362592 39.0034467,30.6362592 Z M39.712616,32.0054086 L39.7248366,31.9826875 L39.724,31.984 L39.725,31.982 L39.7187502,31.8930771 C39.6878709,31.6837069 39.567683,31.5034094 39.3981371,31.3921352 L39.3094359,31.3424349 L39.3643977,30.9959856 L39.3613977,30.9657313 C39.3472546,30.9300229 39.2971477,30.9150837 39.2663723,30.9478771 L39.2663723,30.9478771 L38.9588366,31.2756875 L38.9014098,31.2800702 C38.5467741,31.3281806 38.2734375,31.6321697 38.2734375,32 L38.2734375,32 L38.2738366,32.0156875 L38.274,32.013 L38.28,32.005 L38.2754376,32.0134414 L38.274,32.017 L38.281271,32.1070663 C38.3122334,32.31671 38.4327401,32.4971921 38.6026762,32.6083978 L38.6915777,32.6580419 L38.635476,33.0040144 L38.638476,33.0342687 C38.652619,33.0699771 38.702726,33.0849163 38.7335014,33.0521229 L38.7335014,33.0521229 L39.0398366,32.7236875 L39.0985902,32.7199298 C39.4532259,32.6718194 39.7265625,32.3678303 39.7265625,32 L39.7265625,32 L39.724,31.986 L39.712616,32.0054086 L39.712616,32.0054086 Z" id="形状结合" fill="#CCCCCC"></path>
                <rect id="矩形" fill="#D8D8D8" x="47" y="31" width="24" height="2" rx="1"></rect>
                <rect id="矩形备份-2" fill="#D8D8D8" x="35" y="41" width="36" height="2" rx="1"></rect>
                <path d="M89.0295203,58.5147502 C88.1826568,58.5147502 87.5350554,57.8651415 87.5350554,57.0156532 L87.5350554,19.53823 C87.5350554,14.8410596 83.7490775,11.0433474 79.0664207,11.0433474 L34.2324723,11.0433474 C33.3856089,11.0433474 32.7380074,10.3937387 32.7380074,9.54425045 C32.7380074,8.69476219 33.3856089,8.04515352 34.2324723,8.04515352 L79.0664207,8.04515352 C85.3929889,8.04515352 90.5239852,13.192053 90.5239852,19.53823 L90.5239852,57.0156532 C90.5239852,57.8651415 89.8763838,58.5147502 89.0295203,58.5147502 L89.0295203,58.5147502 Z M90.9225092,8.34497291 C90.9225092,9.19446117 91.5701107,9.84406984 92.4169742,9.84406984 C93.2638376,9.84406984 93.9114391,9.19446117 93.9114391,8.34497291 C93.9114391,7.49548465 93.2638376,6.84587598 92.4169742,6.84587598 C91.5701107,6.84587598 90.9225092,7.54545455 90.9225092,8.34497291 Z M97,71.5568934 C94.9575646,72.1065623 94.5590406,72.5063215 94.0110701,74.5550873 C93.4630996,72.5063215 93.0645756,72.1065623 91.0221402,71.5568934 C93.0147601,71.0072246 93.4630996,70.5574955 94.0110701,68.5586996 C94.5092251,70.5574955 94.9575646,71.0072246 97,71.5568934 Z M92.7656827,3.59783263 C90.3247232,4.2474413 89.8265683,4.74714028 89.1789668,7.19566526 C88.5313653,4.74714028 88.0332103,4.2474413 85.5922509,3.59783263 C88.0332103,2.94822396 88.5313653,2.39855509 89.1789668,0 C89.7767528,2.44852498 90.3247232,2.94822396 92.7656827,3.59783263 Z M21.0313653,19.4882601 C19.5369004,19.8880193 19.2380074,20.1878387 18.8394834,21.6869356 C18.4409594,20.1878387 18.1420664,19.8880193 16.6476015,19.4882601 C18.1420664,19.0885009 18.4409594,18.7886815 18.8394834,17.2895846 C19.1881919,18.7886815 19.5369004,19.0885009 21.0313653,19.4882601 Z M27.4575646,11.7928958 C23.5719557,12.7922938 22.7749077,13.6417821 21.7287823,17.5394341 C20.7324723,13.6417821 19.8856089,12.8422637 16,11.7928958 C19.8856089,10.7934979 20.6826568,9.94400963 21.7287823,6.04635762 C22.7250923,9.89403974 23.5719557,10.743528 27.4575646,11.7928958 L27.4575646,11.7928958 Z" id="形状" fill="#CCCCCC" fill-rule="nonzero"></path>
                <path d="M34.2324723,77.0036123 C34.0332103,77.0036123 33.8339483,76.9536424 33.6346863,76.9036725 C33.0867159,76.653823 32.7380074,76.1041541 32.7380074,75.5045154 L32.7380074,67.9090909 C27.1088561,67.1595424 22.7749077,62.3624323 22.7749077,56.5159542 L22.7749077,27.5334136 C22.7749077,21.1872366 27.9059041,16.0403371 34.2324723,16.0403371 L71.095941,16.0403371 C77.4225092,16.0403371 82.5535055,21.1872366 82.5535055,27.5334136 L82.5535055,56.5159542 C82.5535055,62.8621312 77.4225092,68.0090307 71.095941,68.0090307 L44.295203,68.0090307 L35.2785978,76.6038531 C34.9797048,76.8537026 34.6309963,77.0036123 34.2324723,77.0036123 L34.2324723,77.0036123 Z M34.2324723,19.038531 C29.5498155,19.038531 25.7638376,22.8362432 25.7638376,27.5334136 L25.7638376,56.5159542 C25.7638376,61.2131246 29.5498155,65.0108368 34.2324723,65.0108368 C35.0793358,65.0108368 35.7269373,65.6604455 35.7269373,66.5099338 L35.7269373,72.0066225 L42.6512915,65.410596 C42.9501845,65.1607465 43.298893,65.0108368 43.697417,65.0108368 L71.095941,65.0108368 C75.7785978,65.0108368 79.5645756,61.2131246 79.5645756,56.5159542 L79.5645756,27.5334136 C79.5645756,22.8362432 75.7785978,19.038531 71.095941,19.038531 L34.2324723,19.038531 Z" id="形状" fill="#666666" fill-rule="nonzero"></path>
                <path d="M89.8055556,89.0700637 C90.6186414,89.0700637 91.2777778,89.7259523 91.2777778,90.5350318 C91.2777778,91.3441114 90.6186414,92 89.8055556,92 L30.9166667,92 C30.1035808,92 29.4444444,91.3441114 29.4444444,90.5350318 C29.4444444,89.7259523 30.1035808,89.0700637 30.9166667,89.0700637 L89.8055556,89.0700637 Z M25.0277778,89.0700637 C25.8408637,89.0700637 26.5,89.7259523 26.5,90.5350318 C26.5,91.3441114 25.8408637,92 25.0277778,92 L16.1944444,92 C15.3813586,92 14.7222222,91.3441114 14.7222222,90.5350318 C14.7222222,89.7259523 15.3813586,89.0700637 16.1944444,89.0700637 L25.0277778,89.0700637 Z M104.527778,83.2101911 C105.340864,83.2101911 106,83.8660797 106,84.6751592 C106,85.4842388 105.340864,86.1401274 104.527778,86.1401274 L101.583333,86.1401274 C100.770247,86.1401274 100.111111,85.4842388 100.111111,84.6751592 C100.111111,83.8660797 100.770247,83.2101911 101.583333,83.2101911 L104.527778,83.2101911 Z M95.6944444,83.2101911 C96.5075303,83.2101911 97.1666667,83.8660797 97.1666667,84.6751592 C97.1666667,85.4842388 96.5075303,86.1401274 95.6944444,86.1401274 L1.47222222,86.1401274 C0.659136341,86.1401274 0,85.4842388 0,84.6751592 C0,83.8660797 0.659136341,83.2101911 1.47222222,83.2101911 L95.6944444,83.2101911 Z" id="形状结合" fill="#CCCCCC" fill-rule="nonzero"></path>
            </g>
        </g>
    </g>
</svg>