<?xml version="1.0" standalone="no"?><!DOCTYPE svg PUBLIC "-//W3C//DTD SVG 1.1//EN" "http://www.w3.org/Graphics/SVG/1.1/DTD/svg11.dtd"><svg class="icon" width="200px" height="200.00px" viewBox="0 0 1024 1024" version="1.1" xmlns="http://www.w3.org/2000/svg"><path d="M427.691819 0C191.49238 0 0.006997 191.45125 0.006997 427.582423c0 236.131173 191.485383 427.582423 427.684822 427.582423 236.165306 0 427.616556-191.45125 427.616556-427.582423C855.308375 191.45125 663.822992 0 427.691819 0z m0 68.333999c99.190111 0 189.027817 40.208517 254.050928 105.231629a358.087906 358.087906 0 0 1 105.231628 254.016795c0 99.190111-40.208517 188.993684-105.231628 254.016795a358.224438 358.224438 0 0 1-254.085061 105.231629 358.224438 358.224438 0 0 1-254.085061-105.231629 358.087906 358.087906 0 0 1-105.231628-254.016795c0-99.224244 40.208517-189.027817 105.231628-254.016795a358.224438 358.224438 0 0 1 254.085061-105.231629z m320.50762 679.926708c13.380084-13.311818 35.020321-13.311818 48.332139 0l217.426362 217.426362a34.167 34.167 0 0 1-48.33214 48.298007l-217.426361-217.426362a34.132867 34.132867 0 0 1 0-48.298007z" fill="#3D3D3D" /></svg>