<?xml version="1.0" encoding="UTF-8"?>
<svg width="20px" height="20px" viewBox="0 0 20 20" version="1.1" xmlns="http://www.w3.org/2000/svg" xmlns:xlink="http://www.w3.org/1999/xlink">
    <title>编组</title>
    <defs>
        <filter color-interpolation-filters="auto" id="filter-1">
            <feColorMatrix in="SourceGraphic" type="matrix" values="0 0 0 0 0.160784 0 0 0 0 0.062745 0 0 0 0 0.305882 0 0 0 1.000000 0"></feColorMatrix>
        </filter>
    </defs>
    <g id="steam账号管理" stroke="none" stroke-width="1" fill="none" fill-rule="evenodd">
        <g id="编组" transform="translate(-116.000000, -79.000000)" filter="url(#filter-1)">
            <g transform="translate(116.000000, 79.000000)">
                <path d="M14.1402386,1.25 C14.7552911,1.2511384 15.320966,1.56814059 15.6165782,2.07733552 L19.7863289,9.21549342 C20.0712237,9.7039181 20.0712237,10.2960819 19.7863289,10.7845066 L15.6165782,17.9226645 C15.320966,18.4318594 14.7552911,18.7488616 14.1402386,18.75 L5.8597614,18.75 C5.24470887,18.7488616 4.67903406,18.4318594 4.38342183,17.9226645 L0.213671057,10.7845066 C-0.0712236855,10.2960819 -0.0712236855,9.7039181 0.213671057,9.21549342 L4.38342183,2.07733552 C4.67903406,1.5681406 5.24470888,1.25113841 5.8597614,1.25 L14.1402386,1.25 Z M14.137925,2.49999786 L5.86207504,2.49999786 C5.72111593,2.50025876 5.59555662,2.55487534 5.51463075,2.63930381 L5.46276189,2.70783139 L1.29341359,9.84529978 C1.24994956,9.91972822 1.2391466,10.0007304 1.2606836,10.0781549 L1.29301111,10.1540107 L5.46445351,17.2950734 C5.51988227,17.39055 5.6283355,17.4642097 5.7585289,17.4900204 L5.8597614,17.4999979 L14.137925,17.4999979 C14.2788841,17.4997412 14.4044434,17.4451247 14.4853693,17.3606962 L14.5372381,17.2921686 L18.7065864,10.1547002 C18.7500504,10.0802718 18.7608534,9.99926958 18.7393164,9.92184515 L18.7069889,9.84598928 L14.5355465,2.70492658 C14.4662606,2.58558086 14.3141239,2.50032399 14.137925,2.49999786 Z M10,5.625 C12.4161904,5.625 14.375,7.58372505 14.375,10 C14.375,12.4162749 12.4161904,14.375 10,14.375 C7.58365016,14.375 5.625,12.4163498 5.625,10 C5.625,7.58365015 7.58365015,5.625 10,5.625 Z M10,6.875 C8.27400609,6.875 6.875,8.27400608 6.875,10 C6.875,11.7259939 8.2740061,13.125 10,13.125 C11.7258465,13.125 13.125,11.7259069 13.125,10 C13.125,8.27409306 11.7258465,6.875 10,6.875 Z" id="形状结合" fill="#979797" fill-rule="nonzero"></path>
            </g>
        </g>
    </g>
</svg>