<?xml version="1.0" encoding="UTF-8"?>
<svg width="106px" height="93px" viewBox="0 0 106 93" version="1.1" xmlns="http://www.w3.org/2000/svg" xmlns:xlink="http://www.w3.org/1999/xlink">
    <title>缺省页_暂无数据</title>
    <g id="steam账号管理" stroke="none" stroke-width="1" fill="none" fill-rule="evenodd">
        <g id="缺省页" transform="translate(-183.000000, -180.000000)">
            <g id="缺省页_暂无数据" transform="translate(183.000000, 180.426752)">
                <path d="M12.9350725,28.5687898 C12.9350725,29.4404459 13.6090942,30.1070064 14.4905072,30.1070064 C15.3719203,30.1070064 16.045942,29.4404459 16.045942,28.5687898 C16.045942,27.6971338 15.3719203,27.0305732 14.4905072,27.0305732 C13.660942,27.0305732 12.9350725,27.7484076 12.9350725,28.5687898 Z M94.9583333,74.1512739 C92.9881159,74.6640127 92.5733333,75.0742038 92.1067029,76.9713376 C91.5882246,75.0229299 91.173442,74.6127389 89.2550725,74.1512739 C91.173442,73.638535 91.6400725,73.2283439 92.1067029,71.3312102 C92.5733333,73.2283439 92.9881159,73.6898089 94.9583333,74.1512739 Z M21.5936594,23.1850318 C19.0531159,23.8515924 18.5346377,24.3643312 17.8606159,26.8767516 C17.1865942,24.3643312 16.6681159,23.8515924 14.1275725,23.1850318 C16.6681159,22.5184713 17.1865942,21.9544586 17.8606159,19.4933121 C18.4827899,22.0057325 19.0531159,22.5184713 21.5936594,23.1850318 Z M17.8110507,76.3659236 C16.2556159,76.7761146 15.944529,77.083758 15.5297464,78.6219745 C15.1149638,77.083758 14.8038768,76.7761146 13.248442,76.3659236 C14.8038768,75.9557325 15.1149638,75.6480892 15.5297464,74.1098726 C15.8926812,75.6480892 16.2556159,75.9557325 17.8110507,76.3659236 Z M13.5744203,72.4933121 C10.8613768,73.1889643 10.3048551,73.7802686 9.57442029,76.4933121 C8.87876812,73.7802686 8.28746377,73.2237469 5.57442029,72.4933121 C8.28746377,71.7976599 8.84398551,71.2063556 9.57442029,68.4933121 C10.2700725,71.171573 10.8613768,71.7628773 13.5744203,72.4933121 Z" id="形状" fill="#CCCCCC" fill-rule="nonzero"></path>
                <polygon id="路径" fill="#CCCCCC" fill-rule="nonzero" points="76.6289855 4.25573248 76.6289855 4.66592357 80.050942 7.79363057 93.168442 1.48694268 81.2952899 9.02420382 81.2952899 12.7159236 83.2136594 10.8700637 83.2136594 10.8187898 83.2136594 10.8700637 85.132029 12.7159236 95.2942029 0.410191083 95.2942029 0"></polygon>
                <path d="M50.3805147,32.081051 C60.0930086,29.0046178 66.6368713,19.2845254 64.1720276,17.8636003 C61.7071838,16.4426752 56.8078962,19.4076167 58,21.2963243 C59.1921038,23.1850318 64.0335083,25.3673768 67.6752319,23.1850318 C70.1030477,21.7301352 73.5928858,17.952959 78.1447464,11.8535032" id="路径-3" stroke="#CCCCCC" stroke-width="0.5" stroke-dasharray="2,1"></path>
                <path d="M88.2181159,46.1044586 L88.2181159,46.0019108 C88.2181159,45.8993631 88.1662681,45.8480892 88.1662681,45.7455414 L88.1662681,45.6942675 L77.0189855,16.9296178 C75.4117029,12.0585987 70.8490942,8.77707006 65.6643116,8.77707006 L40.3107246,8.77707006 C35.125942,8.77707006 30.5633333,12.0585987 28.9560507,16.9296178 L17.8087681,45.6942675 L17.8087681,45.7455414 C17.7569203,45.8480892 17.7569203,45.8993631 17.7569203,46.0019108 L17.7569203,66.7165605 C17.7569203,73.2283439 23.0972464,78.5095541 29.6819203,78.5095541 L76.3449638,78.5095541 C82.9296377,78.5095541 88.2699638,73.2283439 88.2699638,66.7165605 L88.2699638,46.2070064 C88.2181159,46.1557325 88.2181159,46.1557325 88.2181159,46.1044586 L88.2181159,46.1044586 Z M31.859529,18.0063694 C31.859529,18.0063694 31.859529,17.9550955 31.9113768,17.9550955 C33.052029,14.2633758 36.4739855,11.8535032 40.3107246,11.8535032 L65.6124638,11.8535032 C69.4492029,11.8535032 72.8711594,14.2633758 74.0636594,17.9038217 C74.0636594,17.9038217 74.0636594,17.9550955 74.1155072,17.9550955 L84.4332246,44.6175159 L60.7387681,44.6175159 C59.8573551,44.6175159 59.1833333,45.2840764 59.1833333,46.1557325 C59.1833333,49.5398089 56.3835507,52.3085987 52.9615942,52.3085987 C49.5396377,52.3085987 46.7398551,49.5398089 46.7398551,46.1557325 C46.7398551,45.2840764 46.0658333,44.6175159 45.1844203,44.6175159 L21.5418116,44.6175159 L31.859529,18.0063694 Z M85.1072464,66.7165605 C85.1072464,71.5363057 81.1668116,75.433121 76.2931159,75.433121 L29.6300725,75.433121 C24.7563768,75.433121 20.815942,71.5363057 20.815942,66.7165605 L20.815942,47.7452229 L43.784529,47.7452229 C44.5103986,52.1035032 48.3471377,55.4363057 52.9615942,55.4363057 C57.5760507,55.4363057 61.4127899,52.1035032 62.1386594,47.7452229 L85.1072464,47.7452229 L85.1072464,66.7165605 Z" id="形状" fill="#666666" fill-rule="nonzero"></path>
                <path d="M53,60.5732484 C53.8312531,60.5732484 54.6151284,60.7760972 55.3048254,61.1349943 L53.8877539,62.9040116 C53.8450619,62.9573316 53.8092981,63.0141727 53.7804146,63.0733863 C53.5357767,62.9954511 53.2727567,62.9537631 53,62.9537631 C51.5532982,62.9537631 50.3805147,64.1265466 50.3805147,65.5732484 C50.3805147,67.0199502 51.5532982,68.1927337 53,68.1927337 C54.4467018,68.1927337 55.6194853,67.0199502 55.6194853,65.5732484 C55.6194853,65.3488605 55.5912717,65.1310623 55.5381984,64.9232076 C55.6196027,64.8903824 55.6968329,64.8434398 55.7674821,64.7839005 L57.4768496,63.3441631 C57.8116598,64.0152889 58,64.772274 58,65.5732484 C58,68.3346722 55.7614237,70.5732484 53,70.5732484 C50.2385763,70.5732484 48,68.3346722 48,65.5732484 C48,62.8118247 50.2385763,60.5732484 53,60.5732484 Z M53.0043084,63.8685724 C53.4291573,63.8685724 53.8177979,64.0235992 54.1167468,64.2801697 L54.3665715,64.5454776 C54.5841669,64.8322409 54.7132927,65.1898194 54.7132927,65.5775568 C54.7132927,66.5214028 53.9481544,67.2865411 53.0043084,67.2865411 C52.0604624,67.2865411 51.295324,66.5214028 51.295324,65.5775568 C51.295324,64.6337108 52.0604624,63.8685724 53.0043084,63.8685724 Z M53.4517471,64.2804126 C53.4340683,64.2357771 53.3714346,64.217103 53.3329653,64.2580948 L53.3329653,64.2580948 L52.9497957,64.6673578 L52.8940843,64.6711554 C52.4423998,64.7236179 52.0917969,65.1074893 52.0917969,65.5732484 L52.0917969,65.5732484 L52.091,65.5792484 L52.092,65.5892484 L52.0927957,65.5943578 L52.094,65.5912484 L52.093,65.5962484 L52.0995669,65.6925836 C52.1354455,65.9659461 52.2928948,66.2010343 52.5158498,66.3417834 L52.6152491,66.3961651 L52.544345,66.8282664 L52.548095,66.8660842 C52.5657738,66.9107197 52.6284075,66.9293938 52.6668768,66.888402 L52.6668768,66.888402 L53.049,66.4782484 L53.1059157,66.4753414 C53.5228553,66.4269145 53.8536661,66.0961037 53.902093,65.6791641 L53.9082031,65.5732484 L53.89077,65.5800092 C53.89755,65.5727846 53.902439,65.5648348 53.9056176,65.5565717 L53.906,65.5492484 L53.9004331,65.4539132 C53.8645545,65.1805507 53.7071052,64.9454625 53.4841502,64.8047134 L53.3847509,64.7503317 L53.4554971,64.3182304 Z" id="形状结合" fill="#CCCCCC"></path>
                <path d="M65.6124638,15.4135085 C66.9742601,15.4135085 68.2428055,15.8423925 69.280445,16.5906292 C70.3163084,17.3375851 71.1229945,18.4038054 71.5590377,19.6851899 L71.5590377,19.6851899 L79.6324006,41.1087845 L56.5831522,41.1087845 L56.5831522,45.2070064 C56.5831522,46.214343 56.1800874,47.112015 55.5258612,47.758999 C54.8757654,48.4018985 53.9742718,48.7998673 52.9615942,48.7998673 C51.9489167,48.7998673 51.047423,48.4018985 50.3973272,47.758999 C49.743101,47.112015 49.3400362,46.214343 49.3400362,45.2070064 L49.3400362,45.2070064 L49.3400362,41.1087845 L26.2917092,41.1087845 L34.3133727,19.7849219 C34.774469,18.4562997 35.5887908,17.372226 36.6191327,16.6159021 C37.6678557,15.8460856 38.9422682,15.4135085 40.3107246,15.4135085 L40.3107246,15.4135085 Z" id="路径" stroke="#979797" stroke-width="2.05833334" fill-rule="nonzero"></path>
                <path d="M89.8055556,89.6433121 C90.6186414,89.6433121 91.2777778,90.2992007 91.2777778,91.1082803 C91.2777778,91.9173598 90.6186414,92.5732484 89.8055556,92.5732484 L30.9166667,92.5732484 C30.1035808,92.5732484 29.4444444,91.9173598 29.4444444,91.1082803 C29.4444444,90.2992007 30.1035808,89.6433121 30.9166667,89.6433121 L89.8055556,89.6433121 Z M25.0277778,89.6433121 C25.8408637,89.6433121 26.5,90.2992007 26.5,91.1082803 C26.5,91.9173598 25.8408637,92.5732484 25.0277778,92.5732484 L16.1944444,92.5732484 C15.3813586,92.5732484 14.7222222,91.9173598 14.7222222,91.1082803 C14.7222222,90.2992007 15.3813586,89.6433121 16.1944444,89.6433121 L25.0277778,89.6433121 Z M104.527778,83.7834395 C105.340864,83.7834395 106,84.4393281 106,85.2484076 C106,86.0574872 105.340864,86.7133758 104.527778,86.7133758 L101.583333,86.7133758 C100.770247,86.7133758 100.111111,86.0574872 100.111111,85.2484076 C100.111111,84.4393281 100.770247,83.7834395 101.583333,83.7834395 L104.527778,83.7834395 Z M95.6944444,83.7834395 C96.5075303,83.7834395 97.1666667,84.4393281 97.1666667,85.2484076 C97.1666667,86.0574872 96.5075303,86.7133758 95.6944444,86.7133758 L1.47222222,86.7133758 C0.659136341,86.7133758 0,86.0574872 0,85.2484076 C0,84.4393281 0.659136341,83.7834395 1.47222222,83.7834395 L95.6944444,83.7834395 Z" id="形状结合" fill="#CCCCCC" fill-rule="nonzero"></path>
            </g>
        </g>
    </g>
</svg>