<?xml version="1.0" encoding="UTF-8"?>
<svg width="20px" height="20px" viewBox="0 0 20 20" version="1.1" xmlns="http://www.w3.org/2000/svg" xmlns:xlink="http://www.w3.org/1999/xlink">
    <title>账号管理</title>
    <g id="检视图" stroke="none" stroke-width="1" fill="none" fill-rule="evenodd">
        <g id="账号管理" transform="translate(-325, -166)" fill="#352251" fill-rule="nonzero">
            <g id="编组-3" transform="translate(290, 135)">
                <g id="编组-5" transform="translate(20, 20)">
                    <g id="账号管理" transform="translate(15, 11)">
                        <path d="M16.6666667,12.9100304 C17.0348565,12.9100304 17.3333333,13.2085073 17.3333333,13.5766971 L17.3273077,13.6591654 C17.5891557,13.7259048 17.8355166,13.8313948 18.0599236,13.9691684 C18.1640577,13.7372716 18.3966101,13.5766971 18.6666667,13.5766971 C19.0348565,13.5766971 19.3333333,13.8751739 19.3333333,14.2433638 C19.3333333,14.5137708 19.1723418,14.7465763 18.9409791,14.8511597 C19.0789538,15.0752601 19.1842208,15.321259 19.2508584,15.5826967 L19.3333333,15.5766971 C19.7015232,15.5766971 20,15.8751739 20,16.2433638 C20,16.6115536 19.7015232,16.9100304 19.3333333,16.9100304 L19.250865,16.9040048 C19.184227,17.1654552 19.0789559,17.4114656 18.9414894,17.6355983 C19.1723418,17.7401513 19.3333333,17.9729567 19.3333333,18.2433638 C19.3333333,18.6115536 19.0348565,18.9100304 18.6666667,18.9100304 C18.3962596,18.9100304 18.1634542,18.7490389 18.0588707,18.5176762 C17.8347685,18.655653 17.5887581,18.7609241 17.3273077,18.8275621 C17.3315995,18.854311 17.3333333,18.8819682 17.3333333,18.9100304 C17.3333333,19.2782203 17.0348565,19.5766971 16.6666667,19.5766971 C16.2984768,19.5766971 16,19.2782203 16,18.9100304 L16.0059996,18.8275555 C15.7445619,18.7609179 15.498563,18.6556509 15.2744398,18.5181912 C15.1698792,18.7490389 14.9370737,18.9100304 14.6666667,18.9100304 C14.2984768,18.9100304 14,18.6115536 14,18.2433638 C14,17.9733072 14.1605745,17.7407548 14.391455,17.6359751 C14.2546977,17.4122137 14.1492077,17.1658528 14.0824683,16.9040048 L14,16.9100304 C13.6318102,16.9100304 13.3333333,16.6115536 13.3333333,16.2433638 C13.3333333,15.8751739 13.6318102,15.5766971 14,15.5766971 L14.082475,15.5826967 C14.1492131,15.3208644 14.2546974,15.0745176 14.3924619,14.8501222 C14.1605745,14.7459728 14,14.5134204 14,14.2433638 C14,13.8751739 14.2984768,13.5766971 14.6666667,13.5766971 C14.9367233,13.5766971 15.1692757,13.7372716 15.2740554,13.9681521 C15.4978205,13.8313945 15.7441673,13.7259102 16.0059996,13.6591721 C16.0017338,13.6324166 16,13.6047593 16,13.5766971 C16,13.2085073 16.2984768,12.9100304 16.6666667,12.9100304 Z M9.33343912,1.77635684e-15 C11.910768,1.77635684e-15 14.0001058,2.08933783 14.0001058,4.66666667 C14.0001058,6.20568238 13.2551078,7.57069449 12.106073,8.4207417 C13.8334422,8.95542275 15.3749231,9.98759679 16.5406716,11.4027817 C16.7747687,11.6869688 16.7341627,12.1071211 16.4499756,12.3412182 C16.1657885,12.5753153 15.7456362,12.5347093 15.5115391,12.2505223 C14.0003587,10.415993 11.7561415,9.33333333 9.3334352,9.33333333 C4.91513535,9.33333333 1.33333333,12.9150772 1.33333333,17.3333333 L1.34134601,18.3912501 L1.34813898,18.7001941 C1.36406632,19.0680392 1.07878056,19.3791483 0.71093538,19.3950757 C0.343090205,19.411003 0.0319811072,19.1257173 0.0160537617,18.7578721 L0.00607727096,18.2528811 L0.00048435229,17.5521228 L1.77635684e-15,17.3333333 C1.77635684e-15,13.144039 2.76014845,9.59937635 6.5610983,8.41863777 C5.41177047,7.57069449 4.66677246,6.20568238 4.66677246,4.66666667 C4.66677246,2.08933783 6.75611029,1.77635684e-15 9.33343912,1.77635684e-15 Z M16.6666667,14.9100304 C15.930287,14.9100304 15.3333333,15.5069841 15.3333333,16.2433638 C15.3333333,16.9797434 15.930287,17.5766971 16.6666667,17.5766971 C17.4030463,17.5766971 18,16.9797434 18,16.2433638 C18,15.5069841 17.4030463,14.9100304 16.6666667,14.9100304 Z M16.6666667,15.5766971 C17.0348565,15.5766971 17.3333333,15.8751739 17.3333333,16.2433638 C17.3333333,16.6115536 17.0348565,16.9100304 16.6666667,16.9100304 C16.2984768,16.9100304 16,16.6115536 16,16.2433638 C16,15.8751739 16.2984768,15.5766971 16.6666667,15.5766971 Z M9.33343912,1.33333333 C7.49248996,1.33333333 6.00010579,2.8257175 6.00010579,4.66666667 C6.00010579,6.50761583 7.49248996,8 9.33343912,8 C11.1743883,8 12.6667725,6.50761583 12.6667725,4.66666667 C12.6667725,2.8257175 11.1743883,1.33333333 9.33343912,1.33333333 Z" id="形状结合"></path>
                    </g>
                </g>
            </g>
        </g>
    </g>
</svg>