<?xml version="1.0" encoding="UTF-8"?>
<svg width="17px" height="20px" viewBox="0 0 17 20" version="1.1" xmlns="http://www.w3.org/2000/svg" xmlns:xlink="http://www.w3.org/1999/xlink">
    <title>编组 11</title>
    <g id="APP" stroke="none" stroke-width="1" fill="none" fill-rule="evenodd">
        <g id="账号管理" transform="translate(-18, -563)">
            <g id="编组-8" transform="translate(0, 448)">
                <g id="编组-5" transform="translate(0, 100)">
                    <g id="编组-11" transform="translate(18, 15)">
                        <rect id="矩形" stroke="#29104E" stroke-width="1.57894737" x="0.789473684" y="7.10526316" width="15.4210526" height="12.1052632" rx="2.10526316"></rect>
                        <path d="M8.46052632,0.789473684 C9.43934707,0.789473684 10.3144923,1.16900961 10.9452787,1.78818651 C11.5755897,2.40689665 11.9605263,3.2637986 11.9605263,4.21052632 L11.9605263,7.02086485 L5.03947368,7.02086485 L5.03947368,4.21052632 C5.03947368,3.26582872 5.42238804,2.41056556 6.0414768,1.7914768 C6.66056556,1.17238804 7.51582872,0.789473684 8.46052632,0.789473684 Z" id="矩形" stroke="#29104E" stroke-width="1.57894737"></path>
                        <path d="M8.59464587,13.749918 C9.62155032,13.749918 10.4540209,12.9251793 10.4540209,11.9078127 C10.4540209,10.8904461 9.62155032,10.0657074 8.59464587,10.0657074 C7.56774141,10.0657074 6.73527087,10.8904461 6.73527087,11.9078127 C6.73527087,12.9251793 7.56774141,13.749918 8.59464587,13.749918 Z" id="椭圆形" fill="#29104E"></path>
                        <rect id="矩形" fill="#29104E" x="7.83067391" y="11.9323391" width="1.59375" height="4.66112029" rx="0.796875"></rect>
                    </g>
                </g>
            </g>
        </g>
    </g>
</svg>