<?xml version="1.0" encoding="UTF-8"?>
<svg width="16px" height="16px" viewBox="0 0 16 16" version="1.1" xmlns="http://www.w3.org/2000/svg" xmlns:xlink="http://www.w3.org/1999/xlink">
    <title>账号管理</title>
    <g id="检视图" stroke="none" stroke-width="1" fill="none" fill-rule="evenodd">
        <g id="新增账号违禁样式" transform="translate(-205, -83)" fill="#6F55AE" fill-rule="nonzero">
            <g id="编组-10备份-3" transform="translate(15, 76)">
                <g id="编组-9" transform="translate(190, 5)">
                    <g id="账号管理" transform="translate(0, 2)">
                        <path d="M13.3333333,10.3280243 C13.6278852,10.3280243 13.8666667,10.5668058 13.8666667,10.8613577 L13.8625992,10.9275244 C14.0718471,10.980939 14.268723,11.0652884 14.448068,11.175414 C14.5310964,10.9899207 14.7172011,10.8613577 14.9333333,10.8613577 C15.2278852,10.8613577 15.4666667,11.1001391 15.4666667,11.394691 C15.4666667,11.6109541 15.3379479,11.7971533 15.1529439,11.8808552 C15.2625111,12.0587227 15.3471069,12.2560763 15.4006108,12.4658598 L15.4666667,12.4613577 C15.7612185,12.4613577 16,12.7001391 16,12.994691 C16,13.2892429 15.7612185,13.5280243 15.4666667,13.5280243 L15.4004999,13.5239569 C15.3470854,13.7332048 15.262736,13.9300806 15.1526103,14.1094257 C15.3384089,14.1928962 15.4666667,14.3788155 15.4666667,14.594691 C15.4666667,14.8892429 15.2278852,15.1280243 14.9333333,15.1280243 C14.7174578,15.1280243 14.5315385,14.9997665 14.4476202,14.8152956 C14.268723,14.9240936 14.0718471,15.0084431 13.8625992,15.0618576 C13.8652079,15.0823202 13.8666667,15.1050019 13.8666667,15.1280243 C13.8666667,15.4225762 13.6278852,15.6613577 13.3333333,15.6613577 C13.0387815,15.6613577 12.8,15.4225762 12.8,15.1280243 L12.8045021,15.0619685 C12.5947186,15.0084646 12.3973651,14.9238687 12.2176385,14.8133781 C12.1357956,14.9993056 11.9495964,15.1280243 11.7333333,15.1280243 C11.4387815,15.1280243 11.2,14.8892429 11.2,14.594691 C11.2,14.3785588 11.328563,14.1924541 11.513387,14.1086789 C11.4039307,13.9300806 11.3195813,13.7332048 11.2661667,13.5239569 L11.2,13.5280243 C10.9054481,13.5280243 10.6666667,13.2892429 10.6666667,12.994691 C10.6666667,12.7001391 10.9054481,12.4613577 11.2,12.4613577 L11.2660558,12.4658598 C11.3195597,12.2560763 11.4041556,12.0587227 11.5146463,11.8789962 C11.3290185,11.7975866 11.2,11.6112058 11.2,11.394691 C11.2,11.1001391 11.4387815,10.8613577 11.7333333,10.8613577 C11.9498481,10.8613577 12.1362289,10.9903762 12.2197893,11.1757266 C12.3973651,11.0655133 12.5947186,10.9809174 12.8045021,10.9274135 C12.8014493,10.9069145 12.8,10.8843053 12.8,10.8613577 C12.8,10.5668058 13.0387815,10.3280243 13.3333333,10.3280243 Z M7.4667513,0 C9.52861436,0 11.2000846,1.67147027 11.2000846,3.73333333 C11.2000846,4.96446958 10.6041601,6.0564202 9.68502938,6.73646689 C11.0671201,7.16458349 12.300077,7.99024558 13.2325373,9.12222535 C13.419815,9.34957502 13.3873302,9.6856969 13.1599805,9.87297458 C12.9326308,10.0602523 12.596509,10.0277675 12.4092313,9.8004178 C11.200287,8.33279442 9.40491319,7.46666667 7.46674816,7.46666667 C3.93210828,7.46666667 1.06666667,10.3320618 1.06666667,13.8666667 L1.07307681,14.7130001 L1.07851118,14.9601552 C1.09125306,15.2544314 0.863024444,15.5033187 0.568748304,15.5160605 C0.274472164,15.5288024 0.0255848857,15.3005738 0.0128430093,15.0062977 L0.00486181677,14.6023049 L0.000387481832,14.0416982 L0,13.8666667 C0,10.5151395 2.20823957,7.67934592 5.24912821,6.7348327 C4.32934248,6.0564202 3.73341796,4.96446958 3.73341796,3.73333333 C3.73341796,1.67147027 5.40488823,0 7.4667513,0 Z M13.3333333,11.9280243 C12.7442296,11.9280243 12.2666667,12.4055873 12.2666667,12.994691 C12.2666667,13.5837947 12.7442296,14.0613577 13.3333333,14.0613577 C13.9224371,14.0613577 14.4,13.5837947 14.4,12.994691 C14.4,12.4055873 13.9224371,11.9280243 13.3333333,11.9280243 Z M13.3333333,12.4613577 C13.6278852,12.4613577 13.8666667,12.7001391 13.8666667,12.994691 C13.8666667,13.2892429 13.6278852,13.5280243 13.3333333,13.5280243 C13.0387815,13.5280243 12.8,13.2892429 12.8,12.994691 C12.8,12.7001391 13.0387815,12.4613577 13.3333333,12.4613577 Z M7.4667513,1.06666667 C5.99399197,1.06666667 4.80008463,2.260574 4.80008463,3.73333333 C4.80008463,5.20609267 5.99399197,6.4 7.4667513,6.4 C8.93951063,6.4 10.133418,5.20609267 10.133418,3.73333333 C10.133418,2.260574 8.93951063,1.06666667 7.4667513,1.06666667 Z" id="形状结合"></path>
                    </g>
                </g>
            </g>
        </g>
    </g>
</svg>