<?xml version="1.0" encoding="UTF-8"?>
<svg width="20px" height="17.6666667px" viewBox="0 0 20 17.6666667" version="1.1" xmlns="http://www.w3.org/2000/svg" xmlns:xlink="http://www.w3.org/1999/xlink">
    <title>密码闭眼</title>
    <g id="1.0.1" stroke="none" stroke-width="1" fill="none" fill-rule="evenodd">
        <g id="再次输入" transform="translate(-796, -403.1667)" fill="#29104E" fill-rule="nonzero">
            <g id="编组-9备份" transform="translate(425, 244)">
                <g id="编组-11" transform="translate(30, 88)">
                    <g id="编组-7备份-3" transform="translate(14, 10)">
                        <g id="密码闭眼" transform="translate(327, 61.1667)">
                            <path d="M10.0019731,5 C14.3581864,5 17.9161859,7.25367736 19.9223569,11.0198941 C19.9758131,11.1202482 20.0007374,11.2278076 19.9999834,11.3336501 C20.0007374,11.438859 19.9758131,11.5464184 19.9223569,11.6467726 C17.9161859,15.4129893 14.3581864,17.6666667 10.0019731,17.6666667 C5.75440313,17.6666667 2.26579438,15.5239726 0.234730481,11.9260078 L0.0809990039,11.646 L0.106940507,11.6965339 C0.0603660331,11.6247366 0.0282500234,11.5449349 0.0120874171,11.4617923 L0.00887948844,11.4375813 C0.00491217861,11.4187976 0.00277507699,11.3996941 0.00148006746,11.3804964 L0.000476379118,11.3567539 L6.68851737e-07,11.333156 C7.0465944e-05,11.3178059 0.0007062996,11.3020679 0.00191748962,11.2863259 L0.00787403449,11.2289138 L0.0135604052,11.2040483 C0.0283826894,11.1217288 0.0600612946,11.0428628 0.105874689,10.9717811 L0.0809990039,11.019 L0.234730481,10.7406589 C2.26579438,7.14269411 5.75440313,5 10.0019731,5 Z M10.0019731,6.33742936 C6.28801864,6.33742936 3.26065909,8.18218459 1.45921221,11.3329596 C3.26072919,14.4845248 6.28806164,16.3292373 10.0019731,16.3292373 C13.7159929,16.3292373 16.7433911,14.4844644 18.5449152,11.3333828 C16.7433911,8.18220222 13.7159929,6.33742936 10.0019731,6.33742936 Z M10.0019731,7.32155664 C12.2612443,7.32155664 14.0927456,9.11791921 14.0927456,11.3338447 C14.0927456,13.5497703 12.2612443,15.3461328 10.0019731,15.3461328 C7.7427018,15.3461328 5.91120057,13.5497703 5.91120057,11.3338447 C5.91120057,9.11791921 7.7427018,7.32155664 10.0019731,7.32155664 Z M10.0019731,8.65898601 C8.49579222,8.65898601 7.2747914,9.85656105 7.2747914,11.3338447 C7.2747914,12.8111284 8.49579222,14.0087035 10.0019731,14.0087035 C11.5081539,14.0087035 12.7291547,12.8111284 12.7291547,11.3338447 C12.7291547,9.85656105 11.5081539,8.65898601 10.0019731,8.65898601 Z M0.666666667,3.66958172 C1.0348565,3.66958172 1.33333333,3.96805855 1.33333333,4.33624839 L1.33333333,6.33836842 C1.33333333,6.70655826 1.0348565,7.00503509 0.666666667,7.00503509 C0.298476833,7.00503509 1.95850156e-14,6.70655826 1.95399252e-14,6.33836842 L1.95399252e-14,4.33624839 C1.94948349e-14,3.96805855 0.298476833,3.66958172 0.666666667,3.66958172 Z M19.3333333,3.66958172 C19.7015232,3.66958172 20,3.96805855 20,4.33624839 L20,6.33836842 C20,6.70655826 19.7015232,7.00503509 19.3333333,7.00503509 C18.9651435,7.00503509 18.6666667,6.70655826 18.6666667,6.33836842 L18.6666667,4.33624839 C18.6666667,3.96805855 18.9651435,3.66958172 19.3333333,3.66958172 Z M14.6666667,1.00079501 C15.0348565,1.00079501 15.3333333,1.29927185 15.3333333,1.66746168 L15.3333333,3.66958172 C15.3333333,4.03777155 15.0348565,4.33624839 14.6666667,4.33624839 C14.2984768,4.33624839 14,4.03777155 14,3.66958172 L14,1.66746168 C14,1.29927185 14.2984768,1.00079501 14.6666667,1.00079501 Z M5.33333333,1.00079501 C5.70152317,1.00079501 6,1.29927185 6,1.66746168 L6,3.66958172 C6,4.03777155 5.70152317,4.33624839 5.33333333,4.33624839 C4.9651435,4.33624839 4.66666667,4.03777155 4.66666667,3.66958172 L4.66666667,1.66746168 C4.66666667,1.29927185 4.9651435,1.00079501 5.33333333,1.00079501 Z M10,-7.10542736e-15 C10.3681898,-7.17306273e-15 10.6666667,0.298476833 10.6666667,0.666666667 L10.6666667,2.6687867 C10.6666667,3.03697654 10.3681898,3.33545337 10,3.33545337 C9.63181017,3.33545337 9.33333333,3.03697654 9.33333333,2.6687867 L9.33333333,0.666666667 C9.33333333,0.298476833 9.63181017,-7.03779198e-15 10,-7.10542736e-15 Z" id="形状结合"></path>
                        </g>
                    </g>
                </g>
            </g>
        </g>
    </g>
</svg>