<?xml version="1.0" standalone="no"?><!DOCTYPE svg PUBLIC "-//W3C//DTD SVG 1.1//EN" "http://www.w3.org/Graphics/SVG/1.1/DTD/svg11.dtd"><svg class="icon" width="200px" height="200.00px" viewBox="0 0 1024 1024" version="1.1" xmlns="http://www.w3.org/2000/svg"><path d="M262.88185 16.558729l0.255979 0.460761 542.418166 955.464863a34.505884 34.505884 0 0 1-12.542941 46.844042 33.533166 33.533166 0 0 1-46.178498-12.389353l-116.777332-205.755414-121.53853 121.589726c-114.371136 114.371136-298.265997 115.907006-410.742892 3.43011-109.456351-109.405155-110.941025-286.490992-5.580329-401.374084l9.010439-9.368808 233.861839-233.913035-130.65136-230.073359A34.505884 34.505884 0 0 1 216.959331 4.630137a33.533166 33.533166 0 0 1 45.922519 11.928592z m106.896568 326.116443l-220.653355 220.653355c-87.442211 87.544602-88.619712 228.127923-2.610979 314.136655 83.244166 83.244166 217.581614 84.831232 305.484586 5.580329l8.600873-8.191308 134.747014-134.79821-95.070366-167.461049-227.871945 231.762816a33.584362 33.584362 0 0 1-47.509586 0.409565l-0.409565-0.409565a34.761863 34.761863 0 0 1 0-48.687086l240.722059-244.868909-95.428736-168.126593z m556.496976-244.920104c109.405155 109.405155 110.88983 286.490992 5.529133 401.374084l-9.010439 9.368808-191.727799 191.727799-34.710667-61.127635 178.519315-178.519315c87.442211-87.442211 88.619712-228.076728 2.610979-314.08546-83.244166-83.244166-217.581614-84.831232-305.484586-5.580328l-8.600873 8.191308-92.66417 92.66417-34.710667-61.127635 79.455686-79.455686c114.371136-114.371136 298.265997-115.907006 410.742892-3.43011zM799.054144 219.140011l0.409565 0.409565c13.310875 13.515658 13.310875 35.171428 0 48.687086l-198.895193 202.222912-35.069037-61.741983 186.045079-189.168015a33.584362 33.584362 0 0 1 47.509586-0.409565z" /></svg>