<?xml version="1.0" standalone="no"?><!DOCTYPE svg PUBLIC "-//W3C//DTD SVG 1.1//EN" "http://www.w3.org/Graphics/SVG/1.1/DTD/svg11.dtd"><svg class="icon" width="200px" height="200.00px" viewBox="0 0 1024 1024" version="1.1" xmlns="http://www.w3.org/2000/svg"><path d="M512 0c282.7776 0 512 229.2224 512 512s-229.2224 512-512 512S0 794.7776 0 512 229.2224 0 512 0z m0 68.2496a443.7504 443.7504 0 1 0 0 887.5008 443.7504 443.7504 0 0 0 0-887.5008z m-170.6496 256c0-25.9584 27.8016-42.3936 50.5856-29.9008l341.2992 187.7504c23.552 12.9536 23.552 46.848 0 59.8016l-341.2992 187.7504a34.1504 34.1504 0 0 1-50.5856-29.9008zM409.6 382.0032v259.9936L645.9904 512 409.6 381.952z" /></svg>