<?xml version="1.0" standalone="no"?><!DOCTYPE svg PUBLIC "-//W3C//DTD SVG 1.1//EN" "http://www.w3.org/Graphics/SVG/1.1/DTD/svg11.dtd"><svg class="icon" width="200px" height="199.42px" viewBox="0 0 1027 1024" version="1.1" xmlns="http://www.w3.org/2000/svg"><path d="M830.545636 0a193.428764 193.428764 0 0 1 193.275168 186.00495l0.153597 7.423814v286.456839h-68.247894V193.428764a125.18087 125.18087 0 0 0-118.525037-124.976075l-6.655834-0.204795H193.428764a125.18087 125.18087 0 0 0-124.976075 118.525037l-0.204795 6.655833v637.116872a125.18087 125.18087 0 0 0 118.525037 124.976076l6.655833 0.204795h294.955826V1023.974401H193.428764a193.428764 193.428764 0 0 1-193.275168-186.00495L0 830.545636V193.428764A193.428764 193.428764 0 0 1 186.00495 0.153596L193.428764 0h637.116872z"  /><path d="M170.645334 170.645334m34.149546 0l614.333442 0q34.149546 0 34.149546 34.149546l0-0.051199q0 34.149546-34.149546 34.149547l-614.333442 0q-34.149546 0-34.149546-34.149547l0 0.051199q0-34.149546 34.149546-34.149546Z"  /><path d="M170.645334 375.440214m34.149546 0l170.645334 0q34.149546 0 34.149546 34.149546l0-0.051198q0 34.149546-34.149546 34.149546l-170.645334 0q-34.149546 0-34.149546-34.149546l0 0.051198q0-34.149546 34.149546-34.149546Z"  /><path d="M170.645334 580.235094m34.149546 0l68.247894 0q34.149546 0 34.149546 34.149546l0-0.051198q0 34.149546-34.149546 34.149546l-68.247894 0q-34.149546 0-34.149546-34.149546l0 0.051198q0-34.149546 34.149546-34.149546Z"  /><path d="M733.831254 443.739307a290.143146 290.143146 0 1 1 0 580.235094 290.143146 290.143146 0 0 1 0-580.235094z m0 68.247893a221.844054 221.844054 0 1 0 0 443.739307 221.844054 221.844054 0 0 0 0-443.739307z"  /><path d="M733.831254 529.036374c18.892328 0 34.149546 15.308417 34.149546 34.149546v136.495788h102.397441A34.149546 34.149546 0 1 1 870.378241 767.9808h-136.546987a34.149546 34.149546 0 0 1-34.098347-34.149546V563.18592c0-18.841129 15.257219-34.149546 34.098347-34.149546z"  /></svg>