<?xml version="1.0" standalone="no"?><!DOCTYPE svg PUBLIC "-//W3C//DTD SVG 1.1//EN" "http://www.w3.org/Graphics/SVG/1.1/DTD/svg11.dtd"><svg class="icon" width="200px" height="200.00px" viewBox="0 0 1024 1024" version="1.1" xmlns="http://www.w3.org/2000/svg"><path d="M991.329963 596.411733a33.553067 33.553067 0 0 1 15.223466 63.419734 35.7376 35.7376 0 0 1-3.822933 3.1744l-304.913067 217.975466a34.133333 34.133333 0 0 1-47.274666-7.441066l-0.1024-0.136534a33.1776 33.1776 0 0 1 7.3728-46.762666l228.2496-163.157334H34.436096a33.553067 33.553067 0 1 1 0-67.072h956.893867zM375.223296 150.459733l0.1024 0.136534a33.1776 33.1776 0 0 1-7.3728 46.762666l-228.2496 163.157334h851.626667a33.553067 33.553067 0 0 1 0 67.072H34.436096a33.553067 33.553067 0 0 1-15.223467-63.419734 35.7376 35.7376 0 0 1 3.822934-3.1744L327.948629 143.018667a34.133333 34.133333 0 0 1 47.274667 7.441066z" fill="#3D3D3D" /></svg>