<?xml version="1.0" standalone="no"?><!DOCTYPE svg PUBLIC "-//W3C//DTD SVG 1.1//EN" "http://www.w3.org/Graphics/SVG/1.1/DTD/svg11.dtd"><svg t="1694077252197" class="icon" viewBox="0 0 1024 1024" version="1.1" xmlns="http://www.w3.org/2000/svg" p-id="7070" xmlns:xlink="http://www.w3.org/1999/xlink" width="200" height="200"><path d="M512 1024C228.693333 1024 0 795.306667 0 512S228.693333 0 512 0s512 228.693333 512 512-228.693333 512-512 512z m0-955.733333C266.24 68.266667 68.266667 266.24 68.266667 512s197.973333 443.733333 443.733333 443.733333 443.733333-197.973333 443.733333-443.733333S757.76 68.266667 512 68.266667z" fill="#999999" p-id="7071"></path><path d="M716.8 512h-170.666667V273.066667c0-17.066667-17.066667-34.133333-34.133333-34.133334s-34.133333 17.066667-34.133333 34.133334v273.066666c0 17.066667 17.066667 34.133333 34.133333 34.133334h204.8c17.066667 0 34.133333-17.066667 34.133333-34.133334s-17.066667-34.133333-34.133333-34.133333z" fill="#999999" p-id="7072"></path></svg>