<?xml version="1.0" encoding="UTF-8"?>
<svg width="16px" height="16px" viewBox="0 0 16 16" version="1.1" xmlns="http://www.w3.org/2000/svg" xmlns:xlink="http://www.w3.org/1999/xlink">
    <title>形状结合备份</title>
    <g id="steam账号管理" stroke="none" stroke-width="1" fill="none" fill-rule="evenodd">
        <g id="icon" transform="translate(-68.000000, -125.000000)" fill="#29104E" fill-rule="nonzero">
            <path d="M79.90625,127.53125 C80.3206508,127.53125 80.7180788,127.69587 81.0111043,127.988896 C81.3041299,128.281921 81.46875,128.679349 81.46875,129.09375 L81.46875,139.4375 C81.46875,140.300445 80.7691949,141 79.90625,141 L69.5625,141 C68.6995551,141 68,140.300445 68,139.4375 L68,129.09375 C68,128.230805 68.6995551,127.53125 69.5625,127.53125 L79.90625,127.53125 Z M79.90625,128.78125 L69.5625,128.78125 C69.389911,128.78125 69.25,128.921161 69.25,129.09375 L69.25,139.4375 C69.25,139.610089 69.389911,139.75 69.5625,139.75 L79.90625,139.75 C80.078839,139.75 80.21875,139.610089 80.21875,139.4375 L80.21875,129.09375 C80.21875,128.921161 80.078839,128.78125 79.90625,128.78125 Z M82.4375,125 C83.3004449,125 84,125.699555 84,126.5625 L84,136.90625 C84,137.320651 83.8353799,137.718079 83.5423543,138.011104 C83.2493288,138.30413 82.8519008,138.46875 82.4375,138.46875 C82.092322,138.46875 81.8125,138.188928 81.8125,137.84375 C81.8125,137.498572 82.092322,137.21875 82.4375,137.21875 C82.610089,137.21875 82.75,137.078839 82.75,136.90625 L82.75,126.5625 C82.75,126.389911 82.610089,126.25 82.4375,126.25 L72.09375,126.25 C71.921161,126.25 71.78125,126.389911 71.78125,126.5625 C71.78125,126.907678 71.501428,127.1875 71.15625,127.1875 C70.811072,127.1875 70.53125,126.907678 70.53125,126.5625 C70.53125,125.699555 71.2308051,125 72.09375,125 L82.4375,125 Z M74.734375,130.921875 C75.079553,130.921875 75.359375,131.201697 75.359375,131.546875 L75.359,133.64 L77.453125,133.640625 C77.798303,133.640625 78.078125,133.920447 78.078125,134.265625 C78.078125,134.610803 77.798303,134.890625 77.453125,134.890625 L75.359,134.89 L75.359375,136.984375 C75.359375,137.329553 75.079553,137.609375 74.734375,137.609375 C74.389197,137.609375 74.109375,137.329553 74.109375,136.984375 L74.109,134.89 L72.015625,134.890625 C71.670447,134.890625 71.390625,134.610803 71.390625,134.265625 C71.390625,133.920447 71.670447,133.640625 72.015625,133.640625 L74.109,133.64 L74.109375,131.546875 C74.109375,131.201697 74.389197,130.921875 74.734375,130.921875 Z" id="形状结合备份"></path>
        </g>
    </g>
</svg>