<?xml version="1.0" encoding="UTF-8"?>
<svg width="106px" height="90px" viewBox="0 0 106 90" version="1.1" xmlns="http://www.w3.org/2000/svg" xmlns:xlink="http://www.w3.org/1999/xlink">
    <title>缺省页_暂无记录</title>
    <g id="steam账号管理" stroke="none" stroke-width="1" fill="none" fill-rule="evenodd">
        <g id="缺省页" transform="translate(-452.000000, -427.000000)">
            <g id="缺省页_暂无记录" transform="translate(452.000000, 427.000000)">
                <path d="M74.8676022,15.3372781 L32.0366077,15.3372781 C29.419158,15.3372781 27.2776083,17.4940828 27.2776083,20.1301775 L27.2776083,63.2662722 C27.2776083,65.9023669 29.419158,68.0591716 32.0366077,68.0591716 L56.6882245,68.0591716 C55.5460647,65.7585799 54.8798048,63.1224852 54.8798048,60.3905325 C54.8798048,50.8526627 62.5417938,43.1360947 72.0122026,43.1360947 C74.7724222,43.1360947 77.3422819,43.7591716 79.6266016,44.9573964 L79.6266016,20.1301775 C79.6266016,17.4940828 77.4850519,15.3372781 74.8676022,15.3372781 Z" id="路径" stroke="#979797" stroke-width="2" fill-rule="nonzero"></path>
                <path d="M35,19 C35.6650528,19 36.2921977,19.1623036 36.8439856,19.4494619 L35.7102032,20.8646106 C35.6762031,20.9070747 35.6476959,20.9523305 35.6246437,20.9994713 C35.4288044,20.9377912 35.2183003,20.9044118 35,20.9044118 C33.8426386,20.9044118 32.9044118,21.8426386 32.9044118,23 C32.9044118,24.1573614 33.8426386,25.0955882 35,25.0955882 C36.1573614,25.0955882 37.0955882,24.1573614 37.0955882,23 C37.0955882,22.8210044 37.0731466,22.6472502 37.0309234,22.4813978 C37.0948291,22.4542251 37.1570762,22.4164819 37.2139857,22.3685217 L38.5815218,21.2168161 C38.8493436,21.7536958 39,22.3592541 39,23 C39,25.209139 37.209139,27 35,27 C32.790861,27 31,25.209139 31,23 C31,20.790861 32.790861,19 35,19 Z M35.0034467,21.6362592 C35.3442832,21.6362592 35.6559896,21.7609803 35.8954166,21.9672734 L36.0942368,22.1790759 C36.267721,22.4082681 36.3706342,22.6938391 36.3706342,23.0034467 C36.3706342,23.7585235 35.7585235,24.3706342 35.0034467,24.3706342 C34.2483699,24.3706342 33.6362592,23.7585235 33.6362592,23.0034467 C33.6362592,22.2483699 34.2483699,21.6362592 35.0034467,21.6362592 Z M35.712616,23.0054086 L35.7248366,22.9826875 L35.724,22.984 L35.725,22.982 L35.7187502,22.8930771 C35.6878709,22.6837069 35.567683,22.5034094 35.3981371,22.3921352 L35.3094359,22.3424349 L35.3643977,21.9959856 L35.3613977,21.9657313 C35.3472546,21.9300229 35.2971477,21.9150837 35.2663723,21.9478771 L35.2663723,21.9478771 L34.9588366,22.2756875 L34.9014098,22.2800702 C34.5467741,22.3281806 34.2734375,22.6321697 34.2734375,23 L34.2734375,23 L34.2738366,23.0156875 L34.274,23.013 L34.28,23.005 L34.2754376,23.0134414 L34.274,23.017 L34.281271,23.1070663 C34.3122334,23.31671 34.4327401,23.4971921 34.6026762,23.6083978 L34.6915777,23.6580419 L34.635476,24.0040144 L34.638476,24.0342687 C34.652619,24.0699771 34.702726,24.0849163 34.7335014,24.0521229 L34.7335014,24.0521229 L35.0398366,23.7236875 L35.0985902,23.7199298 C35.4532259,23.6718194 35.7265625,23.3678303 35.7265625,23 L35.7265625,23 L35.724,22.986 L35.712616,23.0054086 L35.712616,23.0054086 Z" id="形状结合" fill="#CCCCCC"></path>
                <path d="M44,22 L75,22 C75.5522847,22 76,22.4477153 76,23 C76,23.5522847 75.5522847,24 75,24 L44,24 C43.4477153,24 43,23.5522847 43,23 C43,22.4477153 43.4477153,22 44,22 Z" id="矩形" fill="#D8D8D8"></path>
                <path d="M32,42 L52,42 C52.5522847,42 53,42.4477153 53,43 C53,43.5522847 52.5522847,44 52,44 L32,44 C31.4477153,44 31,43.5522847 31,43 C31,42.4477153 31.4477153,42 32,42 Z" id="矩形备份-3" fill="#D8D8D8"></path>
                <path d="M32,32 L75,32 C75.5522847,32 76,32.4477153 76,33 C76,33.5522847 75.5522847,34 75,34 L32,34 C31.4477153,34 31,33.5522847 31,33 C31,32.4477153 31.4477153,32 32,32 Z" id="矩形备份-2" fill="#D8D8D8"></path>
                <path d="M88.0976205,64.0331361 C88.0976205,64.847929 88.7162904,65.4710059 89.5253203,65.4710059 C90.3343502,65.4710059 90.9530201,64.847929 90.9530201,64.0331361 C90.9530201,63.2183432 90.3343502,62.5952663 89.5253203,62.5952663 C88.7162904,62.5952663 88.0976205,63.2662722 88.0976205,64.0331361 Z M92,70.2159763 C90.1915802,70.6952663 89.8108603,71.0786982 89.3825503,72.852071 C88.9066504,71.0307692 88.5259304,70.6473373 86.7651007,70.2159763 C88.5259304,69.7366864 88.9542404,69.3532544 89.3825503,67.5798817 C89.8108603,69.3532544 90.1915802,69.7846154 92,70.2159763 Z M20.8529591,11.5508876 C18.5210494,12.1739645 18.0451495,12.6532544 17.4264796,15.0017751 C16.8078096,12.6532544 16.3319097,12.1739645 14,11.5508876 C16.3319097,10.9278107 16.8078096,10.4005917 17.4264796,8.1 C17.9975595,10.4485207 18.5210494,10.9278107 20.8529591,11.5508876 Z M90.3343502,11.4550296 C88.9066504,11.8384615 88.6211104,12.1260355 88.2403905,13.5639053 C87.8596705,12.1260355 87.5741306,11.8384615 86.1464308,11.4550296 C87.5741306,11.0715976 87.8596705,10.7840237 88.2403905,9.34615385 C88.5735204,10.7840237 88.9066504,11.0715976 90.3343502,11.4550296 Z M89.3349603,5.51183432 C85.6229408,6.4704142 84.8615009,7.2852071 83.862111,11.0236686 C82.9103112,7.2852071 82.1012813,6.5183432 78.3892617,5.51183432 C82.1012813,4.55325444 82.8627212,3.73846154 83.862111,0 C84.8139109,3.69053254 85.6229408,4.50532544 89.3349603,5.51183432 Z" id="形状" fill="#CCCCCC" fill-rule="nonzero"></path>
                <path d="M72.0122026,46.4911243 C79.6266016,46.4911243 85.8133008,52.7218935 85.8133008,60.3905325 C85.8133008,68.0591716 79.6266016,74.2899408 72.0122026,74.2899408 C64.3978035,74.2899408 58.2111043,68.0591716 58.2111043,60.3905325 C58.2111043,52.7218935 64.3978035,46.4911243 72.0122026,46.4911243 Z M72.0122026,49.3668639 C65.9682733,49.3668639 61.066504,54.3035503 61.066504,60.3905325 C61.066504,66.4775148 65.9682733,71.4142012 72.0122026,71.4142012 C78.0561318,71.4142012 82.9579012,66.4775148 82.9579012,60.3905325 C82.9579012,54.3035503 78.0561318,49.3668639 72.0122026,49.3668639 Z" id="形状结合" fill="#666666" fill-rule="nonzero"></path>
                <path d="M66.9123313,63.0619675 C66.1033014,63.0619675 65.4846315,62.4388906 65.4846315,61.6240977 L65.4516858,55.9329979 C65.4516858,55.118205 66.0703557,54.495128 66.8793856,54.495128 C67.6884155,54.495128 68.3070854,55.118205 68.3070854,55.9329979 L68.3400311,60.1862279 L77.3913812,60.2979866 C78.2004111,60.2979866 78.819081,60.9210635 78.819081,61.7358564 C78.819081,62.5506493 78.2004111,63.1737262 77.3913812,63.1737262 L66.9123313,63.0619675 Z" id="路径" fill="#979797" fill-rule="nonzero" transform="translate(72.135383, 58.834427) rotate(-42.000000) translate(-72.135383, -58.834427) "></path>
                <path d="M55.1177547,74.2899408 L32.0366077,74.2899408 C25.9926785,74.2899408 21.0909091,69.3532544 21.0909091,63.2662722 L21.0909091,20.1301775 C21.0909091,14.0431953 25.9926785,9.10650888 32.0366077,9.10650888 L74.8676022,9.10650888 C80.9115314,9.10650888 85.8133008,14.0431953 85.8133008,20.1301775 L85.8133008,43.3757396 C85.8133008,44.1905325 85.1946309,44.8136095 84.385601,44.8136095 C83.5765711,44.8136095 82.9579012,44.1905325 82.9579012,43.3757396 L82.9579012,20.1301775 C82.9579012,15.6248521 79.3410616,11.9822485 74.8676022,11.9822485 L32.0366077,11.9822485 C27.5631483,11.9822485 23.9463087,15.6248521 23.9463087,20.1301775 L23.9463087,63.2662722 C23.9463087,67.7715976 27.5631483,71.4142012 32.0366077,71.4142012 L55.1177547,71.4142012 C55.9267846,71.4142012 56.5454545,72.0372781 56.5454545,72.852071 C56.5454545,73.6668639 55.9267846,74.2899408 55.1177547,74.2899408 Z" id="路径" fill="#666666" fill-rule="nonzero"></path>
                <path d="M89.8055556,87.0700637 C90.6186414,87.0700637 91.2777778,87.7259523 91.2777778,88.5350318 C91.2777778,89.3441114 90.6186414,90 89.8055556,90 L30.9166667,90 C30.1035808,90 29.4444444,89.3441114 29.4444444,88.5350318 C29.4444444,87.7259523 30.1035808,87.0700637 30.9166667,87.0700637 L89.8055556,87.0700637 Z M25.0277778,87.0700637 C25.8408637,87.0700637 26.5,87.7259523 26.5,88.5350318 C26.5,89.3441114 25.8408637,90 25.0277778,90 L16.1944444,90 C15.3813586,90 14.7222222,89.3441114 14.7222222,88.5350318 C14.7222222,87.7259523 15.3813586,87.0700637 16.1944444,87.0700637 L25.0277778,87.0700637 Z M104.527778,81.2101911 C105.340864,81.2101911 106,81.8660797 106,82.6751592 C106,83.4842388 105.340864,84.1401274 104.527778,84.1401274 L101.583333,84.1401274 C100.770247,84.1401274 100.111111,83.4842388 100.111111,82.6751592 C100.111111,81.8660797 100.770247,81.2101911 101.583333,81.2101911 L104.527778,81.2101911 Z M95.6944444,81.2101911 C96.5075303,81.2101911 97.1666667,81.8660797 97.1666667,82.6751592 C97.1666667,83.4842388 96.5075303,84.1401274 95.6944444,84.1401274 L1.47222222,84.1401274 C0.659136341,84.1401274 0,83.4842388 0,82.6751592 C0,81.8660797 0.659136341,81.2101911 1.47222222,81.2101911 L95.6944444,81.2101911 Z" id="形状结合" fill="#CCCCCC" fill-rule="nonzero"></path>
            </g>
        </g>
    </g>
</svg>