<?xml version="1.0" encoding="UTF-8"?>
<svg width="16px" height="12px" viewBox="0 0 16 12" version="1.1" xmlns="http://www.w3.org/2000/svg" xmlns:xlink="http://www.w3.org/1999/xlink">
    <title>形状</title>
    <g id="1.0.1" stroke="none" stroke-width="1" fill="none" fill-rule="evenodd">
        <g id="确认开启" transform="translate(-250, -24)" fill="#6F55AE" fill-rule="nonzero">
            <g id="编组-11" transform="translate(250, 20)">
                <path d="M8.42105263,10.7714286 L8.42105263,15.1428571 L12.2105263,15.1428571 C13.8947368,14.9714286 15.1578947,13.5142857 15.1578947,11.7142857 C15.1578947,9.82857142 13.6421053,8.28571427 11.7894737,8.28571429 L11.7052632,8.28571429 C11.2842105,6.31428573 9.6,4.85714286 7.57894737,4.85714286 C5.22105262,4.85714286 3.36842106,6.74285715 3.36842106,9.14285714 C1.93684212,9.3142857 0.842105269,10.6 0.842105269,12.1428571 C0.842105269,13.7714286 2.18947368,15.1428571 3.78947368,15.1428571 L7.57894737,15.1428571 L7.57894737,10.7714286 L5.64210527,12.7428571 L5.05263158,12.1428571 L7.99999999,9.14285714 L10.9473684,12.1428571 L10.3578947,12.7428571 L8.42105263,10.7714286 Z M8.42105263,15.1428571 L8.42105263,16 L7.57894737,16 L7.57894737,15.1428571 L6.31578947,15.1428571 L6.31578947,16 L3.78947368,16 C1.68421052,16 0,14.2857143 0,12.1428571 C0,10.4285714 1.09473685,8.97142857 2.52631579,8.45714286 C2.8631579,5.97142858 4.96842104,4 7.57894737,4 C9.76842104,4 11.7052632,5.45714285 12.3789474,7.42857143 C14.4,7.68571429 16,9.48571429 16,11.7142857 C16,13.9428571 14.3157895,15.7428571 12.2105263,16 L9.68421053,16 L9.68421053,15.1428571 L8.42105263,15.1428571 L8.42105263,15.1428571 Z" id="形状"></path>
            </g>
        </g>
    </g>
</svg>