<?xml version="1.0" encoding="UTF-8"?>
<svg width="106px" height="92px" viewBox="0 0 106 92" version="1.1" xmlns="http://www.w3.org/2000/svg" xmlns:xlink="http://www.w3.org/1999/xlink">
    <title>缺省页_暂无方案</title>
    <g id="steam账号管理" stroke="none" stroke-width="1" fill="none" fill-rule="evenodd">
        <g id="缺省页" transform="translate(-721.000000, -151.000000)">
            <g id="缺省页_暂无方案" transform="translate(721.000000, 151.000000)">
                <polygon id="路径" fill="#CCCCCC" fill-rule="nonzero" points="71.804878 5.13198573 71.804878 5.67479191 75.8536585 9.4744352 91.4634146 1.82580262 77.3658537 10.9548157 77.3658537 15.4453032 79.6097561 13.2247325 79.6097561 13.1753864 79.6585366 13.2247325 81.902439 15.4453032 94 0.493460166 94 0"></polygon>
                <path d="M53.0243902,41.598692 C52.7804878,41.598692 52.5365854,41.549346 52.2926829,41.401308 L27.5121951,27.0909631 C27.0731707,26.8442331 26.7804878,26.3507729 26.7804878,25.8079667 C26.7804878,25.2651605 27.0731707,24.7717004 27.5121951,24.5249703 L52.2926829,10.2146254 C52.7317073,9.96789536 53.3170732,9.96789536 53.7560976,10.2146254 L78.5365854,24.5249703 C78.9756098,24.7717004 79.2682927,25.2651605 79.2682927,25.8079667 C79.2682927,26.3507729 78.9756098,26.8442331 78.5365854,27.0909631 L53.7560976,41.401308 C53.5121951,41.549346 53.2682927,41.598692 53.0243902,41.598692 Z M31.1707317,25.7586207 L53.0243902,38.391201 L74.8780488,25.7586207 L53.0243902,13.1753864 L31.1707317,25.7586207 Z M49.3170732,77.17717 C49.0731707,77.17717 48.8292683,77.127824 48.5853659,76.979786 L23.902439,62.4227111 C23.4634146,62.175981 23.1707317,61.6825208 23.1707317,61.1397146 L23.0243902,32.2722949 C23.0243902,31.7294887 23.3170732,31.2360285 23.7560976,30.9892985 C24.195122,30.7425684 24.7804878,30.7425684 25.2195122,30.9892985 L49.902439,45.5463734 C50.3414634,45.7931034 50.6341463,46.2865636 50.6341463,46.8293698 L50.7804878,75.6967895 C50.7804878,76.2395957 50.4878049,76.7330559 50.0487805,76.979786 C49.804878,77.127824 49.5609756,77.17717 49.3170732,77.17717 Z M26.097561,60.3008323 L47.8536585,73.1307967 L47.7560976,47.6682521 L26,34.8382878 L26.097561,60.3008323 Z M56,76.979786 C55.5609756,76.7330559 55.2682927,76.2395957 55.2682927,75.6967895 L55.4146341,46.8293698 C55.4146341,46.2865636 55.7073171,45.8424495 56.1463415,45.5463734 L80.8292683,30.9892985 C81.2682927,30.7425684 81.8536585,30.7425684 82.2926829,30.9892985 C82.7317073,31.2360285 83.0243902,31.7294887 83.0243902,32.2722949 L82.8780488,61.1397146 C82.8780488,61.6825208 82.5853659,62.126635 82.1463415,62.4227111 L57.4634146,76.979786 C57.2195122,77.127824 56.9756098,77.17717 56.7317073,77.17717 C56.4878049,77.17717 56.2439024,77.127824 56,76.979786 Z M58.2926829,47.6682521 L58.195122,73.1307967 L79.9512195,60.3008323 L80.0487805,34.8382878 L58.2926829,47.6682521 Z" id="形状" fill="#666666" fill-rule="nonzero"></path>
                <path d="M90.3414634,71.206302 C90.7317073,72.6866825 91.0243902,73.0321046 92.5365854,73.4268728 C91.0731707,73.8216409 90.7317073,74.117717 90.3414634,75.6474435 C89.9512195,74.167063 89.6585366,73.8216409 88.1463415,73.4268728 C89.6097561,73.0321046 89.9512195,72.6866825 90.3414634,71.206302 Z M86.8292683,64.1991677 C87.4146341,66.6171225 87.9512195,67.1105826 90.3414634,67.7520809 C87.9512195,68.3935791 87.4634146,68.8870392 86.8292683,71.3049941 C86.195122,68.8870392 85.7073171,68.3935791 83.3170732,67.7520809 C85.7073171,67.1105826 86.195122,66.5677765 86.8292683,64.1991677 Z M17.3170732,67.9988109 C18.1463415,67.9988109 18.7804878,68.6403092 18.7804878,69.4791914 C18.7804878,70.3180737 18.1463415,70.9595719 17.3170732,70.9595719 C16.4878049,70.9595719 15.8536585,70.3180737 15.8536585,69.4791914 C15.8536585,68.6896552 16.5365854,67.9988109 17.3170732,67.9988109 Z M21.8536585,16.1361474 C22.195122,17.6165279 22.5365854,17.912604 24,18.3073722 C22.5365854,18.7021403 22.2439024,18.9982164 21.8536585,20.4785969 C21.4634146,18.9982164 21.1707317,18.7021403 19.7073171,18.3073722 C21.1707317,17.912604 21.4634146,17.6165279 21.8536585,16.1361474 Z M24.195122,5.0332937 C25.1707317,8.83293698 26,9.67181926 29.804878,10.7080856 C26,11.6950059 25.2195122,12.5338882 24.195122,16.3828775 C23.2195122,12.5338882 22.3902439,11.744352 18.5853659,10.7080856 C22.3902439,9.72116528 23.1707317,8.882283 24.195122,5.0332937 Z" id="形状结合" fill="#CCCCCC" fill-rule="nonzero"></path>
                <path d="M29.9478483,57.5124512 L29.8641277,43.4113646 C29.8608488,42.8590896 30.305898,42.4087241 30.858173,42.4054451 C31.0389463,42.4043719 31.2166297,42.452322 31.3723204,42.5441945 L43.4123481,49.6489681 C43.716199,49.8282693 43.9030829,50.154416 43.9041334,50.5072236 L43.9459938,64.5659877 C43.9476382,65.11827 43.501258,65.5673164 42.9489757,65.5689608 C42.7695745,65.569495 42.5933332,65.5217572 42.438727,65.4307517 L30.4405595,58.3683006 C30.1370879,58.1896689 29.949939,57.8645874 29.9478483,57.5124512 Z M62.6364324,49.6489681 L74.6764601,42.5441945 C75.152106,42.2635177 75.7652266,42.4215714 76.0459034,42.8972173 C76.1377759,43.0529079 76.1857261,43.2305913 76.1846528,43.4113646 L76.1009322,57.5124512 C76.0988415,57.8645874 75.9116926,58.1896689 75.608221,58.3683006 L63.6100535,65.4307517 C63.134102,65.7109099 62.521154,65.552188 62.2409958,65.0762364 C62.1499903,64.9216302 62.1022525,64.7453889 62.1027867,64.5659877 L62.1446471,50.5072236 C62.1456976,50.154416 62.3325815,49.8282693 62.6364324,49.6489681 Z" id="形状" stroke="#979797" stroke-width="2" fill-rule="nonzero"></path>
                <path d="M40.4261702,24.8926714 L52.5242584,17.9053807 C52.8337265,17.7266464 53.215054,17.7266464 53.5245221,17.9053807 L65.6226103,24.8926714 C66.1008609,25.1688866 66.2646429,25.780502 65.9884277,26.2587525 C65.9006879,26.410669 65.7745268,26.5368301 65.6226103,26.62457 L53.5245221,33.6118606 C53.215054,33.790595 52.8337265,33.790595 52.5242584,33.6118606 L40.4261702,26.62457 C39.9479196,26.3483548 39.7841375,25.7367394 40.0603527,25.2584888 C40.1480926,25.1065724 40.2742537,24.9804113 40.4261702,24.8926714 Z" id="路径" stroke="#979797" stroke-width="2" fill-rule="nonzero"></path>
                <path d="M57.7379158,26.5381406 C57.8445487,25.9752572 57.7591394,25.4138457 57.5185914,24.8926651 L55.7153545,25.5853549 C55.6612484,25.6061225 55.6048246,25.6217144 55.5471154,25.6323338 C55.5863869,25.8097208 55.5908806,25.9941818 55.5558789,26.1789454 C55.3703104,27.1585061 54.1448759,27.7756359 52.8187944,27.5573435 C51.4927128,27.3390511 50.5681442,26.3679993 50.7537127,25.3884387 C50.9392811,24.4088781 52.1647156,23.7917483 53.4907972,24.0100407 C53.6958868,24.0438015 53.8913726,24.0955676 54.0746331,24.162586 C54.1160135,24.113623 54.1692394,24.0680575 54.233316,24.0289367 L55.7721845,23.0887153 C55.1999804,22.7607759 54.5302997,22.5190486 53.7961458,22.3981961 C51.2649585,21.9815257 48.9258836,23.1594858 48.5716757,25.0292436 C48.2174679,26.8990014 49.9822584,28.7525176 52.5134457,29.1691881 C55.044633,29.5858585 57.383708,28.4078984 57.7379158,26.5381406 Z M54.7178954,26.037993 C54.7725442,25.7495178 54.6796195,25.4621737 54.4816421,25.2206195 L54.2708414,25.0123948 C54.0360536,24.8223338 53.7253529,24.6813686 53.3706107,24.6229729 C52.5054588,24.4805562 51.7059703,24.8831793 51.5849032,25.5222567 C51.463836,26.161334 52.0670359,26.7948601 52.9321878,26.9372768 C53.7973397,27.0796934 54.5968282,26.6770703 54.7178954,26.037993 Z M54.4255588,25.7378428 L54.4030066,25.7566847 L53.9780985,25.9551459 L53.9638693,26.0029238 C53.8518839,26.294004 53.4597531,26.4680129 53.0383005,26.3986357 L53.0233797,26.3955874 L53.0467136,26.3879588 L53.0208631,26.3949883 L52.9168821,26.3718117 C52.681641,26.3060645 52.4941699,26.1700297 52.3939998,26.0052254 L52.3513729,25.9206181 L51.9459692,25.9028464 L51.9117856,25.894601 C51.8731392,25.8758957 51.8640562,25.8306687 51.9065647,25.8108064 L52.3319964,25.6134792 L52.3457223,25.5644604 C52.4577077,25.2733802 52.8498384,25.0993712 53.271291,25.1687485 L53.2754127,25.1701059 L53.2879956,25.1731014 L53.3925485,25.1955276 C53.6274896,25.2611527 53.8148002,25.3968829 53.9151115,25.5613699 L53.9578349,25.6458184 L54.3636021,25.6646446 L54.3977857,25.6728901 C54.4364321,25.6915954 54.4455151,25.7368224 54.4030066,25.7566847 L54.4255588,25.7378428 Z" id="形状结合" fill="#CCCCCC" transform="translate(53.154796, 25.783692) rotate(-4.000000) translate(-53.154796, -25.783692) "></path>
                <path d="M89.8055556,89.0700637 C90.6186414,89.0700637 91.2777778,89.7259523 91.2777778,90.5350318 C91.2777778,91.3441114 90.6186414,92 89.8055556,92 L30.9166667,92 C30.1035808,92 29.4444444,91.3441114 29.4444444,90.5350318 C29.4444444,89.7259523 30.1035808,89.0700637 30.9166667,89.0700637 L89.8055556,89.0700637 Z M25.0277778,89.0700637 C25.8408637,89.0700637 26.5,89.7259523 26.5,90.5350318 C26.5,91.3441114 25.8408637,92 25.0277778,92 L16.1944444,92 C15.3813586,92 14.7222222,91.3441114 14.7222222,90.5350318 C14.7222222,89.7259523 15.3813586,89.0700637 16.1944444,89.0700637 L25.0277778,89.0700637 Z M104.527778,83.2101911 C105.340864,83.2101911 106,83.8660797 106,84.6751592 C106,85.4842388 105.340864,86.1401274 104.527778,86.1401274 L101.583333,86.1401274 C100.770247,86.1401274 100.111111,85.4842388 100.111111,84.6751592 C100.111111,83.8660797 100.770247,83.2101911 101.583333,83.2101911 L104.527778,83.2101911 Z M95.6944444,83.2101911 C96.5075303,83.2101911 97.1666667,83.8660797 97.1666667,84.6751592 C97.1666667,85.4842388 96.5075303,86.1401274 95.6944444,86.1401274 L1.47222222,86.1401274 C0.659136341,86.1401274 0,85.4842388 0,84.6751592 C0,83.8660797 0.659136341,83.2101911 1.47222222,83.2101911 L95.6944444,83.2101911 Z" id="形状结合" fill="#CCCCCC" fill-rule="nonzero"></path>
            </g>
        </g>
    </g>
</svg>