<?xml version="1.0" encoding="UTF-8"?>
<svg width="16px" height="16px" viewBox="0 0 16 16" version="1.1" xmlns="http://www.w3.org/2000/svg" xmlns:xlink="http://www.w3.org/1999/xlink">
    <title>icon_添加</title>
    <defs>
        <filter color-interpolation-filters="auto" id="filter-1">
            <feColorMatrix in="SourceGraphic" type="matrix" values="0 0 0 0 0.207843 0 0 0 0 0.133333 0 0 0 0 0.317647 0 0 0 1.000000 0"></feColorMatrix>
        </filter>
    </defs>
    <g id="steam账号管理" stroke="none" stroke-width="1" fill="none" fill-rule="evenodd">
        <g id="icon_添加" transform="translate(-114.000000, -37.000000)" filter="url(#filter-1)">
            <g transform="translate(114.000000, 37.000000)">
                <path d="M8,16 C3.58186667,16 0,12.4181333 0,8 C0,3.58186667 3.58186667,0 8,0 C12.4181333,0 16,3.58186667 16,8 C16,12.4181333 12.4181333,16 8,16 Z M8,14.9333333 C11.8293333,14.9333333 14.9333333,11.8293333 14.9333333,8 C14.9333333,4.17066667 11.8293333,1.06666667 8,1.06666667 C4.17066667,1.06666667 1.06666667,4.17066667 1.06666667,8 C1.06666667,11.8293333 4.17066667,14.9333333 8,14.9333333 Z" id="形状" fill="#000000" fill-rule="nonzero"></path>
                <path d="M3.73333333,8.53333333 C3.43878147,8.53333333 3.2,8.29455187 3.2,8 C3.2,7.70544813 3.43878147,7.46666667 3.73333333,7.46666667 L12.2666667,7.46666667 C12.5612185,7.46666667 12.8,7.70544813 12.8,8 C12.8,8.29455187 12.5612185,8.53333333 12.2666667,8.53333333 L3.73333333,8.53333333 Z" id="路径" fill="#000000" fill-rule="nonzero"></path>
                <path d="M7.46666667,3.73333333 C7.46666667,3.43878147 7.70544813,3.2 8,3.2 C8.29455187,3.2 8.53333333,3.43878147 8.53333333,3.73333333 L8.53333333,12.2666667 C8.53333333,12.5612185 8.29455187,12.8 8,12.8 C7.70544813,12.8 7.46666667,12.5612185 7.46666667,12.2666667 L7.46666667,3.73333333 Z" id="路径" fill="#000000" fill-rule="nonzero"></path>
            </g>
        </g>
    </g>
</svg>