<?xml version="1.0" encoding="UTF-8"?>
<svg width="93px" height="30px" viewBox="0 0 93 30" version="1.1" xmlns="http://www.w3.org/2000/svg" xmlns:xlink="http://www.w3.org/1999/xlink">
    <title>icon_inspect_icon</title>
    <g id="页面-1" stroke="none" stroke-width="1" fill="none" fill-rule="evenodd">
        <g id="icon_inspect_icon" transform="translate(0, 0.4832)" fill="#FFFFFF">
            <g id="NSDA" transform="translate(33.469, 0)" fill-rule="nonzero" font-family="PingFangSC-Medium, PingFang SC" font-size="21.12" font-weight="400">
                <text>
                    <tspan x="0" y="22">NSDA</tspan>
                </text>
            </g>
            <g id="编组-10" transform="translate(0, 1.5168)">
                <path d="M5.33199938,5.75254068 L5.38107179,5.8524027 C5.62970534,6.3583703 6.82314639,8.78701476 8.96139495,13.1383361 C6.18101392,18.4650924 4.61878733,21.4580636 4.27471518,22.1172497 C3.95698787,22.9664899 3.15286806,23.5692115 2.21130221,23.5692115 C0.990033723,23.5692115 0,22.5552121 0,21.3043805 C0,20.9674362 0.0718403389,20.6476774 0.20068886,20.3602951 C0.200907091,20.3609117 1.44328041,16.8238383 2.70537393,13.2306208 L2.94956802,12.535393 C4.16848639,9.06509647 5.33199938,5.75254068 5.33199938,5.75254068 Z" id="形状结合"></path>
                <path d="M8.36609337,3.56320401 C9.50466186,3.56320401 10.5077394,4.15735244 11.0958829,5.05944186 C11.4765679,5.59413499 12.6263705,7.20529459 13.7561088,8.78833918 L14.1003597,9.27072041 C15.1832157,10.7880712 16.1718672,12.1734181 16.3503599,12.4235308 L16.3789605,12.4636074 C16.3789605,12.4636074 13.1698268,23.6627182 13.1698268,23.6627182 C13.1698268,23.6627182 6.96755577,11.4260326 5.59765597,8.7233076 C5.27365479,8.20431667 5.08599509,7.58595566 5.08599509,6.92270338 C5.08599509,5.06730311 6.55454511,3.56320401 8.36609337,3.56320401 Z" id="形状结合"></path>
                <path d="M24.4749216,0 C27.5263382,0 30,2.53354159 30,5.65882353 C30,6.6261727 29.7630109,7.53683019 29.3452537,8.33321398 L29.3196146,8.38194184 C29.3196146,8.38194184 29.3085458,8.40155489 29.2871949,8.43938693 C29.2693681,8.47331494 29.2518628,8.50430042 29.2340808,8.53509833 C28.8079519,9.28856619 26.8728663,12.7173786 24.9377808,16.146191 L24.5515943,16.8304816 C22.8951124,19.7656312 21.3128144,22.5693331 20.7615071,23.5462043 C20.0725361,24.9988918 18.6173837,26 16.9339363,26 C14.5835209,26 12.6781327,24.0484882 12.6781327,21.6411765 C12.6781327,20.9827059 12.8206907,20.3583375 13.0759203,19.7986811 L13.0131327,19.961 L13.1231898,19.6780008 C16.9225515,9.83279957 18.9902707,4.47476487 19.3263474,3.60389674 L19.3449441,3.55332479 L19.3627253,3.50963157 C19.3710862,3.48796609 19.3752667,3.47713335 19.3752667,3.47713335 L19.4248189,3.35989926 C20.2852015,1.38023439 22.2226856,0 24.4749216,0 Z M17.1,18.7976942 C15.7362815,18.7976942 14.6307692,19.9295857 14.6307692,21.3258446 C14.6307692,22.7221035 15.7362815,23.8539949 17.1,23.8539949 C18.4637185,23.8539949 19.5692308,22.7221035 19.5692308,21.3258446 C19.5692308,19.9295857 18.4637185,18.7976942 17.1,18.7976942 Z M24.7153846,1.67118608 C22.6718145,1.67118608 21.0184615,3.36399061 21.0184615,5.44811505 C21.0184615,7.53223948 22.6718145,9.22504401 24.7153846,9.22504401 C26.7589547,9.22504401 28.4123077,7.53223948 28.4123077,5.44811505 C28.4123077,3.36399061 26.7589547,1.67118608 24.7153846,1.67118608 Z M24.7153846,3.12913 C25.960033,3.12913 26.9723077,4.16555914 26.9723077,5.44811505 C26.9723077,6.73067096 25.960033,7.76710009 24.7153846,7.76710009 C23.4707363,7.76710009 22.4584615,6.73067096 22.4584615,5.44811505 C22.4584615,4.16555914 23.4707363,3.12913 24.7153846,3.12913 Z" id="形状结合"></path>
            </g>
        </g>
    </g>
</svg>