<?xml version="1.0" encoding="UTF-8"?>
<svg width="28px" height="12px" viewBox="0 0 28 12" version="1.1" xmlns="http://www.w3.org/2000/svg" xmlns:xlink="http://www.w3.org/1999/xlink">
    <title>新</title>
    <g id="v1.5.0" stroke="none" stroke-width="1" fill="none" fill-rule="evenodd">
        <g id="新">
            <path d="M5.9,0 L22.1,0 C25.35848,-5.9857307e-16 28,2.64151998 28,5.9 L28,6.1 C28,9.35848002 25.35848,12 22.1,12 L5.9,12 C2.64151998,12 1.84610453e-15,9.35848002 0,6.1 L0,5.9 C-3.99048713e-16,2.64151998 2.64151998,5.9857307e-16 5.9,0 Z" id="矩形" fill="#FF5650"></path>
            <path d="M4.76132191,9.75 L4.76132191,6.21399457 C4.76132191,5.39877717 4.67319461,4.5326087 4.61444308,3.75815217 L4.66340269,3.75815217 L5.41738066,5.32744565 L7.80660955,9.75 L8.97184823,9.75 L8.97184823,2.25 L7.89473684,2.25 L7.89473684,5.74524457 C7.89473684,6.56046196 7.98286414,7.4673913 8.04161567,8.24184783 L7.99265606,8.24184783 L7.23867809,6.65217391 L4.8494492,2.25 L3.68421053,2.25 L3.68421053,9.75 L4.76132191,9.75 Z M15.2386781,9.75 L15.2386781,8.7513587 L12.0073439,8.7513587 L12.0073439,6.32608696 L14.6511628,6.32608696 L14.6511628,5.32744565 L12.0073439,5.32744565 L12.0073439,3.23845109 L15.130967,3.23845109 L15.130967,2.25 L10.871481,2.25 L10.871481,9.75 L15.2386781,9.75 Z M18.8616891,9.75 L19.8115055,5.58220109 C19.9290086,4.99116848 20.0465116,4.43070652 20.1444308,3.86005435 L20.1933905,3.86005435 C20.2913097,4.43070652 20.3990208,4.99116848 20.5263158,5.58220109 L21.495716,9.75 L22.8959608,9.75 L24.3157895,2.25 L23.2288862,2.25 L22.5434517,6.15285326 C22.4259486,6.9375 22.2986536,7.74252717 22.1811506,8.55774457 L22.1321909,8.55774457 C21.9657283,7.74252717 21.8090575,6.9375 21.6425949,6.15285326 L20.7025704,2.25 L19.7037944,2.25 L18.7735618,6.15285326 C18.6070991,6.94769022 18.4406365,7.75271739 18.2839657,8.55774457 L18.244798,8.55774457 L17.8629131,6.15285326 L17.1872705,2.25 L16.0122399,2.25 L17.4908201,9.75 L18.8616891,9.75 Z" id="NEW" fill="#FFFFFF" fill-rule="nonzero"></path>
        </g>
    </g>
</svg>