<?xml version="1.0" encoding="UTF-8"?>
<svg width="20px" height="20px" viewBox="0 0 20 20" version="1.1" xmlns="http://www.w3.org/2000/svg" xmlns:xlink="http://www.w3.org/1999/xlink">
    <title>切片</title>
    <g id="V1.3.0" stroke="none" stroke-width="1" fill="none" fill-rule="evenodd">
        <g id="出售-下架饰品" transform="translate(-373.000000, -352.000000)" fill="#70658B">
            <g id="编组-13备份-11" transform="translate(362.000000, 141.000000)">
                <g id="编组-4" transform="translate(11.000000, 185.000000)">
                    <g id="绝地求生备份-5" transform="translate(0.000000, 26.000000)">
                        <path d="M16,0 C18.209139,0 20,1.790861 20,4 L20,16 C20,18.209139 18.209139,20 16,20 L4,20 C1.790861,20 0,18.209139 0,16 L0,4 C0,1.790861 1.790861,0 4,0 L16,0 Z M16,1.33333333 L4,1.33333333 C2.57186974,1.33333333 1.40594742,2.45597898 1.33659687,3.86690644 L1.33333333,4 L1.33333333,16 C1.33333333,17.4281303 2.45597898,18.5940526 3.86690644,18.6634031 L4,18.6666667 L16,18.6666667 C17.4281303,18.6666667 18.5940526,17.544021 18.6634031,16.1330936 L18.6666667,16 L18.6666667,4 C18.6666667,2.57186974 17.544021,1.40594742 16.1330936,1.33659687 L16,1.33333333 Z" id="矩形" fill-rule="nonzero"></path>
                        <polygon id="路径-3" points="5.0414974 15.3979972 6.30823083 14.0535934 6.30823083 6.30978686 12.4641284 6.30978686 8.50641254 9.05620541 8.50641254 10.4872645 13.4478209 10.4872645 13.4478209 13.2850839 8.60290543 13.2850839 7.27563622 14.6123532 14.8723342 14.6123532 14.8723342 9.20305075 10.8535111 9.20305075 14.8723342 6.30978686 14.8723342 4.73133053 4.84784593 4.73133053"></polygon>
                    </g>
                </g>
            </g>
        </g>
    </g>
</svg>