<?xml version="1.0" encoding="UTF-8"?>
<svg width="20px" height="20px" viewBox="0 0 20 20" version="1.1" xmlns="http://www.w3.org/2000/svg" xmlns:xlink="http://www.w3.org/1999/xlink">
    <title>切片</title>
    <g id="V1.3.0" stroke="none" stroke-width="1" fill="none" fill-rule="evenodd">
        <g id="出售-下架饰品" transform="translate(-373.000000, -326.000000)" fill="#73688E">
            <g id="编组-13备份-11" transform="translate(362.000000, 141.000000)">
                <g id="绝地求生备份" transform="translate(11.000000, 185.000000)">
                    <path d="M16,0 C18.209139,0 20,1.790861 20,4 L20,16 C20,18.209139 18.209139,20 16,20 L4,20 C1.790861,20 0,18.209139 0,16 L0,4 C0,1.790861 1.790861,0 4,0 L16,0 Z M16,1.33333333 L4,1.33333333 C2.57186974,1.33333333 1.40594742,2.45597898 1.33659687,3.86690644 L1.33333333,4 L1.33333333,16 C1.33333333,17.4281303 2.45597898,18.5940526 3.86690644,18.6634031 L4,18.6666667 L16,18.6666667 C17.4281303,18.6666667 18.5940526,17.544021 18.6634031,16.1330936 L18.6666667,16 L18.6666667,4 C18.6666667,2.57186974 17.544021,1.40594742 16.1330936,1.33659687 L16,1.33333333 Z" id="矩形" fill-rule="nonzero"></path>
                    <polygon id="Fill-1" points="15.6835105 6.71812014 12.4679838 6.71812014 10.212623 11.2307946 12.2492427 11.2307946 11.6399738 12.4615388 6.52185526 12.4615388 8.46977404 8.56415505 9.4146412 8.56415505 9.3924253 10.8205737 11.4427976 6.71812014 7.34197163 6.71812014 3.65136659 14.1025039 5.46631553 14.1025039 5.46631553 14.1025039 7.31267594 14.1025039 7.31267594 14.1025039 9.16668579 14.1025039 9.16652304 14.1026667 11.0128835 14.1026667 11.0130462 14.1025039 12.8781233 14.1025039 15.1335654 9.58974808 13.1515497 9.59153838 13.0822979 9.59153838 13.592938 8.56968868 14.5899677 8.56968868 14.59306 8.56415505 15.6717922 8.56415505 16.9019667 6.10266667"></polygon>
                </g>
            </g>
        </g>
    </g>
</svg>