<?xml version="1.0" encoding="UTF-8"?>
<svg width="20px" height="20px" viewBox="0 0 20 20" version="1.1" xmlns="http://www.w3.org/2000/svg" xmlns:xlink="http://www.w3.org/1999/xlink">
    <title>切片</title>
    <g id="V1.3.0" stroke="none" stroke-width="1" fill="none" fill-rule="evenodd">
        <g id="出售-下架饰品" transform="translate(-1102.000000, -643.000000)" fill="#352251" fill-rule="nonzero">
            <g id="编组-20备份-4" transform="translate(1092.000000, 450.000000)">
                <g id="绝地求生备份-8" transform="translate(10.000000, 193.000000)">
                    <path d="M16,0 C18.209139,0 20,1.790861 20,4 L20,16 C20,18.209139 18.209139,20 16,20 L4,20 C1.790861,20 0,18.209139 0,16 L0,4 C0,1.790861 1.790861,0 4,0 L16,0 Z M16,1.33333333 L4,1.33333333 C2.57186974,1.33333333 1.40594742,2.45597898 1.33659687,3.86690644 L1.33333333,4 L1.33333333,16 C1.33333333,17.4281303 2.45597898,18.5940526 3.86690644,18.6634031 L4,18.6666667 L16,18.6666667 C17.4281303,18.6666667 18.5940526,17.544021 18.6634031,16.1330936 L18.6666667,16 L18.6666667,4 C18.6666667,2.57186974 17.544021,1.40594742 16.1330936,1.33659687 L16,1.33333333 Z" id="矩形"></path>
                    <path d="M10.0015156,10.9822588 C10.6773694,11.5983452 11.7112174,11.5983452 12.3870712,10.9822588 C12.4844345,10.8927336 12.6341523,10.8927336 12.7315156,10.9822588 C13.1187378,11.3361477 13.6431823,11.4989255 14.1626267,11.4267033 C14.3454045,11.4033699 14.5237378,11.3517033 14.6904045,11.2722588 L14.6904045,13.4128144 C14.6897913,14.4848233 13.8207468,15.353619 12.7487378,15.3539256 L6.91540451,15.3539256 C5.84296163,15.3542324 4.97324021,14.4852571 4.97262672,13.4128144 L4.97262672,11.2667033 C5.18096005,11.3683699 5.40596005,11.4272588 5.63707117,11.4400366 C6.11197941,11.4688388 6.57820197,11.303405 6.92873784,10.9817033 C7.02610114,10.892178 7.17581898,10.892178 7.27318228,10.9817033 C7.94903602,11.5977896 8.9828841,11.5977896 9.65873784,10.9817033 C9.75578585,10.8913729 9.90613427,10.8913729 10.0031823,10.9817033 L10.0015156,10.9817033 L10.0015156,10.9822588 Z M13.6604045,4.66668484 C14.075607,4.66564498 14.4475624,4.92322079 14.5926267,5.31225884 L15.5442934,8.16948106 L15.5754045,8.25670328 L15.5898489,8.29670328 C15.6731823,8.57448105 15.6837378,8.8689255 15.6198489,9.15114773 C15.4538814,9.84904199 14.8730724,10.371217 14.1615156,10.4622588 C13.6425118,10.5333725 13.1187505,10.3701169 12.7320712,10.0167033 C12.6346276,9.92683697 12.4845148,9.92683697 12.3870712,10.0167033 C11.7112174,10.6327896 10.6773694,10.6327896 10.0015156,10.0167033 C9.90454613,9.92671715 9.75459621,9.92671715 9.65762672,10.0167033 C8.98177298,10.6327896 7.94792491,10.6327896 7.27207117,10.0167033 C7.17470787,9.92717802 7.02499002,9.92717802 6.92762672,10.0167033 C6.57581157,10.3377668 6.10848657,10.501832 5.63318228,10.4711477 C4.79807145,10.4240799 4.11533388,9.78805717 4.00929339,8.95836994 C3.98596005,8.73614772 4.00651561,8.51059217 4.07151561,8.29725884 L4.07540451,8.2839255 C4.08984895,8.23948106 4.10540451,8.19503661 4.12262672,8.15225884 L5.06373784,5.31225884 C5.20942876,4.92198425 5.58327518,4.66417443 5.99984895,4.66668484 L13.6609601,4.66668484 L13.6604045,4.66668484 Z" id="形状"></path>
                </g>
            </g>
        </g>
    </g>
</svg>