<?xml version="1.0" encoding="UTF-8"?>
<svg width="40px" height="40px" viewBox="0 0 40 40" version="1.1" xmlns="http://www.w3.org/2000/svg" xmlns:xlink="http://www.w3.org/1999/xlink">
    <title>Flip pad</title>
    <g id="1.0.1" stroke="none" stroke-width="1" fill="none" fill-rule="evenodd">
        <g id="关闭同步" transform="translate(-530, -335)" fill="#6F55AE" fill-rule="nonzero">
            <g id="编组-9备份" transform="translate(425, 244)">
                <g id="编组-11" transform="translate(41, 76)">
                    <g id="编组-17" transform="translate(1, 0)">
                        <g id="编组-4" transform="translate(35, 15)">
                            <g id="Flip-pad" transform="translate(28, 0)">
                                <path d="M23.8461538,40 L4.61538462,40 C1.63923079,40 0,38.3607692 0,35.3846154 L0,23.8461538 C0,20.87 1.63923079,19.2307692 4.61538462,19.2307692 L19.2307692,19.2307692 L19.2307692,4.61538462 C19.2307692,1.63923079 20.87,0 23.8461538,0 L35.3846154,0 C38.3607692,0 40,1.63923079 40,4.61538462 L40,23.8461538 C40,26.8223077 38.3607692,28.4615385 35.3846154,28.4615385 L28.4615385,28.4615385 L28.4615385,35.3846154 C28.4615385,38.3607692 26.8223077,40 23.8461538,40 Z M4.61538462,20.7692308 C2.48692306,20.7692308 1.53846152,21.7176923 1.53846152,23.8461538 L1.53846152,35.3846154 C1.53846152,37.5130769 2.48692306,38.4615385 4.61538462,38.4615385 L23.8461538,38.4615385 C25.9746154,38.4615385 26.9230769,37.5130769 26.9230769,35.3846154 L26.9230769,28.4615385 L23.8461538,28.4615385 C20.87,28.4615385 19.2307692,26.8223077 19.2307692,23.8461538 L19.2307692,20.7692308 L4.61538462,20.7692308 Z M27.6923077,26.9230769 L35.3846154,26.9230769 C37.2361539,26.9230769 38.1953846,26.2038462 38.4138462,24.6153846 L20.8169231,24.6153846 C21.0346154,26.2038462 21.9938462,26.9230769 23.8461538,26.9230769 L27.6923077,26.9230769 L27.6923077,26.9230769 Z M20.7692308,23.0769231 L38.4615385,23.0769231 L38.4615385,5.38461536 L20.7692308,5.38461536 L20.7692308,23.0769231 L20.7692308,23.0769231 Z M20.8169231,3.84615383 L38.4130769,3.84615383 C38.1953846,2.25769228 37.2361539,1.53846152 35.3846154,1.53846152 L23.8461538,1.53846152 C21.9946154,1.53846152 21.0353846,2.25769228 20.8169231,3.84615383 L20.8169231,3.84615383 Z" id="形状"></path>
                                <path d="M4.61538462,16.9231013 C4.59846153,16.9231013 4.58153848,16.9231013 4.56461539,16.9215385 L4.56384614,16.9215385 C4.37800677,16.9091778 4.20301598,16.8296117 4.07153843,16.6976923 L0.225384601,12.8515385 C0.0310870655,12.657241 -0.0447947654,12.3740461 0.0263230608,12.1086308 C0.097440887,11.8432154 0.30475388,11.6359024 0.570169237,11.5647846 C0.835584595,11.4936668 1.11877941,11.5695486 1.31307692,11.7638461 L3.84615383,14.2969231 L3.84615383,12.3076923 C3.84615383,9.98153844 4.67076923,7.96230767 6.29769231,6.30692308 C7.93461541,4.69846154 9.91153847,3.87384614 12.1830769,3.84615383 L14.2969231,3.84615383 L11.7638461,1.31307692 C11.5695486,1.11877941 11.4936668,0.835584595 11.5647846,0.570169237 C11.6359024,0.30475388 11.8432154,0.097440887 12.1086308,0.0263230608 C12.3740461,-0.0447947654 12.657241,0.0310870655 12.8515385,0.225384601 L16.6976923,4.07153843 C16.6984616,4.07153843 16.6984616,4.07384613 16.7,4.07307693 L16.7015384,4.07461537 L16.7038461,4.07692306 C16.8319438,4.20752232 16.9089172,4.37975715 16.9207692,4.5623077 L16.9207692,4.5630769 C16.9238462,4.61153843 16.9223077,4.66153842 16.9161538,4.71 L16.9161538,4.7107692 C16.8944708,4.88157377 16.8158871,5.04009601 16.6930769,5.1607692 L12.8507692,9.0030769 C12.6564717,9.19737443 12.3732769,9.27325626 12.1078616,9.20213844 C11.8424462,9.13102062 11.6351332,8.92370764 11.5640154,8.65829229 C11.4928976,8.39287695 11.5687794,8.10968214 11.7630769,7.91538462 L14.2969231,5.38461536 L12.1923077,5.38461536 C10.3138461,5.40769228 8.73846153,6.06538459 7.38461539,7.39461536 C6.04230767,8.76153845 5.38461536,10.3715384 5.38461536,12.3076923 L5.38461536,14.2969231 L7.91769231,11.7638461 C8.11198983,11.5695486 8.39518463,11.4936668 8.66059998,11.5647847 C8.92601532,11.6359025 9.13332829,11.8432155 9.20444611,12.1086308 C9.27556394,12.3740462 9.19968211,12.657241 9.00538459,12.8515385 L5.1630769,16.6938462 C5.04176717,16.8170691 4.88237546,16.8956807 4.7107692,16.9169231 L4.70923076,16.9169231 C4.67814426,16.9212955 4.64677589,16.9233524 4.61538462,16.9231013 L4.61538462,16.9231013 Z" id="路径"></path>
                            </g>
                        </g>
                    </g>
                </g>
            </g>
        </g>
    </g>
</svg>