<?xml version="1.0" encoding="UTF-8"?>
<svg width="20px" height="20px" viewBox="0 0 20 20" version="1.1" xmlns="http://www.w3.org/2000/svg" xmlns:xlink="http://www.w3.org/1999/xlink">
    <title>时间</title>
    <g id="检视图" stroke="none" stroke-width="1" fill="none" fill-rule="evenodd">
        <g id="IP设置" transform="translate(-325, -208)" fill="#352251" fill-rule="nonzero">
            <g id="编组-3" transform="translate(290, 135)">
                <g id="编组备份" transform="translate(35, 72)">
                    <g id="时间" transform="translate(0, 1)">
                        <path d="M9.99799237,0 C15.5229874,0 20,4.48012846 20,10 C20,15.5198715 15.5270026,20 10.0020076,20 C4.47701265,20 0,15.523886 0,10 C0,4.47611401 4.47701265,0 9.99799237,0 Z M9.99799237,1.33179487 C7.60488927,1.33179487 5.43827055,2.30197122 3.86996019,3.87065377 C2.30176927,5.43921686 1.33179487,7.60619688 1.33179487,10 C1.33179487,12.3941785 2.30198794,14.5612443 3.87087726,16.1297614 C5.43972574,17.6982378 7.60725025,18.6682051 10.0020076,18.6682051 C12.395382,18.6682051 14.5617832,17.6979759 16.1299179,16.1294691 C17.6982842,14.5607305 18.6682051,12.3935329 18.6682051,10 C18.6682051,7.60698495 17.6975476,5.4397966 16.1283086,3.87092989 C14.5592862,2.30227967 12.3918569,1.33179487 9.99799237,1.33179487 Z" id="形状结合"></path>
                        <g id="IP" transform="translate(5.7733, 6.0987)">
                            <polygon id="路径" points="0 0 0 8.568 1.296 8.568 1.296 0"></polygon>
                            <path d="M3,0 L3,8.568 L4.308,8.568 L4.308,5.232 L6.528,5.232 C8.58,5.232 9.612,4.356 9.612,2.604 C9.612,0.864 8.592,0 6.552,0 L3,0 Z M4.308,1.116 L6.444,1.116 C7.08,1.116 7.548,1.236 7.848,1.476 C8.148,1.692 8.304,2.076 8.304,2.604 C8.304,3.132 8.148,3.516 7.86,3.756 C7.56,3.996 7.092,4.116 6.444,4.116 L4.308,4.116 L4.308,1.116 Z" id="形状"></path>
                        </g>
                    </g>
                </g>
            </g>
        </g>
    </g>
</svg>