<?xml version="1.0" encoding="UTF-8"?>
<svg width="29px" height="29px" viewBox="0 0 29 29" version="1.1" xmlns="http://www.w3.org/2000/svg" xmlns:xlink="http://www.w3.org/1999/xlink">
    <title>编组 14</title>
    <g id="1.0.1" stroke="none" stroke-width="1" fill="none" fill-rule="evenodd">
        <g id="云端数据冲突" transform="translate(-457, -384)">
            <g id="编组-9备份" transform="translate(425, 173)">
                <g id="编组-11" transform="translate(20, 78)">
                    <g id="编组-11" transform="translate(0, 114)">
                        <g id="编组-14" transform="translate(10, 17)">
                            <rect id="矩形" x="0" y="0" width="33" height="33"></rect>
                            <path d="M27.4030876,2 C29.3896202,2 31,3.60624888 31,5.58761211 L31,27.4123879 C31,29.3937186 29.3896202,31 27.4030876,31 L5.59691236,31 C3.61037978,31 2,29.3937511 2,27.4123879 L2,5.58761211 C2,3.60628139 3.61037978,2 5.59691236,2 L27.4030876,2 Z M7.54519101,3.9432926 L5.59691236,3.9432926 C4.68641011,3.9432926 3.94831124,4.67947646 3.94831124,5.58764462 L3.94831124,27.4123554 C3.94831124,28.3205235 4.68641011,29.0567074 5.59691236,29.0567074 L27.4030876,29.0567074 C28.3135899,29.0567074 29.0516888,28.3205235 29.0516888,27.4123554 L29.0516888,5.58764462 C29.0516888,4.67947646 28.3135899,3.9432926 27.4030876,3.9432926 L25.454809,3.9432926 L25.454809,11.0438061 C25.454809,13.0054025 23.8764596,14.5992971 21.9173955,14.630963 L21.8579292,14.6314507 L11.1421034,14.6314507 C9.15560337,14.6314507 7.5452236,13.0252018 7.5452236,11.0438386 L7.54519101,3.9432926 Z M23.5064652,3.9432926 L9.49353483,3.9432926 L9.49353483,11.0438061 C9.49353483,11.9428711 10.2169382,12.673398 11.1148629,12.687898 L11.1421034,12.6881581 L21.8578966,12.6881581 C22.7683663,12.6881581 23.5064652,11.9519417 23.5064652,11.0438061 L23.5064652,3.9432926 Z M21.360009,5.80829821 C21.8903506,5.80829821 22.3217011,6.23097646 22.3339202,6.75700785 L22.3341809,6.77996076 L22.3341809,9.76787108 C22.3341809,10.3045011 21.8980404,10.7395011 21.360009,10.7395011 C20.8297,10.7395011 20.3983494,10.3168554 20.3861303,9.79082399 L20.3858697,9.76787108 L20.3858697,6.77996076 C20.3858697,6.24333072 20.8220101,5.80829821 21.360009,5.80829821 L21.360009,5.80829821 Z" id="形状" fill="#6F55AE" fill-rule="nonzero"></path>
                        </g>
                    </g>
                </g>
            </g>
        </g>
    </g>
</svg>