<?xml version="1.0" encoding="UTF-8"?>
<svg width="16px" height="16px" viewBox="0 0 16 16" version="1.1" xmlns="http://www.w3.org/2000/svg" xmlns:xlink="http://www.w3.org/1999/xlink">
    <title>切片</title>
    <g id="自动发货" stroke="none" stroke-width="1" fill="none" fill-rule="evenodd">
        <g id="第三方自动发货V7" transform="translate(-1142.000000, -174.000000)" fill="#9A90A8" fill-rule="nonzero">
            <g id="编组-2" transform="translate(940.000000, 172.000000)">
                <g id="刷新备份-2" transform="translate(202.000000, 2.000000)">
                    <path d="M9.44593754,0 C10.9472965,0.000700548146 12.1431143,1.26544367 12.2147814,2.82406261 L12.2181818,2.97101449 L12.2176667,3.2 L15.2,3.2 C15.4945519,3.2 15.7333333,3.43878147 15.7333333,3.73333333 C15.7333333,4.0278852 15.4945519,4.26666667 15.2,4.26666667 L0.8,4.26666667 C0.505448133,4.26666667 0.266666667,4.0278852 0.266666667,3.73333333 C0.266666667,3.43878147 0.505448133,3.2 0.8,3.2 L3.78166667,3.2 L3.78181818,2.97074881 C3.78242644,1.39496769 4.93276692,0.082494853 6.41453243,0.00373931137 L6.55439394,0 L9.44593754,0 Z M9.44560606,1.07005208 L6.55472543,1.07005201 C5.21152344,1.07397754 4.90692231,2.02460086 4.85522848,2.85639619 L4.85166016,2.97101449 L4.85066667,3.2 L11.1526667,3.2 L11.1528809,2.97128018 C11.1525531,2.12205176 10.6461914,1.07397754 9.54107584,1.07397754 L9.44560606,1.07005208 Z M13.0666667,4.8 C13.3401791,4.8 13.5656038,5.0058881 13.5964119,5.2711354 L13.6,5.33333333 L13.6,12.2666667 C13.6,14.2855743 11.9974489,15.930186 9.9950132,15.9978352 L9.86666667,16 L6.13333333,16 C4.11442575,16 2.46981404,14.3974489 2.40216481,12.3950132 L2.4,12.2666667 L2.4,5.33333333 C2.4,5.03878147 2.63878147,4.8 2.93333333,4.8 C3.20684578,4.8 3.43227049,5.0058881 3.46307854,5.2711354 L3.46666667,5.33333333 L3.46666667,12.2666667 C3.46666667,13.7006692 4.59856358,14.870303 6.01765887,14.9308696 L6.13333333,14.9333333 L9.86666667,14.9333333 C11.3006692,14.9333333 12.470303,13.8014364 12.5308696,12.3823411 L12.5333333,12.2666667 L12.5333333,5.33333333 C12.5333333,5.03878147 12.7721148,4.8 13.0666667,4.8 Z M6.66666667,5.33333333 C6.96121853,5.33333333 7.2,5.5721148 7.2,5.86666667 L7.2,10.6666667 C7.2,10.9612185 6.96121853,11.2 6.66666667,11.2 C6.3721148,11.2 6.13333333,10.9612185 6.13333333,10.6666667 L6.13333333,5.86666667 C6.13333333,5.5721148 6.3721148,5.33333333 6.66666667,5.33333333 Z M9.33333333,5.33333333 C9.6278852,5.33333333 9.86666667,5.5721148 9.86666667,5.86666667 L9.86666667,10.6666667 C9.86666667,10.9612185 9.6278852,11.2 9.33333333,11.2 C9.03878147,11.2 8.8,10.9612185 8.8,10.6666667 L8.8,5.86666667 C8.8,5.5721148 9.03878147,5.33333333 9.33333333,5.33333333 Z" id="形状结合"></path>
                </g>
            </g>
        </g>
    </g>
</svg>