<?xml version="1.0" encoding="UTF-8"?>
<svg width="30px" height="30px" viewBox="0 0 30 30" version="1.1" xmlns="http://www.w3.org/2000/svg" xmlns:xlink="http://www.w3.org/1999/xlink">
    <title>问号</title>
    <g id="问号" stroke="none" stroke-width="1" fill="none" fill-rule="evenodd">
        <path d="M15,0 C23.2842712,0 30,6.71572875 30,15 C30,23.2842712 23.2842712,30 15,30 C6.71572875,30 0,23.2842712 0,15 C0,6.71572875 6.71572875,0 15,0 Z M15,2 C11.4101491,2 8.16014913,3.45507456 5.80761184,5.80761184 C3.45507456,8.16014913 2,11.4101491 2,15 C2,18.5898509 3.45507456,21.8398509 5.80761184,24.1923882 C8.16014913,26.5449254 11.4101491,28 15,28 C18.5898509,28 21.8398509,26.5449254 24.1923882,24.1923882 C26.5449254,21.8398509 28,18.5898509 28,15 C28,11.4101491 26.5449254,8.16014913 24.1923882,5.80761184 C21.8398509,3.45507456 18.5898509,2 15,2 Z" id="形状结合" fill="#3D3D3D" fill-rule="nonzero"></path>
        <text id="？" font-family="PingFangSC-Regular, PingFang SC" font-size="22" font-weight="normal" fill="#3D3D3D">
            <tspan x="10" y="23">？</tspan>
        </text>
    </g>
</svg>