<?xml version="1.0" standalone="no"?><!DOCTYPE svg PUBLIC "-//W3C//DTD SVG 1.1//EN" "http://www.w3.org/Graphics/SVG/1.1/DTD/svg11.dtd"><svg class="icon" width="200px" height="200.00px" viewBox="0 0 1024 1024" version="1.1" xmlns="http://www.w3.org/2000/svg"><path d="M957.5424 568.8832c17.5104 0 31.8976 13.1584 33.8944 30.1568l0.2048 3.9936v266.24c0 70.7584-73.8816 150.1696-154.624 154.5216l-6.912 0.2048H197.4784c-81.0496 0-157.184-77.4656-161.3824-148.6336l-0.1536-6.144v-266.24A34.1504 34.1504 0 0 1 103.936 599.04l0.2048 3.9936v266.24c0 34.4064 44.6976 82.5856 88.064 86.2208l5.2224 0.256h632.6272c43.2128 0 89.6-46.8992 93.0816-82.2784l0.2048-4.1984v-266.24c0-18.8416 15.3088-34.1504 34.1504-34.1504zM891.136 0c39.5776 0 74.1888 29.8496 85.6576 72.8576l1.536 6.1952 44.5952 215.6544 0.9216 9.4208c0.1024 1.536 0.1536 3.1232 0.1536 4.7616 0 67.4816-24.7296 128.8704-64.5632 171.9296l-6.4512 6.656v0.5632c-27.2896 26.8288-60.9792 46.2336-98.2016 53.9648l-9.3184 1.6384a139.1104 139.1104 0 0 1-28.0064 2.5088c-59.6992 0-114.5344-29.0304-152.7296-77.2608-38.1952 48.2304-92.5184 77.2608-152.7296 77.2608-59.6992 0-114.5344-29.0304-152.7296-77.2608-38.1952 48.2304-93.0304 77.2608-152.7296 77.2608-6.8608 0-14.0288-0.3584-20.8384-1.3312l-6.656-1.1776a195.584 195.584 0 0 1-107.52-54.9888C27.4432 444.8256 0 380.5696 0 308.9408c0-3.2256 0.256-6.4 0.768-9.5744l0.8704-4.6592 44.5952-215.6544c9.216-44.1856 41.984-76.032 80.9984-78.848L132.864 0h758.272z m0 68.2496H132.864c-6.4512 0-14.5408 6.8608-18.5856 20.0192l-1.1776 4.608-44.8512 216.3712 0.256 9.3696c2.048 44.9536 18.5344 85.8112 45.056 115.2l5.7856 6.144c18.176 17.8176 39.6288 29.7472 62.3104 34.816l11.776 2.1504c1.3312 0.256 3.1232 0.512 5.3248 0.6656l7.7824 0.256c34.816 0 68.2496-15.872 93.8496-44.9024l5.376-6.4512 53.504-67.4816L412.7744 426.496c26.2144 33.0752 61.952 51.3536 99.2256 51.3536 35.1232 0 68.1472-15.7184 93.8496-44.9024l5.376-6.4512 53.504-67.4816 53.504 67.4816c26.2144 33.0752 61.952 51.3536 99.2256 51.3536 6.2976 0 10.752-0.3584 17.7664-1.6896 19.968-3.0208 39.5776-11.776 57.1392-25.6l5.3248-4.4032 7.2192-7.168c29.696-29.44 48.384-72.8576 50.5856-120.5248l0.2048-9.9328-0.3584-3.4816-43.8784-211.968c-3.072-14.5408-11.0592-23.04-18.0224-24.576l-2.304-0.256z" /></svg>