<?xml version="1.0" standalone="no"?><!DOCTYPE svg PUBLIC "-//W3C//DTD SVG 1.1//EN" "http://www.w3.org/Graphics/SVG/1.1/DTD/svg11.dtd"><svg class="icon" width="200px" height="200.00px" viewBox="0 0 1024 1024" version="1.1" xmlns="http://www.w3.org/2000/svg"><path d="M512 0c282.7776 0 512 229.2224 512 512s-229.2224 512-512 512S0 794.7776 0 512 229.2224 0 512 0z m0 68.2496a443.7504 443.7504 0 1 0 0 887.5008 443.7504 443.7504 0 0 0 0-887.5008z m-102.4 204.8c18.8416 0 34.1504 15.3088 34.1504 34.1504v409.6a34.1504 34.1504 0 0 1-68.3008 0V307.2c0-18.8416 15.3088-34.1504 34.1504-34.1504z m204.8 0c18.8416 0 34.1504 15.3088 34.1504 34.1504v409.6a34.1504 34.1504 0 0 1-68.3008 0V307.2c0-18.8416 15.3088-34.1504 34.1504-34.1504z" /></svg>