<?xml version="1.0" encoding="UTF-8"?>
<svg width="16px" height="16px" viewBox="0 0 16 16" version="1.1" xmlns="http://www.w3.org/2000/svg" xmlns:xlink="http://www.w3.org/1999/xlink">
    <title>形状结合</title>
    <g id="steam账号管理" stroke="none" stroke-width="1" fill="none" fill-rule="evenodd">
        <g id="icon" transform="translate(-160.000000, -125.000000)" fill="#29104E" fill-rule="nonzero">
            <path d="M168,125 C172.418278,125 176,128.581722 176,133 C176,137.418278 172.418278,141 168,141 C163.581722,141 160,137.418278 160,133 C160,128.581722 163.581722,125 168,125 Z M168,126.333333 C164.318102,126.333333 161.333333,129.318102 161.333333,133 C161.333333,136.681898 164.318102,139.666667 168,139.666667 C171.681898,139.666667 174.666667,136.681898 174.666667,133 C174.666667,129.318102 171.681898,126.333333 168,126.333333 Z M168,129 C168.36819,129 168.666667,129.298477 168.666667,129.666667 L168.666333,133.261 L171.800902,135.070209 C172.119764,135.254304 172.229014,135.662031 172.044919,135.980893 C171.860824,136.299755 171.453097,136.409005 171.134235,136.22491 L167.811354,134.306268 C167.535034,134.224898 167.333333,133.969337 167.333333,133.666667 L167.333333,129.666667 C167.333333,129.298477 167.63181,129 168,129 Z" id="形状结合"></path>
        </g>
    </g>
</svg>