<?xml version="1.0" encoding="UTF-8"?>
<svg width="40px" height="40px" viewBox="0 0 40 40" version="1.1" xmlns="http://www.w3.org/2000/svg" xmlns:xlink="http://www.w3.org/1999/xlink">
    <title>编组 11</title>
    <g id="V1.3.0" stroke="none" stroke-width="1" fill="none" fill-rule="evenodd">
        <g id="出售-下架饰品" transform="translate(-539.000000, -141.000000)">
            <g id="编组-13备份-11" transform="translate(362.000000, 141.000000)">
                <g id="编组-11" transform="translate(177.000000, 0.000000)">
                    <path d="M40,0 L40,35 C40,37.7614237 37.7614237,40 35,40 L0,40 L0,40 L40,0 Z" id="矩形" fill="#64B02B" transform="translate(20.000000, 20.000000) scale(1, -1) translate(-20.000000, -20.000000) "></path>
                    <path d="M24.2892723,17.7481457 L19.2510432,12.6919697 C18.9163189,12.3557534 18.9163189,11.8114031 19.2510432,11.4751868 C19.5857675,11.1389705 20.1282723,11.1389705 20.4629966,11.4751868 L24.895249,15.9229714 L33.5370034,7.25216224 C33.8717277,6.91594592 34.4142325,6.91594592 34.7489568,7.25216224 C35.0836811,7.58776275 35.0836811,8.13211297 34.7489568,8.46832928 L25.5012257,17.7481457 C25.3335641,17.9162538 25.1144066,18 24.895249,18 C24.6754926,18 24.456335,17.9162538 24.2892723,17.7481457 Z" id="路径" fill="#FFFFFF"></path>
                </g>
            </g>
        </g>
    </g>
</svg>