<?xml version="1.0" encoding="UTF-8"?>
<svg width="30px" height="30px" viewBox="0 0 30 30" version="1.1" xmlns="http://www.w3.org/2000/svg" xmlns:xlink="http://www.w3.org/1999/xlink">
    <title>用户</title>
    <g id="V1.4.0用户中心" stroke="none" stroke-width="1" fill="none" fill-rule="evenodd">
        <g id="有账户-未登录" transform="translate(-1070.000000, -15.000000)" fill="#9A91A8" fill-rule="nonzero">
            <g id="用户" transform="translate(1070.000000, 15.000000)">
                <path d="M15,17.22 C11.385,17.22 7.965,18.855 5.715,21.69 C7.965,24.51 11.385,26.16 15,26.16 C18.615,26.16 22.035,24.525 24.285,21.69 C22.035,18.87 18.615,17.22 15,17.22 Z M9.045,9.795 C9.045,13.08 11.715,15.75 15,15.75 C18.285,15.75 20.955,13.08 20.955,9.795 C20.955,6.51 18.285,3.84 15,3.84 C11.715,3.84 9.045,6.495 9.045,9.795 Z" id="形状"></path>
                <path d="M15,2.1 C22.11,2.1 27.9,7.89 27.9,15 C27.9,22.11 22.11,27.9 15,27.9 C7.89,27.9 2.1,22.11 2.1,15 C2.1,7.89 7.89,2.1 15,2.1 M15,0 C6.72,0 0,6.72 0,15 C0,23.28 6.72,30 15,30 C23.28,30 30,23.28 30,15 C30,6.72 23.28,0 15,0 Z" id="形状"></path>
            </g>
        </g>
    </g>
</svg>