<?xml version="1.0" encoding="UTF-8"?>
<svg width="20px" height="20px" viewBox="0 0 20 20" version="1.1" xmlns="http://www.w3.org/2000/svg" xmlns:xlink="http://www.w3.org/1999/xlink">
    <title>切片</title>
    <g id="V1.4.0用户中心" stroke="none" stroke-width="1" fill="none" fill-rule="evenodd">
        <g id="账号弹窗" transform="translate(-868.000000, -215.000000)">
            <g id="编组-2备份" transform="translate(855.000000, 61.000000)">
                <g id="编组-11" transform="translate(0.000000, 63.000000)">
                    <g id="编组-13备份" transform="translate(0.000000, 10.000000)">
                        <g id="官方媒体备份-2" transform="translate(13.000000, 81.000000)">
                            <path d="M15.4145412,2.81028614 C13.9078688,1.67382581 12.0326246,1 10,1 C5.02943725,1 1,5.02943725 1,10 C1,14.9705627 5.02943725,19 10,19 C12.0327611,19 13.9081207,18.3260837 15.4148448,17.1894849" id="路径" stroke="#9A90A8" stroke-width="2" stroke-linecap="round"></path>
                            <path d="M15.7039481,6.11182297 L15.8217788,6.18485022 L18.2981719,7.97072017 C18.7457322,8.29348171 18.8535154,8.92735991 18.5389125,9.38652676 C18.2485098,9.81037309 17.6997145,9.93719726 17.2649845,9.70034002 L17.1588939,9.63351044 L16.1861062,8.932 L16.1865234,13.1254554 C16.1865234,13.6867122 15.7430359,14.1417008 15.1959662,14.1417008 C14.687973,14.1417008 14.2692928,13.7493892 14.2120732,13.2439711 L14.205409,13.1254554 L14.2051062,9.013 L13.3453858,9.63351044 C12.9322532,9.93144416 12.3740171,9.86014153 12.0431355,9.48626181 L11.9653672,9.38652676 C11.6749645,8.96268044 11.7444648,8.38996764 12.1088937,8.05050525 L12.2061077,7.97072017 L14.6825008,6.18485022 C14.9862926,5.96576848 15.3801433,5.94142606 15.7039481,6.11182297 Z" id="路径-4" fill="#9A90A8" fill-rule="nonzero" transform="translate(15.252140, 10.070850) rotate(-270.000000) translate(-15.252140, -10.070850) "></path>
                        </g>
                    </g>
                </g>
            </g>
        </g>
    </g>
</svg>