<?xml version="1.0" encoding="UTF-8"?>
<svg width="20px" height="20px" viewBox="0 0 20 20" version="1.1" xmlns="http://www.w3.org/2000/svg" xmlns:xlink="http://www.w3.org/1999/xlink">
    <title>切片</title>
    <g id="V1.4.0用户中心" stroke="none" stroke-width="1" fill="none" fill-rule="evenodd">
        <g id="账号弹窗" transform="translate(-868.000000, -174.000000)">
            <g id="编组-2备份" transform="translate(855.000000, 61.000000)">
                <g id="编组-11" transform="translate(0.000000, 63.000000)">
                    <g id="编组-13备份" transform="translate(0.000000, 10.000000)">
                        <g id="官方媒体备份" transform="translate(13.000000, 40.000000)">
                            <g id="云端上传" transform="translate(0.951454, 1.064182)" stroke="#9A90A8">
                                <path d="M3.16976405,14.1784381" id="路径-2"></path>
                                <path d="M3.16976405,13.5464321 C1.05658802,12.8551139 0,11.495093 0,9.46636945 C0,7.43764592 1.05658802,6.11092255 3.16976405,5.48619933 C4.10511189,1.82873311 6.06470572,0 9.04854554,0 C12.0323854,0 13.9184142,1.82873311 14.7066321,5.48619933 C16.8748128,6.25156196 17.9589032,7.57828533 17.9589032,9.46636945 C17.9589032,11.3544536 16.8748128,12.7144745 14.7066321,13.5464321" id="路径-3" stroke-width="2" stroke-linecap="round"></path>
                            </g>
                            <path d="M10.7039481,12.111823 L10.8217788,12.1848502 L13.2981719,13.9707202 C13.7457322,14.2934817 13.8535154,14.9273599 13.5389125,15.3865268 C13.2485098,15.8103731 12.6997145,15.9371973 12.2649845,15.70034 L12.1588939,15.6335104 L11.1861062,14.932 L11.1865234,19.1254554 C11.1865234,19.6867122 10.7430359,20.1417008 10.1959662,20.1417008 C9.68797295,20.1417008 9.26929282,19.7493892 9.21207317,19.2439711 L9.20540897,19.1254554 L9.20510615,15.013 L8.34538576,15.6335104 C7.9322532,15.9314442 7.37401714,15.8601415 7.0431355,15.4862618 L6.96536719,15.3865268 C6.67496448,14.9626804 6.74446476,14.3899676 7.10889374,14.0505053 L7.20610774,13.9707202 L9.68250082,12.1848502 C9.98629255,11.9657685 10.3801433,11.9414261 10.7039481,12.111823 Z" id="路径-4" fill="#9A90A8" fill-rule="nonzero"></path>
                        </g>
                    </g>
                </g>
            </g>
        </g>
    </g>
</svg>