<?xml version="1.0" standalone="no"?><!DOCTYPE svg PUBLIC "-//W3C//DTD SVG 1.1//EN" "http://www.w3.org/Graphics/SVG/1.1/DTD/svg11.dtd"><svg class="icon" width="200px" height="200.00px" viewBox="0 0 1024 1024" version="1.1" xmlns="http://www.w3.org/2000/svg"><path d="M891.136 0c38.656 0 72.64 28.8 84.864 70.592l2.304 9.152 44.608 217.344c0.576 4.992 1.088 9.344 1.088 14.272 0 66.56-23.68 127.104-61.888 170.368l-9.088 9.6v0.64c-29.568 29.312-66.688 49.856-107.52 56.064-9.216 1.92-18.368 2.56-28.032 2.56-59.712 0-114.56-29.312-152.704-77.888C626.56 521.28 572.16 550.528 512 550.528c-59.712 0-114.56-29.248-152.768-77.824-38.144 48.576-92.992 77.824-152.704 77.824-9.152 0-18.816-0.64-27.456-2.496a195.008 195.008 0 0 1-107.52-55.424C27.392 448.448 0 383.616 0 311.36l0.448-7.168 1.152-7.104 44.672-217.344C55.232 36.096 86.784 4.48 124.672 0.384L132.864 0h758.272zM64.384 324.48c2.944 47.68 21.76 90.624 51.456 120.448 20.8 20.608 45.952 33.728 76.416 38.464 3.008 0.64 8.064 1.088 14.272 1.088 35.456 0 69.312-15.808 95.424-44.416l7.616-8.96 49.664-63.232 49.728 63.168c26.88 34.304 64 53.44 103.04 53.44 35.776 0 69.248-15.68 95.424-44.416l7.616-8.96 49.728-63.232 49.664 63.168c26.944 34.304 64 53.44 103.04 53.44 6.656 0 11.52-0.384 18.624-1.792 22.4-3.392 44.16-13.696 63.296-29.824l1.984-1.92 7.04-7.04c29.312-29.248 48-71.68 51.136-118.4l0.192-16.96-44.032-215.04c-3.2-15.168-11.968-24.832-20.8-26.944l-3.776-0.512H132.864c-8.512 0-17.728 7.552-22.336 21.12l-1.664 6.272L64 311.68l0.32 12.8zM906.112 561.536c15.68 0 28.8 11.712 31.488 27.136l0.512 5.888v264.32c0 87.232-63.36 159.168-144 164.736L784 1024H240.064c-82.048 0-148.672-68.48-153.856-154.368l-0.32-10.816V594.56c0-18.24 14.336-33.024 32-33.024 15.744 0 28.8 11.712 31.488 27.136l0.512 5.888v264.32c0 51.84 36.096 93.824 81.536 98.56l8.64 0.512h543.872c46.528 0 85.376-39.04 89.728-89.536l0.448-9.6V594.56c0-18.24 14.336-33.024 32-33.024z" /></svg>