<?xml version="1.0" encoding="UTF-8"?>
<svg width="20px" height="21px" viewBox="0 0 20 21" version="1.1" xmlns="http://www.w3.org/2000/svg" xmlns:xlink="http://www.w3.org/1999/xlink">
    <title>切片</title>
    <g id="V1.4.0用户中心" stroke="none" stroke-width="1" fill="none" fill-rule="evenodd" opacity="0.5">
        <g id="报价-历史交易报价" transform="translate(-237.000000, -87.000000)" fill="#29104E">
            <g id="编组-20备份-3" transform="translate(15.000000, 76.000000)">
                <g id="编组-22" transform="translate(10.000000, 10.000000)">
                    <g id="发现-未选中" transform="translate(212.000000, 1.250000)">
                        <path d="M10.0204963,0 C14.5161256,0 18.1607677,3.59473612 18.1607677,8.02777041 C18.1657387,11.3993917 16.0261987,14.4068138 12.819143,15.570148 L12.6214679,15.6390558 L12.480386,15.6834572 L11.3634876,16.7846116 C10.6835577,17.4556517 9.60811161,17.5148893 8.85896461,16.9421184 L8.75889851,16.8600939 L8.6775051,16.7846116 L7.56060667,15.6834572 L7.41952476,15.6390558 C4.23440119,14.5734016 2.04644958,11.7041181 1.88923242,8.41753445 L1.88205987,8.21159215 L1.88025114,8.02865845 C1.88025114,3.59473614 5.52486708,0 10.0204963,0 Z M10.0204963,1.33333333 C6.31991073,1.33333333 3.31523787,4.23600723 3.21604809,7.83204 L3.2135193,8.01547592 L3.21507525,8.18247544 C3.27498508,10.9252554 5.03883386,13.3516352 7.63717444,14.303239 L7.81979704,14.3672226 L8.26766852,14.508177 L9.58414591,15.8069715 L9.63850411,15.8580601 C9.84327755,16.0378144 10.1514154,16.0457862 10.3660169,15.8875769 L10.4273943,15.8351342 L11.7733242,14.508177 L12.1984111,14.3746189 C14.9734799,13.446133 16.8316559,10.8928965 16.8274329,8.02777041 C16.8274329,4.33512682 13.7836912,1.33333333 10.0204963,1.33333333 Z" id="路径" fill-rule="nonzero"></path>
                        <g id="ID" transform="translate(6.080000, 4.384000)" fill-rule="nonzero">
                            <polygon id="路径" points="0 0 0 7.616 1.248 7.616 1.248 0"></polygon>
                            <path d="M2.74133333,0 L2.74133333,7.616 L5.52533333,7.616 C6.76266667,7.616 7.69066667,7.27466667 8.33066667,6.592 C8.93866667,5.94133333 9.248,5.01333333 9.248,3.808 C9.248,2.592 8.93866667,1.664 8.33066667,1.024 C7.69066667,0.341333333 6.76266667,0 5.52533333,0 L2.74133333,0 Z M3.98933333,1.06666667 L5.29066667,1.06666667 C6.24,1.06666667 6.93333333,1.28 7.37066667,1.71733333 C7.79733333,2.144 8.01066667,2.848 8.01066667,3.808 C8.01066667,4.74666667 7.79733333,5.44 7.37066667,5.888 C6.93333333,6.32533333 6.24,6.54933333 5.29066667,6.54933333 L3.98933333,6.54933333 L3.98933333,1.06666667 Z" id="形状"></path>
                        </g>
                        <rect id="矩形" x="6.66666667" y="18.6666667" width="6.66666667" height="1.33333333" rx="0.666666667"></rect>
                    </g>
                </g>
            </g>
        </g>
    </g>
</svg>