<?xml version="1.0" standalone="no"?><!DOCTYPE svg PUBLIC "-//W3C//DTD SVG 1.1//EN" "http://www.w3.org/Graphics/SVG/1.1/DTD/svg11.dtd"><svg class="icon" width="200px" height="200.00px" viewBox="0 0 1024 1024" version="1.1" xmlns="http://www.w3.org/2000/svg"><path d="M901.605053 0l61.170526 512h-108.65179l-47.589052-398.228211-589.392842 0.323369L122.179368 910.282105 592.842105 910.174316V1024H61.116632c-29.749895 0-53.894737-25.492211-53.894737-56.912842 0-2.371368 0.107789-4.742737 0.431158-7.060211L122.071579 0.431158 901.658947 0z"  /><path d="M1024 910.228211V1024h-377.263158v-113.771789h377.263158z m0-170.684632v113.771789h-269.473684v-113.717894h269.473684z m0-170.630737v113.717895h-323.368421v-113.717895h323.368421z"  /><path d="M431.157895 170.684632v142.22821c0 47.104 36.217263 85.315368 80.842105 85.315369S592.842105 360.016842 592.842105 312.912842v-142.282105h107.789474v142.282105C700.631579 422.858105 616.178526 512 512 512S323.368421 422.858105 323.368421 312.912842v-142.282105h107.789474z"  /></svg>