<?xml version="1.0" standalone="no"?><!DOCTYPE svg PUBLIC "-//W3C//DTD SVG 1.1//EN" "http://www.w3.org/Graphics/SVG/1.1/DTD/svg11.dtd"><svg class="icon" width="200px" height="200.00px" viewBox="0 0 1024 1024" version="1.1" xmlns="http://www.w3.org/2000/svg"><path d="M827.568775 602.543158a453.955368 453.955368 0 0 1 174.726737 285.210947c11.856842 67.314526-36.271158 130.263579-102.938948 135.006316l-8.08421 0.269474-778.509474 0.323368c-70.925474 0-123.418947-65.589895-110.915368-135.706947a456.111158 456.111158 0 0 1 119.969684-236.490105 434.014316 434.014316 0 0 1 54.810947-48.343579A53.894737 53.894737 0 0 1 240.924564 689.313684c-14.821053 11.048421-28.564211 23.174737-41.283368 36.486737a348.483368 348.483368 0 0 0-91.621053 180.762947c-0.808421 4.149895 1.024 7.383579 3.125895 8.569264l1.616842 0.431157 778.563368-0.323368c2.694737 0 5.712842-3.772632 4.850527-8.784842a346.165895 346.165895 0 0 0-133.012211-217.465263 53.894737 53.894737 0 1 1 64.404211-86.393263zM503.284143 0a292.971789 292.971789 0 0 1 292.594526 292.594526 292.971789 292.971789 0 0 1-292.594526 292.540632A292.971789 292.971789 0 0 1 210.743512 292.648421 292.971789 292.971789 0 0 1 503.284143 0z m0 107.789474A185.182316 185.182316 0 0 0 318.532985 292.594526a185.182316 185.182316 0 0 0 184.751158 184.751158 185.182316 185.182316 0 0 0 184.805053-184.751158A185.182316 185.182316 0 0 0 503.284143 107.789474z" /></svg>