<?xml version="1.0" standalone="no"?><!DOCTYPE svg PUBLIC "-//W3C//DTD SVG 1.1//EN" "http://www.w3.org/Graphics/SVG/1.1/DTD/svg11.dtd"><svg class="icon" width="200px" height="200.00px" viewBox="0 0 1024 1024" version="1.1" xmlns="http://www.w3.org/2000/svg"><path d="M776.784024 0c37.564592 0 72.919502 17.785244 95.393584 47.858476l128.16155 243.657849c15.359984 20.587768 23.659765 45.594899 23.659764 71.302662v544.390163c0 30.989441-12.55746 60.68541-34.869858 82.56665a120.346821 120.346821 0 0 1-84.29128 34.223122H119.161138a120.346821 120.346821 0 0 1-84.29128-34.223122A115.657984 115.657984 0 0 1 0 907.20915V362.010566c0-25.22271 7.976413-49.74479 22.79745-70.063084L145.515636 49.044159A119.107243 119.107243 0 0 1 241.879324 0h534.9047zM916.209562 377.101077H107.78936v530.108073c0 1.940208 0.862315 3.934312 2.586945 5.605047a11.964619 11.964619 0 0 0 5.389468 2.964207l3.395365 0.431158h785.676646a12.611355 12.611355 0 0 0 8.784833-3.395365 8.515359 8.515359 0 0 0 2.317471-3.664838l0.269474-1.940209V377.101077zM646.736161 511.999461a53.89468 53.89468 0 0 1 6.305678 107.412098L646.736161 619.788821H377.262761a53.89468 53.89468 0 0 1-6.305678-107.412097L377.262761 511.999461h269.4734zM464.033196 107.78936H241.879324a11.317883 11.317883 0 0 0-7.329676 2.694734l-1.832419 1.994103-79.332969 156.83352H464.033196V107.78936z m312.750828 0H571.822556v161.522357h296.52853l-82.458861-156.941309a11.317883 11.317883 0 0 0-6.467361-4.311574L776.676235 107.78936z" /></svg>