<?xml version="1.0" standalone="no"?><!DOCTYPE svg PUBLIC "-//W3C//DTD SVG 1.1//EN" "http://www.w3.org/Graphics/SVG/1.1/DTD/svg11.dtd"><svg class="icon" width="200px" height="180.44px" viewBox="0 0 1135 1024" version="1.1" xmlns="http://www.w3.org/2000/svg"><path d="M569.128421 0A482.573474 482.573474 0 0 0 87.363368 454.224842L53.894737 1024h1030.575158l-33.522527-569.775158A482.573474 482.573474 0 0 0 569.128421 0z m12.934737 108.005053a374.784 374.784 0 0 1 361.202526 352.579368L970.105263 916.210526H168.151579l26.839579-455.626105A374.784 374.784 0 0 1 569.128421 107.789474l12.934737 0.215579z"  /><path d="M478.800842 742.292211a47.427368 47.427368 0 0 0 63.488 0l256.215579-239.508211a40.097684 40.097684 0 0 0 0-59.338105 47.211789 47.211789 0 0 0-63.488 0l-224.417684 209.866105-84.07579-100.405895a47.211789 47.211789 0 0 0-63.488 0 40.097684 40.097684 0 0 0 0 59.392l115.765895 129.994106z"  /></svg>