<?xml version="1.0" standalone="no"?><!DOCTYPE svg PUBLIC "-//W3C//DTD SVG 1.1//EN" "http://www.w3.org/Graphics/SVG/1.1/DTD/svg11.dtd"><svg class="icon" width="200px" height="200.00px" viewBox="0 0 1024 1024" version="1.1" xmlns="http://www.w3.org/2000/svg"><path d="M146.270316 646.736842v269.473684h731.459368v-269.473684h97.549474v377.263158H48.720842v-377.263158h97.549474z m698.475789-646.736842L1007.831579 406.258526c22.258526 55.511579-0.377263 120.508632-50.607158 145.138527-2.101895 1.024-4.257684 1.994105-6.467368 2.856421-30.127158 12.072421-58.475789 18.108632-84.992 18.108631-37.295158 0-64.512-14.821053-88.656842-31.043368l-26.300632-18.108632c-17.138526-11.533474-34.061474-21.018947-53.733053-22.743579-17.246316-1.616842-28.887579 4.742737-40.528842 14.066527l-20.48 17.623579c-22.474105 18.863158-53.840842 38.804211-120.454737 37.618526-55.188211-0.970105-84.830316-14.713263-107.034947-30.073263l-10.563368-7.760842-14.551579-11.479579c-17.515789-13.527579-35.031579-24.522105-66.344421-24.252632-32.121263 0.215579-52.116211 11.317895-71.410527 24.522105l-21.935158 15.252211c-20.264421 13.473684-44.085895 25.869474-82.728421 28.240842l-13.689263 0.377263c-63.811368 0-115.496421-57.128421-115.496421-127.730526 0-17.785263 3.341474-35.354947 9.862737-51.631158L175.912421 0h668.833684z m-63.488 107.789474H239.346526L111.023158 428.840421a21.557895 21.557895 0 0 0-1.185684 3.934316l-0.377263 4.149895c0 9.593263 6.197895 17.623579 12.611368 19.509894l2.802526 0.431158 10.886737-0.269473c15.845053-0.970105 23.552-3.557053 37.618526-12.826948l16.49179-11.533474c41.714526-29.103158 76.207158-43.493053 126.652631-43.816421 45.702737-0.377263 79.171368 12.072421 113.556211 36.756211l24.899368 19.186526c16.491789 12.557474 28.456421 17.030737 62.302316 17.623579 32.875789 0.538947 45.271579-3.772632 57.990737-14.066526l24.522105-20.965053c31.043368-24.791579 64.296421-37.618526 105.310316-33.953684 33.414737 3.018105 60.793263 14.821053 91.189895 34.600421l25.222737 17.300211c22.635789 15.683368 31.851789 19.671579 44.355368 19.671579 12.180211 0 26.138947-2.533053 42.037895-8.030316l9.862737-3.664842a2.155789 2.155789 0 0 0 1.131789-1.724632l-0.107789-1.131789L781.312 107.789474z" /></svg>