<?xml version="1.0" standalone="no"?><!DOCTYPE svg PUBLIC "-//W3C//DTD SVG 1.1//EN" "http://www.w3.org/Graphics/SVG/1.1/DTD/svg11.dtd"><svg class="icon" width="200px" height="200.00px" viewBox="0 0 1024 1024" version="1.1" xmlns="http://www.w3.org/2000/svg"><path d="M991.92896 480c4.928 0 9.6 1.152 13.824 3.2a32 32 0 0 1 10.88 8.256l3.328 4.736c3.84 6.592 4.992 14.08 3.84 21.12L1023.92896 512c0 282.752-229.12 512-511.68 512a511.488 511.488 0 0 1-447.36-263.296 32 32 0 0 1 55.808-31.104A447.552 447.552 0 0 0 512.24896 960a447.936 447.936 0 0 0 444.032-390.016l-114.176 65.92a32 32 0 1 1-32-55.424l162.752-94.08a31.808 31.808 0 0 1 19.136-6.4z m-442.176-192l154.304 448H633.40096L596.72896 623.68h-168.96L390.84096 736H320.24896l154.304-448h75.2z m-36.16 79.04h-2.304l-63.872 196.416H576.88896l-63.36-196.416zM512.18496 0a511.552 511.552 0 0 1 451.968 271.68 32 32 0 0 1-56.512 30.08A447.616 447.616 0 0 0 512.12096 64a447.936 447.936 0 0 0-443.84 388.608l114.176-65.92a32 32 0 0 1 40.32 7.04l3.328 4.736a32 32 0 0 1-11.712 43.712L55.67296 533.888a31.872 31.872 0 0 1-54.976-17.664 34.88 34.88 0 0 1-0.32-8.32v4.032l0.32-15.872A511.872 511.872 0 0 1 512.18496 0z" /></svg>